<svg width="178" height="34" viewBox="0 0 178 34" fill="none" xmlns="http://www.w3.org/2000/svg">
<path fill-rule="evenodd" clip-rule="evenodd" d="M2.4541 32.3647V5.85642L9.56312 2.00067H91.0385L173.953 2.00084V10.6763L174.393 10.6763C175.282 10.6763 176.002 13.5087 176.002 17.0027C176.002 20.4967 175.282 23.2074 174.393 23.2074L173.953 23.2074V28.3886L167.085 32.3648L103 32.3647H2.4541Z" fill="url(#paint0_linear_586_7)"/>
<path d="M173.953 10.4408V2.00086L35.5844 2H9.10902L2 5.85575V32.364H47.5459L167.085 32.3649L173.953 28.3886V23.3821" stroke="#1C1E21" stroke-width="3" stroke-linejoin="round"/>
<path d="M9.5 6.09759H167.085M167.085 6.09759V28.7392M167.085 6.09759L170.353 4.74829" stroke="#1C1E21" stroke-linecap="round" stroke-linejoin="round"/>
<path d="M174.074 22.7255C173.209 22.7255 172.387 20.2754 172.387 17.1173C172.387 13.9593 173.209 11.3992 174.074 11.3992" stroke="#1C1E21"/>
<path d="M173.351 10.1943H174.269C175.226 10.1943 176.001 13.2446 176.001 17.0074C176.001 20.7702 175.226 23.6895 174.269 23.6895H173.351" stroke="#1C1E21" stroke-width="3" stroke-linejoin="bevel"/>
<path d="M173.833 10.6763H170.257C169.304 10.6763 168.531 13.5088 168.531 17.0028C168.531 20.4967 169.304 23.2075 170.257 23.2075H173.833" stroke="#1C1E21"/>
<path d="M41.03 14.544H42.108V21.6C42.108 22.482 42.416 22.692 43.956 22.692C44.698 22.692 48.352 22.692 49.29 22.692C50.83 22.692 51.068 22.216 51.25 19.948C51.544 20.144 52.006 20.326 52.328 20.382C52.048 22.972 51.6 23.728 49.29 23.728C48.716 23.728 44.544 23.728 44.026 23.728C41.744 23.728 41.03 23.322 41.03 21.572V14.544ZM41.618 16.84H49.878V17.89H41.618V16.84ZM40.302 12.122H50.536V18.576H49.458V13.158H40.302V12.122ZM54.988 13.41H67.252V14.432H54.988V13.41ZM59.328 17.848H66.706V18.828H59.328V17.848ZM58.782 22.804H67.252V23.798H58.782V22.804ZM62.492 15.146H63.542V23.336H62.492V15.146ZM59.594 11.24L60.672 11.506C59.692 14.712 57.984 17.974 55.198 19.976C55.086 19.696 54.82 19.248 54.652 19.01C57.172 17.232 58.81 14.124 59.594 11.24ZM56.822 17.008H57.872V24.078H56.822V17.008ZM72.824 23L69.604 13.2H71.186L73.608 20.746H73.188L75.554 13.2H76.674L79.04 20.746H78.62L81.042 13.2H82.624L79.404 23H78.284L75.904 15.468H76.324L73.944 23H72.824ZM86.7975 23.14C86.1909 23.14 85.6402 22.986 85.1455 22.678C84.6602 22.37 84.2729 21.9547 83.9835 21.432C83.7035 20.9 83.5635 20.3073 83.5635 19.654C83.5635 18.9913 83.7035 18.3987 83.9835 17.876C84.2729 17.344 84.6602 16.924 85.1455 16.616C85.6402 16.2987 86.1909 16.14 86.7975 16.14C87.3109 16.14 87.7635 16.252 88.1555 16.476C88.5569 16.6907 88.8742 16.9893 89.1075 17.372C89.3409 17.7547 89.4575 18.1887 89.4575 18.674V20.606C89.4575 21.0913 89.3409 21.5253 89.1075 21.908C88.8835 22.2907 88.5709 22.594 88.1695 22.818C87.7682 23.0327 87.3109 23.14 86.7975 23.14ZM87.0495 21.684C87.6189 21.684 88.0762 21.4927 88.4215 21.11C88.7762 20.7273 88.9535 20.2373 88.9535 19.64C88.9535 19.2387 88.8742 18.884 88.7155 18.576C88.5569 18.268 88.3329 18.03 88.0435 17.862C87.7635 17.6847 87.4322 17.596 87.0495 17.596C86.6762 17.596 86.3449 17.6847 86.0555 17.862C85.7755 18.03 85.5515 18.268 85.3835 18.576C85.2249 18.884 85.1455 19.2387 85.1455 19.64C85.1455 20.0413 85.2249 20.396 85.3835 20.704C85.5515 21.012 85.7755 21.2547 86.0555 21.432C86.3449 21.6 86.6762 21.684 87.0495 21.684ZM88.8555 23V21.194L89.1215 19.556L88.8555 17.932V16.28H90.3955V23H88.8555ZM93.2386 23V16.28H94.7786V23H93.2386ZM94.0086 15.048C93.7473 15.048 93.528 14.9593 93.3506 14.782C93.1826 14.6047 93.0986 14.3853 93.0986 14.124C93.0986 13.8627 93.1826 13.6433 93.3506 13.466C93.528 13.2887 93.7473 13.2 94.0086 13.2C94.2793 13.2 94.4986 13.2887 94.6666 13.466C94.8346 13.6433 94.9186 13.8627 94.9186 14.124C94.9186 14.3853 94.8346 14.6047 94.6666 14.782C94.4986 14.9593 94.2793 15.048 94.0086 15.048ZM98.6479 23V13.48H100.188V23H98.6479ZM97.0379 17.68V16.28H101.798V17.68H97.0379ZM104.037 23V12.92H105.577V23H104.037ZM108.425 23V16.28H109.965V23H108.425ZM109.195 15.048C108.933 15.048 108.714 14.9593 108.537 14.782C108.369 14.6047 108.285 14.3853 108.285 14.124C108.285 13.8627 108.369 13.6433 108.537 13.466C108.714 13.2887 108.933 13.2 109.195 13.2C109.465 13.2 109.685 13.2887 109.853 13.466C110.021 13.6433 110.105 13.8627 110.105 14.124C110.105 14.3853 110.021 14.6047 109.853 14.782C109.685 14.9593 109.465 15.048 109.195 15.048ZM115.01 23.14C114.637 23.14 114.277 23.0933 113.932 23C113.587 22.8973 113.269 22.7573 112.98 22.58C112.691 22.3933 112.439 22.1693 112.224 21.908L113.204 20.928C113.437 21.1987 113.703 21.404 114.002 21.544C114.31 21.6747 114.655 21.74 115.038 21.74C115.383 21.74 115.645 21.6887 115.822 21.586C115.999 21.4833 116.088 21.334 116.088 21.138C116.088 20.9327 116.004 20.774 115.836 20.662C115.668 20.55 115.449 20.4567 115.178 20.382C114.917 20.298 114.637 20.214 114.338 20.13C114.049 20.046 113.769 19.934 113.498 19.794C113.237 19.6447 113.022 19.444 112.854 19.192C112.686 18.94 112.602 18.6133 112.602 18.212C112.602 17.7827 112.7 17.414 112.896 17.106C113.101 16.798 113.386 16.56 113.75 16.392C114.123 16.224 114.567 16.14 115.08 16.14C115.621 16.14 116.097 16.238 116.508 16.434C116.928 16.6207 117.278 16.9053 117.558 17.288L116.578 18.268C116.382 18.0253 116.158 17.8433 115.906 17.722C115.654 17.6007 115.365 17.54 115.038 17.54C114.73 17.54 114.492 17.5867 114.324 17.68C114.156 17.7733 114.072 17.9087 114.072 18.086C114.072 18.2727 114.156 18.4173 114.324 18.52C114.492 18.6227 114.707 18.7113 114.968 18.786C115.239 18.8607 115.519 18.9447 115.808 19.038C116.107 19.122 116.387 19.2433 116.648 19.402C116.919 19.5513 117.138 19.7567 117.306 20.018C117.474 20.27 117.558 20.6013 117.558 21.012C117.558 21.6653 117.329 22.1833 116.872 22.566C116.415 22.9487 115.794 23.14 115.01 23.14ZM120.97 23V13.48H122.51V23H120.97ZM119.36 17.68V16.28H124.12V17.68H119.36ZM126.849 13.746H138.133V20.34H137.041V14.782H127.899V20.41H126.849V13.746ZM127.409 18.506H137.671V19.528H127.409V18.506ZM131.917 11.24H133.009V24.106H131.917V11.24Z" fill="#1C1E21"/>
<defs>
<linearGradient id="paint0_linear_586_7" x1="170.988" y1="27.3208" x2="28.9222" y2="-33.8886" gradientUnits="userSpaceOnUse">
<stop stop-color="#FCAC6D"/>
<stop offset="1" stop-color="#FFD761"/>
</linearGradient>
</defs>
</svg>
