<svg width="178" height="34" viewBox="0 0 178 34" fill="none" xmlns="http://www.w3.org/2000/svg">
<path fill-rule="evenodd" clip-rule="evenodd" d="M2.4541 32.3647V5.85642L9.56312 2.00067H91.0385L173.953 2.00084V10.6763L174.393 10.6763C175.282 10.6763 176.002 13.5087 176.002 17.0027C176.002 20.4967 175.282 23.2074 174.393 23.2074L173.953 23.2074V28.3886L167.085 32.3648L103 32.3647H2.4541Z" fill="white"/>
<path d="M173.953 10.4408V2.00086L35.5844 2H9.10902L2 5.85575V32.364H47.5459L167.085 32.3649L173.953 28.3886V23.3821" stroke="#1C1E21" stroke-width="3" stroke-linejoin="round"/>
<path d="M9.5 6.09759H167.085M167.085 6.09759V28.7392M167.085 6.09759L170.353 4.74829" stroke="#1C1E21" stroke-linecap="round" stroke-linejoin="round"/>
<path d="M174.074 22.7255C173.209 22.7255 172.387 20.2754 172.387 17.1173C172.387 13.9593 173.209 11.3992 174.074 11.3992" stroke="#1C1E21"/>
<path d="M173.351 10.1943H174.269C175.226 10.1943 176.001 13.2446 176.001 17.0074C176.001 20.7702 175.226 23.6895 174.269 23.6895H173.351" stroke="#1C1E21" stroke-width="3" stroke-linejoin="bevel"/>
<path d="M173.833 10.6763H170.257C169.304 10.6763 168.531 13.5088 168.531 17.0028C168.531 20.4967 169.304 23.2075 170.257 23.2075H173.833" stroke="#1C1E21"/>
<path d="M33.554 13.102H44.502V20.998H43.424V14.11H34.59V21.082H33.554V13.102ZM34.226 16.154H43.998V17.12H34.226V16.154ZM34.24 19.262H43.984V20.27H34.24V19.262ZM38.412 11.24H39.49V24.106H38.412V11.24ZM48.604 12.206L49.29 11.562C50.032 12.178 50.97 13.06 51.418 13.62L50.704 14.376C50.27 13.788 49.346 12.864 48.604 12.206ZM49.682 23.868L49.486 22.888L49.766 22.44L52.258 20.578C52.328 20.858 52.496 21.264 52.622 21.46C50.256 23.294 49.892 23.588 49.682 23.868ZM47.694 15.636H50.41V16.658H47.694V15.636ZM49.682 23.868C49.584 23.616 49.318 23.182 49.122 22.972C49.388 22.818 49.808 22.398 49.808 21.782V15.636H50.816V22.664C50.816 22.664 49.682 23.476 49.682 23.868ZM53.798 19.29H58.698V20.046H53.798V19.29ZM52.468 12.346H60.126V13.144H52.468V12.346ZM52.804 14.04H59.692V14.81H52.804V14.04ZM52.048 15.79H60.546V16.588H52.048V15.79ZM53.784 21.18H58.726V21.95H53.784V21.18ZM53.042 17.414H58.74V18.226H54.036V24.106H53.042V17.414ZM58.418 17.414H59.426V22.944C59.426 23.476 59.314 23.756 58.922 23.91C58.53 24.064 57.9 24.078 56.906 24.064C56.864 23.812 56.724 23.42 56.598 23.154C57.312 23.182 57.984 23.182 58.166 23.168C58.362 23.168 58.418 23.112 58.418 22.93V17.414ZM55.702 11.24H56.752V16.042H55.702V11.24ZM70.71 21.866H74.518V22.888H70.71V21.866ZM62.982 13.9H68.358V14.922H62.982V13.9ZM70.234 12.99H75.022V23.812H73.958V13.998H71.256V23.91H70.234V12.99ZM68.078 13.9H69.1C69.1 13.9 69.1 14.292 69.1 14.432C68.988 20.662 68.89 22.706 68.442 23.322C68.19 23.686 67.938 23.812 67.518 23.854C67.126 23.91 66.482 23.91 65.852 23.868C65.838 23.56 65.726 23.098 65.544 22.804C66.202 22.86 66.804 22.86 67.07 22.86C67.28 22.874 67.406 22.832 67.532 22.65C67.854 22.216 67.98 20.144 68.078 14.152V13.9ZM64.97 11.436H65.992C65.978 16.602 65.908 21.46 63.444 24.134C63.262 23.896 62.898 23.574 62.632 23.42C64.97 20.956 64.956 16.336 64.97 11.436ZM80.538 12.094H84.5V13.158H80.538V12.094ZM83.968 12.094H85.046C85.046 14.6 85.354 19.92 90.884 23.196C90.646 23.378 90.226 23.826 90.03 24.078C84.43 20.69 83.968 14.726 83.968 12.094ZM83.576 14.838L84.766 15.062C83.758 19.332 81.91 22.286 78.816 24.106C78.62 23.882 78.144 23.448 77.864 23.252C80.972 21.628 82.722 18.8 83.576 14.838ZM96.064 23L92.844 13.2H94.426L96.848 20.746H96.428L98.794 13.2H99.914L102.28 20.746H101.86L104.282 13.2H105.864L102.644 23H101.524L99.144 15.468H99.564L97.184 23H96.064ZM110.038 23.14C109.431 23.14 108.88 22.986 108.386 22.678C107.9 22.37 107.513 21.9547 107.224 21.432C106.944 20.9 106.804 20.3073 106.804 19.654C106.804 18.9913 106.944 18.3987 107.224 17.876C107.513 17.344 107.9 16.924 108.386 16.616C108.88 16.2987 109.431 16.14 110.038 16.14C110.551 16.14 111.004 16.252 111.396 16.476C111.797 16.6907 112.114 16.9893 112.348 17.372C112.581 17.7547 112.698 18.1887 112.698 18.674V20.606C112.698 21.0913 112.581 21.5253 112.348 21.908C112.124 22.2907 111.811 22.594 111.41 22.818C111.008 23.0327 110.551 23.14 110.038 23.14ZM110.29 21.684C110.859 21.684 111.316 21.4927 111.662 21.11C112.016 20.7273 112.194 20.2373 112.194 19.64C112.194 19.2387 112.114 18.884 111.956 18.576C111.797 18.268 111.573 18.03 111.284 17.862C111.004 17.6847 110.672 17.596 110.29 17.596C109.916 17.596 109.585 17.6847 109.296 17.862C109.016 18.03 108.792 18.268 108.624 18.576C108.465 18.884 108.386 19.2387 108.386 19.64C108.386 20.0413 108.465 20.396 108.624 20.704C108.792 21.012 109.016 21.2547 109.296 21.432C109.585 21.6 109.916 21.684 110.29 21.684ZM112.096 23V21.194L112.362 19.556L112.096 17.932V16.28H113.636V23H112.096ZM116.479 23V16.28H118.019V23H116.479ZM117.249 15.048C116.987 15.048 116.768 14.9593 116.591 14.782C116.423 14.6047 116.339 14.3853 116.339 14.124C116.339 13.8627 116.423 13.6433 116.591 13.466C116.768 13.2887 116.987 13.2 117.249 13.2C117.519 13.2 117.739 13.2887 117.907 13.466C118.075 13.6433 118.159 13.8627 118.159 14.124C118.159 14.3853 118.075 14.6047 117.907 14.782C117.739 14.9593 117.519 15.048 117.249 15.048ZM121.888 23V13.48H123.428V23H121.888ZM120.278 17.68V16.28H125.038V17.68H120.278ZM127.277 23V12.92H128.817V23H127.277ZM131.665 23V16.28H133.205V23H131.665ZM132.435 15.048C132.173 15.048 131.954 14.9593 131.777 14.782C131.609 14.6047 131.525 14.3853 131.525 14.124C131.525 13.8627 131.609 13.6433 131.777 13.466C131.954 13.2887 132.173 13.2 132.435 13.2C132.705 13.2 132.925 13.2887 133.093 13.466C133.261 13.6433 133.345 13.8627 133.345 14.124C133.345 14.3853 133.261 14.6047 133.093 14.782C132.925 14.9593 132.705 15.048 132.435 15.048ZM138.25 23.14C137.877 23.14 137.517 23.0933 137.172 23C136.827 22.8973 136.509 22.7573 136.22 22.58C135.931 22.3933 135.679 22.1693 135.464 21.908L136.444 20.928C136.677 21.1987 136.943 21.404 137.242 21.544C137.55 21.6747 137.895 21.74 138.278 21.74C138.623 21.74 138.885 21.6887 139.062 21.586C139.239 21.4833 139.328 21.334 139.328 21.138C139.328 20.9327 139.244 20.774 139.076 20.662C138.908 20.55 138.689 20.4567 138.418 20.382C138.157 20.298 137.877 20.214 137.578 20.13C137.289 20.046 137.009 19.934 136.738 19.794C136.477 19.6447 136.262 19.444 136.094 19.192C135.926 18.94 135.842 18.6133 135.842 18.212C135.842 17.7827 135.94 17.414 136.136 17.106C136.341 16.798 136.626 16.56 136.99 16.392C137.363 16.224 137.807 16.14 138.32 16.14C138.861 16.14 139.337 16.238 139.748 16.434C140.168 16.6207 140.518 16.9053 140.798 17.288L139.818 18.268C139.622 18.0253 139.398 17.8433 139.146 17.722C138.894 17.6007 138.605 17.54 138.278 17.54C137.97 17.54 137.732 17.5867 137.564 17.68C137.396 17.7733 137.312 17.9087 137.312 18.086C137.312 18.2727 137.396 18.4173 137.564 18.52C137.732 18.6227 137.947 18.7113 138.208 18.786C138.479 18.8607 138.759 18.9447 139.048 19.038C139.347 19.122 139.627 19.2433 139.888 19.402C140.159 19.5513 140.378 19.7567 140.546 20.018C140.714 20.27 140.798 20.6013 140.798 21.012C140.798 21.6653 140.569 22.1833 140.112 22.566C139.655 22.9487 139.034 23.14 138.25 23.14ZM144.21 23V13.48H145.75V23H144.21ZM142.6 17.68V16.28H147.36V17.68H142.6Z" fill="#1C1E21"/>
</svg>
