<svg width="652" height="46" viewBox="0 0 652 46" fill="none" xmlns="http://www.w3.org/2000/svg">
<path d="M97.32 27.34V20.68H107.1C108.38 20.68 109.54 20.42 110.58 19.9C111.62 19.38 112.44 18.64 113.04 17.68C113.64 16.68 113.94 15.48 113.94 14.08C113.94 12.72 113.64 11.54 113.04 10.54C112.44 9.54 111.62 8.78 110.58 8.26C109.54 7.74 108.38 7.48 107.1 7.48H97.32V0.819999H107.94C110.62 0.819999 113.02 1.36 115.14 2.44C117.3 3.52 119 5.06 120.24 7.06C121.48 9.02 122.1 11.36 122.1 14.08C122.1 16.8 121.48 19.16 120.24 21.16C119 23.12 117.3 24.64 115.14 25.72C113.02 26.8 110.62 27.34 107.94 27.34H97.32ZM91.32 43V0.819999H99.48V43H91.32ZM138.682 25.36V19H148.462C150.463 19 152.003 18.5 153.083 17.5C154.203 16.46 154.763 15.04 154.763 13.24C154.763 11.6 154.203 10.24 153.083 9.16C152.003 8.04 150.463 7.48 148.462 7.48H138.682V0.819999H149.182C151.903 0.819999 154.283 1.36 156.323 2.44C158.402 3.48 160.002 4.92 161.122 6.76C162.283 8.6 162.863 10.72 162.863 13.12C162.863 15.6 162.283 17.76 161.122 19.6C160.002 21.4 158.402 22.82 156.323 23.86C154.243 24.86 151.823 25.36 149.063 25.36H138.682ZM132.682 43V0.819999H140.842V43H132.682ZM155.723 43L141.802 24.76L149.302 22.42L165.623 43H155.723ZM194.43 43.66C191.35 43.66 188.47 43.1 185.79 41.98C183.15 40.86 180.83 39.32 178.83 37.36C176.87 35.36 175.33 33.04 174.21 30.4C173.09 27.72 172.53 24.86 172.53 21.82C172.53 18.78 173.07 15.96 174.15 13.36C175.27 10.72 176.81 8.42 178.77 6.46C180.77 4.46 183.09 2.92 185.73 1.84C188.37 0.719997 191.23 0.159997 194.31 0.159997C197.43 0.159997 200.31 0.719997 202.95 1.84C205.59 2.92 207.89 4.46 209.85 6.46C211.85 8.42 213.41 10.72 214.53 13.36C215.65 16 216.21 18.84 216.21 21.88C216.21 24.92 215.65 27.76 214.53 30.4C213.41 33.04 211.85 35.36 209.85 37.36C207.89 39.32 205.59 40.86 202.95 41.98C200.35 43.1 197.51 43.66 194.43 43.66ZM194.31 36.04C197.03 36.04 199.39 35.44 201.39 34.24C203.39 33.04 204.95 31.38 206.07 29.26C207.23 27.14 207.81 24.66 207.81 21.82C207.81 19.74 207.49 17.84 206.85 16.12C206.21 14.4 205.29 12.92 204.09 11.68C202.89 10.4 201.47 9.42 199.83 8.74C198.19 8.06 196.35 7.72 194.31 7.72C191.67 7.72 189.33 8.32 187.29 9.52C185.29 10.68 183.71 12.32 182.55 14.44C181.43 16.56 180.87 19.02 180.87 21.82C180.87 23.94 181.19 25.88 181.83 27.64C182.51 29.4 183.43 30.9 184.59 32.14C185.79 33.38 187.21 34.34 188.85 35.02C190.53 35.7 192.35 36.04 194.31 36.04ZM227.478 43V0.819999H233.238L250.338 28.18H247.038L264.078 0.819999H269.838V43H261.738V14.8L263.298 15.28L251.418 34.36H245.898L234.018 15.28L235.638 14.8V43H227.478ZM289.254 27.34V20.68H299.034C300.314 20.68 301.474 20.42 302.514 19.9C303.554 19.38 304.374 18.64 304.974 17.68C305.574 16.68 305.874 15.48 305.874 14.08C305.874 12.72 305.574 11.54 304.974 10.54C304.374 9.54 303.554 8.78 302.514 8.26C301.474 7.74 300.314 7.48 299.034 7.48H289.254V0.819999H299.874C302.554 0.819999 304.954 1.36 307.074 2.44C309.234 3.52 310.934 5.06 312.174 7.06C313.414 9.02 314.034 11.36 314.034 14.08C314.034 16.8 313.414 19.16 312.174 21.16C310.934 23.12 309.234 24.64 307.074 25.72C304.954 26.8 302.554 27.34 299.874 27.34H289.254ZM283.254 43V0.819999H291.414V43H283.254ZM334.53 43V1.72H342.75V43H334.53ZM321.09 8.08V0.819999H356.19V8.08H321.09ZM376.579 43.6C373.179 43.6 370.259 43.02 367.819 41.86C365.419 40.7 363.239 38.96 361.279 36.64L366.679 31.24C367.919 32.88 369.359 34.16 370.999 35.08C372.639 35.96 374.639 36.4 376.999 36.4C379.119 36.4 380.799 35.98 382.039 35.14C383.319 34.3 383.959 33.14 383.959 31.66C383.959 30.38 383.599 29.34 382.879 28.54C382.159 27.74 381.199 27.06 379.999 26.5C378.839 25.94 377.539 25.44 376.099 25C374.699 24.52 373.279 23.98 371.839 23.38C370.439 22.78 369.139 22.04 367.939 21.16C366.779 20.24 365.839 19.08 365.119 17.68C364.399 16.24 364.039 14.44 364.039 12.28C364.039 9.72 364.659 7.54 365.899 5.74C367.139 3.94 368.839 2.56 370.999 1.6C373.159 0.639997 375.599 0.159997 378.319 0.159997C381.199 0.159997 383.799 0.699997 386.119 1.78C388.439 2.86 390.339 4.26 391.819 5.98L386.419 11.38C385.179 10.02 383.899 9.02 382.579 8.38C381.299 7.74 379.839 7.42 378.199 7.42C376.319 7.42 374.839 7.78 373.759 8.5C372.679 9.22 372.139 10.26 372.139 11.62C372.139 12.78 372.499 13.72 373.219 14.44C373.939 15.16 374.879 15.78 376.039 16.3C377.239 16.82 378.539 17.32 379.939 17.8C381.379 18.28 382.799 18.82 384.199 19.42C385.639 20.02 386.939 20.8 388.099 21.76C389.299 22.72 390.259 23.96 390.979 25.48C391.699 26.96 392.059 28.8 392.059 31C392.059 34.92 390.679 38 387.919 40.24C385.159 42.48 381.379 43.6 376.579 43.6ZM419.818 43V0.819999H427.978V43H419.818ZM425.818 43V35.74H447.298V43H425.818ZM457.958 43V0.819999H466.118V43H457.958ZM463.958 43V35.8H487.298V43H463.958ZM463.958 24.94V17.98H485.198V24.94H463.958ZM463.958 8.02V0.819999H486.998V8.02H463.958ZM517.59 43.6C514.59 43.6 511.77 43.06 509.13 41.98C506.53 40.86 504.23 39.3 502.23 37.3C500.27 35.3 498.73 33 497.61 30.4C496.53 27.76 495.99 24.92 495.99 21.88C495.99 18.8 496.55 15.96 497.67 13.36C498.79 10.72 500.35 8.42 502.35 6.46C504.35 4.46 506.69 2.92 509.37 1.84C512.05 0.719997 514.95 0.159997 518.07 0.159997C521.55 0.159997 524.75 0.819997 527.67 2.14C530.59 3.42 533.01 5.24 534.93 7.6L529.41 13.12C528.09 11.4 526.45 10.08 524.49 9.16C522.53 8.24 520.37 7.78 518.01 7.78C515.33 7.78 512.95 8.38 510.87 9.58C508.83 10.74 507.23 12.38 506.07 14.5C504.91 16.58 504.33 19.02 504.33 21.82C504.33 24.62 504.89 27.1 506.01 29.26C507.17 31.38 508.73 33.04 510.69 34.24C512.69 35.44 514.97 36.04 517.53 36.04C520.17 36.04 522.43 35.56 524.31 34.6C526.19 33.6 527.63 32.16 528.63 30.28C529.63 28.36 530.13 26.02 530.13 23.26L535.47 26.92L517.05 26.74V19.66H538.53V20.8C538.53 25.84 537.63 30.06 535.83 33.46C534.03 36.82 531.55 39.36 528.39 41.08C525.27 42.76 521.67 43.6 517.59 43.6ZM569.856 43.66C566.776 43.66 563.896 43.1 561.216 41.98C558.576 40.86 556.256 39.32 554.256 37.36C552.296 35.36 550.756 33.04 549.636 30.4C548.516 27.72 547.956 24.86 547.956 21.82C547.956 18.78 548.496 15.96 549.576 13.36C550.696 10.72 552.236 8.42 554.196 6.46C556.196 4.46 558.516 2.92 561.156 1.84C563.796 0.719997 566.656 0.159997 569.736 0.159997C572.856 0.159997 575.736 0.719997 578.376 1.84C581.016 2.92 583.316 4.46 585.276 6.46C587.276 8.42 588.836 10.72 589.956 13.36C591.076 16 591.636 18.84 591.636 21.88C591.636 24.92 591.076 27.76 589.956 30.4C588.836 33.04 587.276 35.36 585.276 37.36C583.316 39.32 581.016 40.86 578.376 41.98C575.776 43.1 572.936 43.66 569.856 43.66ZM569.736 36.04C572.456 36.04 574.816 35.44 576.816 34.24C578.816 33.04 580.376 31.38 581.496 29.26C582.656 27.14 583.236 24.66 583.236 21.82C583.236 19.74 582.916 17.84 582.276 16.12C581.636 14.4 580.716 12.92 579.516 11.68C578.316 10.4 576.896 9.42 575.256 8.74C573.616 8.06 571.776 7.72 569.736 7.72C567.096 7.72 564.756 8.32 562.716 9.52C560.716 10.68 559.136 12.32 557.976 14.44C556.856 16.56 556.296 19.02 556.296 21.82C556.296 23.94 556.616 25.88 557.256 27.64C557.936 29.4 558.856 30.9 560.016 32.14C561.216 33.38 562.636 34.34 564.276 35.02C565.956 35.7 567.776 36.04 569.736 36.04Z" fill="#1C1E21"/>
<path d="M40.2449 4C39.6408 9.13279 36.1879 12.0546 31.1835 12.0546C26.179 12.0546 22.7262 9.13279 22.1221 4" stroke="#1C1E21" stroke-width="7" stroke-linecap="square"/>
<path d="M58.3684 21.6131L31.1842 42.2593L4 21.6131V6.01373L31.1842 26.66L58.3684 6.01373V21.6131Z" stroke="#1C1E21" stroke-width="7" stroke-linejoin="bevel"/>
<path d="M613.764 41L610.428 32.672H611.652L614.4 39.716H613.956L616.728 32.672H617.94L614.58 41H613.764ZM623.838 41.12C623.214 41.12 622.642 40.944 622.122 40.592C621.61 40.24 621.202 39.744 620.898 39.104C620.594 38.456 620.442 37.696 620.442 36.824C620.442 35.952 620.59 35.196 620.886 34.556C621.19 33.916 621.598 33.424 622.11 33.08C622.622 32.728 623.186 32.552 623.802 32.552C624.434 32.552 625.006 32.728 625.518 33.08C626.03 33.424 626.434 33.916 626.73 34.556C627.034 35.196 627.186 35.956 627.186 36.836C627.186 37.708 627.034 38.468 626.73 39.116C626.434 39.756 626.03 40.252 625.518 40.604C625.014 40.948 624.454 41.12 623.838 41.12ZM623.814 40.052C624.254 40.052 624.638 39.932 624.966 39.692C625.302 39.444 625.566 39.08 625.758 38.6C625.95 38.12 626.046 37.528 626.046 36.824C626.046 36.12 625.95 35.532 625.758 35.06C625.566 34.58 625.302 34.22 624.966 33.98C624.63 33.732 624.242 33.608 623.802 33.608C623.37 33.608 622.986 33.732 622.65 33.98C622.314 34.22 622.05 34.58 621.858 35.06C621.674 35.532 621.582 36.12 621.582 36.824C621.582 37.528 621.674 38.12 621.858 38.6C622.05 39.08 622.314 39.444 622.65 39.692C622.986 39.932 623.374 40.052 623.814 40.052ZM630.725 41.12C630.501 41.12 630.313 41.044 630.161 40.892C630.017 40.732 629.945 40.544 629.945 40.328C629.945 40.104 630.017 39.92 630.161 39.776C630.313 39.624 630.501 39.548 630.725 39.548C630.949 39.548 631.133 39.624 631.277 39.776C631.429 39.92 631.505 40.104 631.505 40.328C631.505 40.544 631.429 40.732 631.277 40.892C631.133 41.044 630.949 41.12 630.725 41.12ZM637.657 41.12C637.033 41.12 636.461 40.944 635.941 40.592C635.429 40.24 635.021 39.744 634.717 39.104C634.413 38.456 634.261 37.696 634.261 36.824C634.261 35.952 634.409 35.196 634.705 34.556C635.009 33.916 635.417 33.424 635.929 33.08C636.441 32.728 637.005 32.552 637.621 32.552C638.253 32.552 638.825 32.728 639.337 33.08C639.849 33.424 640.253 33.916 640.549 34.556C640.853 35.196 641.005 35.956 641.005 36.836C641.005 37.708 640.853 38.468 640.549 39.116C640.253 39.756 639.849 40.252 639.337 40.604C638.833 40.948 638.273 41.12 637.657 41.12ZM637.633 40.052C638.073 40.052 638.457 39.932 638.785 39.692C639.121 39.444 639.385 39.08 639.577 38.6C639.769 38.12 639.865 37.528 639.865 36.824C639.865 36.12 639.769 35.532 639.577 35.06C639.385 34.58 639.121 34.22 638.785 33.98C638.449 33.732 638.061 33.608 637.621 33.608C637.189 33.608 636.805 33.732 636.469 33.98C636.133 34.22 635.869 34.58 635.677 35.06C635.493 35.532 635.401 36.12 635.401 36.824C635.401 37.528 635.493 38.12 635.677 38.6C635.869 39.08 636.133 39.444 636.469 39.692C636.805 39.932 637.193 40.052 637.633 40.052ZM644.544 41.12C644.32 41.12 644.132 41.044 643.98 40.892C643.836 40.732 643.764 40.544 643.764 40.328C643.764 40.104 643.836 39.92 643.98 39.776C644.132 39.624 644.32 39.548 644.544 39.548C644.768 39.548 644.952 39.624 645.096 39.776C645.248 39.92 645.324 40.104 645.324 40.328C645.324 40.544 645.248 40.732 645.096 40.892C644.952 41.044 644.768 41.12 644.544 41.12ZM648.936 41V32.672H650.052V41H648.936ZM647.232 33.68V32.672H649.932V33.68H647.232Z" fill="#1C1E21"/>
</svg>
