<svg width="473" height="26" viewBox="0 0 473 26" fill="none" xmlns="http://www.w3.org/2000/svg">
<path d="M1.08 2.96728H5.682V0.991277H7.502V2.96728H16.472V0.991277H18.292V2.96728H22.894V4.55328H18.292V13.1593H23.284V14.8233H17.876C19.124 16.3833 21.0567 17.6053 23.674 18.4893L22.92 20.1013C19.696 18.7493 17.408 16.9899 16.056 14.8233H7.892C6.54 16.9899 4.356 18.7753 1.34 20.1793L0.378 18.5933C2.94333 17.6053 4.85 16.3486 6.098 14.8233H0.69V13.1593H5.682V4.55328H1.08V2.96728ZM7.502 13.1593H16.472V11.2873H7.502V13.1593ZM7.502 9.80528H16.472V7.95928H7.502V9.80528ZM7.502 6.47728H16.472V4.55328H7.502V6.47728ZM11.09 15.7333H12.91V17.8133H18.188V19.4773H12.91V22.2333H21.828V23.9753H1.99V22.2333H11.09V19.4773H5.76V17.8133H11.09V15.7333ZM30.226 2.03128H49.752V3.85128H41.25V10.9233H51.572V12.7953H41.25V22.0253C41.25 23.7239 40.3747 24.5733 38.624 24.5733H34.568L34.178 22.7793C35.946 22.8486 37.2113 22.8833 37.974 22.8833C38.8927 22.8833 39.352 22.4413 39.352 21.5573V12.7953H28.588V10.9233H39.352V3.85128H30.226V2.03128ZM65.118 2.08328H79.34V3.79928H72.086L71.462 6.68528H77.702V11.7293H80.146V13.4973H64.442V11.7293H68.498L69.226 8.37528H65.742V6.68528H69.59L70.214 3.79928H65.118V2.08328ZM70.37 11.7293H75.83V8.37528H71.098L70.37 11.7293ZM78.482 15.8633V24.9113H76.636V23.6633H68.212V24.9113H66.366V15.8633H78.482ZM68.212 21.8953H76.636V17.5793H68.212V21.8953ZM59.424 1.32928C61.088 2.57728 62.5353 3.87728 63.766 5.22928L62.492 6.52928C61.452 5.29861 59.996 3.98994 58.124 2.60328L59.424 1.32928ZM56.252 8.97328H61.868V20.4913C62.5613 19.8846 63.454 19.0353 64.546 17.9433L65.04 19.9193C63.5147 21.4446 61.9113 22.7793 60.23 23.9233L59.502 22.2593C59.8833 21.9126 60.074 21.5399 60.074 21.1413V10.7673H56.252V8.97328ZM98.372 1.01728H100.296V5.20328H106.978V7.02328H100.296V11.8853H107.68V13.7053H99.152C97.488 17.6573 96.032 20.4653 94.784 22.1293C98.0947 21.7826 101.293 21.2799 104.378 20.6213C103.737 19.2693 102.974 17.8566 102.09 16.3833L103.884 15.7853C105.444 18.4026 106.813 21.1933 107.992 24.1573L106.224 24.9373C105.86 24.0013 105.496 23.1173 105.132 22.2853C101.319 23.0479 97.0633 23.6546 92.366 24.1053L91.924 22.4673L92.314 22.2853C93.5447 21.2106 95.148 18.3506 97.124 13.7053H90.962V11.8853H98.372V7.02328H92.21V5.20328H98.372V1.01728ZM86.542 1.40728C88.2233 2.68994 89.662 3.98994 90.858 5.30728L89.532 6.65928C88.5267 5.44594 87.088 4.11994 85.216 2.68128L86.542 1.40728ZM85.918 7.49128C87.4953 8.84328 88.8213 10.1779 89.896 11.4953L88.544 12.8213C87.608 11.5906 86.2907 10.2386 84.592 8.76528L85.918 7.49128ZM90.624 15.3953C89.4973 18.7059 88.2493 21.7913 86.88 24.6513L85.008 23.8453C86.568 20.7773 87.8767 17.7353 88.934 14.7193L90.624 15.3953ZM122.032 21.4273C119.415 22.3806 116.407 23.1693 113.01 23.7933L112.776 21.9733C116.243 21.4186 119.328 20.6473 122.032 19.6593V21.4273ZM118.964 1.61528C117.647 4.96061 116.303 7.66461 114.934 9.72728C116.113 9.57128 117.343 9.38928 118.626 9.18128L120.16 6.29528L121.798 6.89328C119.441 11.2613 117.465 14.3899 115.87 16.2793C117.846 15.8806 119.796 15.3606 121.72 14.7193V16.3833C118.912 17.3366 116.208 17.9866 113.608 18.3333L113.114 16.6433C113.461 16.4873 113.747 16.3053 113.972 16.0973C114.977 15.0746 116.199 13.3499 117.638 10.9233C116.529 11.0966 115.038 11.3133 113.166 11.5733L112.698 9.85728C112.993 9.71861 113.253 9.48461 113.478 9.15528C114.934 6.74594 116.182 4.00728 117.222 0.939276L118.964 1.61528ZM121.72 4.24128H127.934V1.09528H129.832V4.24128H136.02V6.06128H129.832V9.90928H135.266V11.7293H122.578V9.90928H127.934V6.06128H121.72V4.24128ZM134.512 14.3293V24.7813H132.692V23.5333H125.256V24.7813H123.41V14.3293H134.512ZM125.256 21.7653H132.692V16.0973H125.256V21.7653ZM154.896 1.22528C154.688 2.47328 154.428 3.66928 154.116 4.81328H163.242C163.242 13.6879 163.103 19.2346 162.826 21.4533C162.514 23.5679 161.283 24.6253 159.134 24.6253C158.597 24.6253 157.661 24.5993 156.326 24.5473L155.91 22.8573C157.435 22.9266 158.415 22.9613 158.848 22.9613C160.096 22.9613 160.841 22.2766 161.084 20.9073C161.327 19.3993 161.457 14.6153 161.474 6.55528H153.57C152.842 8.58328 151.958 10.3686 150.918 11.9113L149.722 10.3513C151.351 7.78594 152.461 4.66594 153.05 0.991277L154.896 1.22528ZM150.58 17.7093C151.308 17.3279 152.591 14.5373 154.428 9.33728L156.066 9.93528C154.801 13.3846 153.787 15.8026 153.024 17.1893C154.636 16.8599 156.057 16.5479 157.288 16.2533C156.959 15.2479 156.577 14.2599 156.144 13.2893L157.704 12.7433C158.588 14.7539 159.368 16.9293 160.044 19.2693L158.406 19.9973C158.233 19.2866 158.007 18.5066 157.73 17.6573C155.927 18.1599 153.657 18.6886 150.918 19.2433L150.58 17.7093ZM146.498 24.7553H144.652V11.5473C143.768 14.1819 142.607 16.5739 141.168 18.7233L140.362 16.6953C142.303 14.1646 143.699 11.2353 144.548 7.90728H140.882V6.11328H144.652V1.04328H146.498V6.11328H149.696V7.90728H146.498V9.54528C147.746 10.8453 148.968 12.2319 150.164 13.7053L149.124 15.2913C148.084 13.7313 147.209 12.5006 146.498 11.5993V24.7553ZM177.984 5.51528V23.2473H176.164V21.7653H171.432V24.0013H169.612V5.51528H172.03C172.533 4.09394 172.905 2.58594 173.148 0.991277L175.02 1.25128C174.691 2.89794 174.283 4.31928 173.798 5.51528H177.984ZM171.432 20.0233H176.164V14.3293H171.432V20.0233ZM171.432 12.6393H176.164V7.28328H171.432V12.6393ZM182.508 11.5473C184.311 13.6099 185.732 15.4993 186.772 17.2153L185.29 18.2553C184.233 16.5393 182.803 14.6153 181 12.4833L182.508 11.5473ZM191.426 5.54128C191.426 14.1906 191.296 19.5293 191.036 21.5573C190.776 23.5506 189.563 24.5473 187.396 24.5473L184.744 24.4433L184.302 22.7273C185.394 22.7793 186.339 22.8053 187.136 22.8053C188.349 22.8053 189.06 22.1379 189.268 20.8033C189.424 19.3473 189.528 14.8666 189.58 7.36128H182.43C181.685 9.02528 180.818 10.5073 179.83 11.8073L178.712 10.3253C180.515 7.81194 181.754 4.69194 182.43 0.965276L184.276 1.19928C183.929 2.88061 183.548 4.32794 183.132 5.54128H191.426ZM196.99 2.57728H220.182V4.39728H216.75V22.0773C216.75 23.8106 215.918 24.6773 214.254 24.6773H209.912L209.496 22.8573C211.403 22.9266 212.772 22.9613 213.604 22.9613C214.453 22.9613 214.878 22.5106 214.878 21.6093V4.39728H196.99V2.57728ZM210.12 8.37528V17.9173H201.826V20.2053H200.006V8.37528H210.12ZM201.826 16.2013H208.326V10.0653H201.826V16.2013ZM228.606 14.0693C227.705 15.0226 226.604 16.0626 225.304 17.1893L224.732 15.2393C228.233 12.2406 230.565 9.31994 231.726 6.47728H225.33V4.68328H229.386C228.953 3.53928 228.433 2.41261 227.826 1.30328L229.62 0.783276C230.227 2.04861 230.721 3.25328 231.102 4.39728L230.348 4.68328H233.598V6.26928C232.922 8.15861 231.882 10.0306 230.478 11.8853C231.899 12.7693 233.191 13.7746 234.352 14.9013L233.286 16.5133C232.385 15.5253 231.44 14.6413 230.452 13.8613V24.8593H228.606V14.0693ZM246.572 2.05728V16.4353H244.674V3.85128H237.368V16.4353H235.522V2.05728H246.572ZM243.53 24.4433C242.109 24.4433 241.398 23.6893 241.398 22.1813V16.3833H243.218V21.7913C243.218 22.4153 243.504 22.7273 244.076 22.7273H245.688C246.052 22.7273 246.321 22.5886 246.494 22.3113C246.719 21.9646 246.867 20.9853 246.936 19.3733L248.678 19.9193C248.522 22.0686 248.236 23.3773 247.82 23.8453C247.421 24.2439 246.823 24.4433 246.026 24.4433H243.53ZM240.072 5.69728H241.892V10.6633C241.788 14.5459 241.112 17.6486 239.864 19.9713C238.599 22.1553 236.579 23.8366 233.806 25.0153L232.792 23.3773C235.531 22.1813 237.429 20.6039 238.486 18.6453C239.491 16.5826 240.02 13.9219 240.072 10.6633V5.69728ZM262.432 1.71928C261.548 3.85128 260.404 5.84461 259 7.69928V24.9113H257.128V9.98728C256.019 11.2006 254.753 12.3966 253.332 13.5753L252.734 11.6253C256.374 8.50528 259.026 4.92594 260.69 0.887277L262.432 1.71928ZM267.814 24.4433C265.959 24.4433 265.032 23.5246 265.032 21.6873V13.7573C264.027 14.3293 262.909 14.9099 261.678 15.4993L260.846 13.7313C262.475 12.9686 263.871 12.2493 265.032 11.5733V1.14728H266.904V10.4293C269.608 8.62661 272 6.55528 274.08 4.21528L275.38 5.69728C272.971 8.27994 270.145 10.5939 266.904 12.6393V21.4273C266.904 22.2419 267.355 22.6493 268.256 22.6493H272.416C273.092 22.6493 273.595 22.4326 273.924 21.9993C274.201 21.6006 274.392 20.1013 274.496 17.5013L276.238 18.0733C276.047 21.0719 275.735 22.8833 275.302 23.5073C274.834 24.1313 273.976 24.4433 272.728 24.4433H267.814ZM281.75 24.6253L281.36 22.8053C282.331 22.8746 283.041 22.9093 283.492 22.9093C284.099 22.9093 284.402 22.6319 284.402 22.0773V15.5773C283.345 15.9933 282.339 16.3486 281.386 16.6433L280.944 14.7713C282.088 14.4939 283.241 14.1299 284.402 13.6793V7.80328H281.256V6.00928H284.402V1.09528H286.326V6.00928H288.952V7.80328H286.326V12.8733C287.331 12.3879 288.077 12.0066 288.562 11.7293V13.6273C288.077 13.8873 287.331 14.2599 286.326 14.7453V22.5453C286.326 23.9319 285.598 24.6253 284.142 24.6253H281.75ZM290.98 1.92728H302.316V10.9493H290.98V1.92728ZM300.496 9.41528V7.17928H292.8V9.41528H300.496ZM292.8 5.72328H300.496V3.46128H292.8V5.72328ZM289.16 12.7693H304.032V14.4333H297.532V17.3713H302.966V19.0613H297.532V22.4153C298.572 22.5713 299.803 22.6493 301.224 22.6493C302.472 22.6493 303.633 22.6059 304.708 22.5193L304.188 24.3393L301.354 24.3133C297.939 24.2959 295.599 23.9666 294.334 23.3253C293.329 22.7879 292.436 21.7999 291.656 20.3613C291.032 21.9906 290.165 23.4726 289.056 24.8073L287.678 23.6113C289.654 21.2193 290.746 18.5326 290.954 15.5513L292.618 15.7333C292.566 16.6519 292.436 17.5533 292.228 18.4373C293.06 20.1706 294.022 21.2886 295.114 21.7913L295.738 22.0253V14.4333H289.16V12.7693ZM316.148 24.5473L315.758 22.7273C317.214 22.7966 318.245 22.8313 318.852 22.8313C319.632 22.8313 320.022 22.4586 320.022 21.7133V10.8973H309.804V9.05128H331.956V10.8973H321.92V22.1813C321.92 23.7586 321.114 24.5473 319.502 24.5473H316.148ZM315.654 14.1473C314.545 17.7699 313.019 20.8639 311.078 23.4293L309.44 22.4153C311.451 19.8153 312.907 16.9293 313.808 13.7573L315.654 14.1473ZM327.536 13.4973C329.373 16.4093 330.916 19.3906 332.164 22.4413L330.448 23.2213C329.061 19.7893 327.527 16.7386 325.846 14.0693L327.536 13.4973ZM312.196 2.44728H329.642V4.26728H312.196V2.44728ZM354.082 24.7553L353.614 22.9613L356.682 23.0133C357.549 23.0133 357.982 22.5453 357.982 21.6093V3.87728H345.554V2.10928H359.828V22.1553C359.828 23.8886 358.909 24.7553 357.072 24.7553H354.082ZM346.152 6.94528H356.188V8.73928H346.152V6.94528ZM347.088 11.5733H355.148V19.6333H347.088V11.5733ZM353.38 17.9953V13.2113H348.908V17.9953H353.38ZM340.172 1.27728C341.957 2.61194 343.439 3.94661 344.618 5.28128L343.344 6.58128C342.269 5.31594 340.779 3.97261 338.872 2.55128L340.172 1.27728ZM337.104 8.97328H342.668V20.3613C343.327 19.7373 344.141 18.9313 345.112 17.9433L345.606 19.9453C344.167 21.4359 342.642 22.7533 341.03 23.8973L340.302 22.2333C340.683 21.8866 340.874 21.5139 340.874 21.1153V10.7673H337.104V8.97328ZM370.462 7.56928C369.37 9.92661 368.07 11.9979 366.562 13.7833L365.054 12.6913C366.527 11.0273 367.793 9.05128 368.85 6.76328L370.462 7.56928ZM375.688 11.5993C374.527 10.1259 373.348 8.83461 372.152 7.72528L373.296 6.60728C374.319 7.42194 375.523 8.66994 376.91 10.3513L375.688 11.5993ZM368.746 13.1593C369.699 13.9046 370.722 14.7799 371.814 15.7853C372.438 14.5373 372.949 13.2633 373.348 11.9633L374.96 12.6393C374.492 14.2513 373.903 15.7419 373.192 17.1113C374.336 18.2206 375.376 19.3213 376.312 20.4133L374.986 21.8953C374.241 21.0113 373.322 19.9886 372.23 18.8273C370.601 21.3059 368.555 23.2473 366.094 24.6513L364.95 22.9873C367.377 21.6526 369.353 19.8066 370.878 17.4493C369.855 16.4266 368.755 15.4386 367.576 14.4853L368.746 13.1593ZM371.424 0.835276C371.84 1.78861 372.23 2.76794 372.594 3.77328H377.482V5.56728H365.444V3.77328H370.774C370.393 2.85461 369.959 1.97928 369.474 1.14728L371.424 0.835276ZM380.914 7.04928L380.316 8.86928C380.94 11.5213 381.746 13.8353 382.734 15.8113C383.999 13.2286 384.684 10.3079 384.788 7.04928H380.914ZM381.72 17.5793C380.767 15.7073 379.961 13.6273 379.302 11.3393C378.921 12.1019 378.418 12.9513 377.794 13.8873L376.598 12.4573C378.435 9.56261 379.666 5.70594 380.29 0.887277L382.162 1.19928C381.971 2.51661 381.72 3.85994 381.408 5.22928H388.714V7.04928H386.504C386.348 11.1919 385.429 14.7366 383.748 17.6833C385.239 20.0753 387.024 21.9126 389.104 23.1953L388.012 24.8333C385.949 23.5159 384.181 21.6786 382.708 19.3213C381.061 21.5573 378.938 23.4206 376.338 24.9113L375.272 23.2213C378.045 21.7479 380.195 19.8673 381.72 17.5793ZM393.94 3.20128H404.184C403.785 2.35194 403.387 1.63261 402.988 1.04328L404.886 0.731276C405.319 1.49394 405.709 2.31728 406.056 3.20128H416.3V4.96928H405.432C404.687 6.44261 403.837 7.65594 402.884 8.60928L406.29 8.29728L408.11 5.93128L409.774 6.60728C407.313 9.74461 405.12 12.1106 403.196 13.7053C404.86 13.4973 406.472 13.2633 408.032 13.0033C407.616 12.1019 407.321 11.4779 407.148 11.1313L408.734 10.6113C409.618 12.1539 410.363 13.7659 410.97 15.4473L409.28 16.2013C409.176 15.8719 408.959 15.2826 408.63 14.4333C407.815 14.5893 406.966 14.7193 406.082 14.8233V17.8653H416.742V19.6593H406.082V24.9633H404.158V19.6593H393.55V17.8653H404.158V15.0573C403.239 15.1613 402.026 15.2739 400.518 15.3953L400.154 13.7573L400.83 13.6013C401.957 12.9599 403.335 11.7206 404.964 9.88328L400.596 10.2213L400.232 8.71328C401.584 7.89861 402.676 6.65061 403.508 4.96928H393.94V3.20128ZM399.686 12.0673C398.386 13.6793 396.965 15.0486 395.422 16.1753L394.174 14.7713C395.699 13.6966 397.069 12.4486 398.282 11.0273L399.686 12.0673ZM395.708 5.85328C397.164 6.89328 398.395 7.94194 399.4 8.99928L398.1 10.2993C397.251 9.31128 396.02 8.24528 394.408 7.10128L395.708 5.85328ZM412.01 11.0273C413.605 12.2753 414.957 13.5406 416.066 14.8233L414.714 16.1753C413.743 14.8753 412.443 13.5406 410.814 12.1713L412.01 11.0273ZM415.494 6.84128C414.35 8.19328 413.128 9.34594 411.828 10.2993L410.658 8.94728C411.871 8.06328 412.998 7.00594 414.038 5.77528L415.494 6.84128ZM432.342 4.60528H423.294V2.78528H443.34V4.60528H434.266V21.8173H444.458V23.6373H421.916V21.8173H432.342V4.60528ZM469.08 2.03128V17.9433H472.824V19.6853H464.972C467.641 20.6733 470.077 21.8606 472.278 23.2473L471.238 24.8333C468.742 23.1866 466.246 21.9039 463.75 20.9853L464.634 19.6853H457.354L458.706 20.8553C456.695 22.4153 454.26 23.7586 451.4 24.8853L450.256 23.4033C453.099 22.2939 455.447 21.0546 457.302 19.6853H449.736V17.9433H453.48V2.03128H469.08ZM455.378 17.9433H467.182V15.4993H455.378V17.9433ZM455.378 13.9913H467.182V11.5993H455.378V13.9913ZM455.378 10.0653H467.182V7.64728H455.378V10.0653ZM455.378 6.16528H467.182V3.79928H455.378V6.16528Z" fill="#1C1E21"/>
</svg>
