<svg width="178" height="34" viewBox="0 0 178 34" fill="none" xmlns="http://www.w3.org/2000/svg">
<path fill-rule="evenodd" clip-rule="evenodd" d="M2.4541 32.3647V5.85642L9.56312 2.00067H91.0385L173.953 2.00084V10.6763L174.393 10.6763C175.282 10.6763 176.002 13.5087 176.002 17.0027C176.002 20.4967 175.282 23.2074 174.393 23.2074L173.953 23.2074V28.3886L167.085 32.3648L103 32.3647H2.4541Z" fill="url(#paint0_linear_713_756)"/>
<path d="M173.953 10.4408V2.00086L35.5844 2H9.10902L2 5.85575V32.364H47.5459L167.085 32.3649L173.953 28.3886V23.3821" stroke="#1C1E21" stroke-width="3" stroke-linejoin="round"/>
<path d="M9.5 6.09759H167.085M167.085 6.09759V28.7392M167.085 6.09759L170.353 4.74829" stroke="#1C1E21" stroke-linecap="round" stroke-linejoin="round"/>
<path d="M174.074 22.7256C173.209 22.7256 172.387 20.2754 172.387 17.1174C172.387 13.9594 173.209 11.3993 174.074 11.3993" stroke="#1C1E21"/>
<path d="M173.351 10.1943H174.269C175.226 10.1943 176.001 13.2446 176.001 17.0074C176.001 20.7702 175.226 23.6895 174.269 23.6895H173.351" stroke="#1C1E21" stroke-width="3" stroke-linejoin="bevel"/>
<path d="M173.833 10.6763H170.257C169.304 10.6763 168.531 13.5087 168.531 17.0027C168.531 20.4967 169.304 23.2074 170.257 23.2074H173.833" stroke="#1C1E21"/>
<path d="M73.982 17.358H82.074V20.998H73.982V17.358ZM80.604 19.71V18.632H75.452V19.71H80.604ZM75.55 21.082C75.9887 21.5393 76.3947 22.0807 76.768 22.706H79.414C79.7873 22.202 80.128 21.6467 80.436 21.04L81.794 21.53C81.542 21.95 81.276 22.342 80.996 22.706H84.048V24.092H71.924V22.706H75.214C74.9433 22.342 74.598 21.9733 74.178 21.6L75.55 21.082ZM73.352 13.368C74.0427 13.872 74.6073 14.334 75.046 14.754C75.522 14.2873 75.9187 13.7833 76.236 13.242H73.058V11.898H77.888V12.99C77.5707 13.802 77.1367 14.53 76.586 15.174H80.058C79.1993 14.2313 78.532 13.228 78.056 12.164L79.274 11.492C79.498 12.0053 79.764 12.4953 80.072 12.962C80.5667 12.57 80.9867 12.15 81.332 11.702L82.354 12.612C81.9247 13.1347 81.4253 13.6013 80.856 14.012C81.052 14.2547 81.304 14.516 81.612 14.796C82.172 14.376 82.6713 13.8767 83.11 13.298L84.132 14.194C83.7213 14.7167 83.2267 15.202 82.648 15.65C83.3013 16.126 83.9827 16.5413 84.692 16.896L83.726 18.016C82.6247 17.3907 81.6727 16.714 80.87 15.986V16.504H75.732V16.056C74.8453 16.8307 73.7393 17.4933 72.414 18.044L71.518 16.896C72.4793 16.5227 73.3147 16.0887 74.024 15.594C73.548 15.1647 72.9973 14.7307 72.372 14.292L73.352 13.368ZM94.2541 11.912H102.598V16.434H104.964V17.764H102.794L103.9 18.674C103.163 19.5887 102.337 20.2933 101.422 20.788C102.43 21.5253 103.634 22.1927 105.034 22.79L104.292 24.078C102.323 23.154 100.741 22.0433 99.5461 20.746V22.986C99.5461 23.9753 99.1168 24.47 98.2581 24.47H96.6201L96.2981 23.098C96.8861 23.1633 97.3761 23.196 97.7681 23.196C97.9828 23.196 98.0901 23.0093 98.0901 22.636V20.802C96.7368 21.9873 95.1174 23.07 93.2321 24.05L92.6441 22.692C94.7441 21.74 96.5594 20.6107 98.0901 19.304V17.764H92.8541V16.434H101.114V15.468H94.7301V14.208H101.114V13.228H94.2541V11.912ZM94.6041 17.974C95.4161 18.534 96.1021 19.094 96.6621 19.654L95.7101 20.606C95.2341 20.0927 94.5434 19.5233 93.6381 18.898L94.6041 17.974ZM99.5461 17.764V19.136C99.7888 19.4067 100.083 19.6913 100.428 19.99C101.333 19.4487 102.113 18.7067 102.766 17.764H99.5461Z" fill="#1C1E21"/>
<defs>
<linearGradient id="paint0_linear_713_756" x1="170.988" y1="27.3208" x2="28.9222" y2="-33.8886" gradientUnits="userSpaceOnUse">
<stop stop-color="#FF5F9B"/>
<stop offset="1" stop-color="#FFBE72"/>
</linearGradient>
</defs>
</svg>
