<svg width="1477" height="126" viewBox="0 0 1477 126" fill="none" xmlns="http://www.w3.org/2000/svg">
<path fill-rule="evenodd" clip-rule="evenodd" d="M7.84925 140.459L10.6664 114.101L18.1449 111.022L44.4704 113.836L126.916 122.648L125.994 131.274L126.431 131.321C127.314 131.415 127.729 134.308 127.358 137.783C126.987 141.257 125.983 143.876 125.099 143.781L124.662 143.735L124.111 148.886L116.859 152.11L53.1373 145.299L7.84925 140.459Z" fill="url(#paint0_linear_527_16021)"/>
<path d="M126.019 131.04L126.916 122.648L44.0192 113.787L17.6938 110.974L10.2152 114.052L7.39808 140.41L52.6861 145.25L116.86 152.11L124.111 148.886L124.644 143.908" stroke="#1C1E21" stroke-width="3" stroke-linejoin="round"/>
<path d="M16.6525 114.983L119.651 125.992M119.651 125.992L117.245 148.505M119.651 125.992L123.043 124.997" stroke="#1C1E21" stroke-linecap="round" stroke-linejoin="round"/>
<path fill-rule="evenodd" clip-rule="evenodd" d="M125.451 150.241L128.268 123.883L135.746 120.804L162.072 123.618L244.517 132.43L243.595 141.056L244.032 141.103C244.916 141.197 245.331 144.09 244.96 147.565C244.588 151.039 243.584 153.658 242.701 153.563L242.263 153.517L241.713 158.668L234.461 161.892L170.739 155.081L125.451 150.241Z" fill="white"/>
<path d="M243.62 140.822L244.517 132.43L161.621 123.569L135.295 120.756L127.817 123.834L125 150.192L170.288 155.032L234.461 161.892L241.713 158.668L242.245 153.69" stroke="#1C1E21" stroke-width="3" stroke-linejoin="round"/>
<path d="M134.254 124.765L237.252 135.774M237.252 135.774L234.846 158.287M237.252 135.774L240.645 134.779" stroke="#1C1E21" stroke-linecap="round" stroke-linejoin="round"/>
<path fill-rule="evenodd" clip-rule="evenodd" d="M393.342 167.399L384.688 142.343L390.149 136.378L415.174 127.736L493.547 100.67L496.379 108.87L496.795 108.726C497.635 108.436 499.24 110.878 500.381 114.181C501.521 117.483 501.725 120.281 500.885 120.571L500.47 120.714L502.161 125.612L496.967 131.612L436.392 152.532L393.342 167.399Z" fill="white"/>
<path d="M496.302 108.647L493.547 100.67L414.745 127.883L389.72 136.526L384.259 142.491L392.912 167.547L435.963 152.679L496.967 131.612L502.161 125.612L500.526 120.88" stroke="#1C1E21" stroke-width="3" stroke-linejoin="round"/>
<path d="M390.481 140.598L488.392 106.784M488.392 106.784L495.783 128.185M488.392 106.784L491.04 104.442" stroke="#1C1E21" stroke-linecap="round" stroke-linejoin="round"/>
<path d="M500.426 120.22C499.608 120.502 498.031 118.454 497 115.469C495.969 112.484 495.911 109.796 496.728 109.514" stroke="#1C1E21"/>
<path d="M495.651 108.611L496.519 108.311C497.424 107.999 499.153 110.629 500.381 114.185C501.609 117.742 501.829 120.755 500.925 121.067L500.057 121.367" stroke="#1C1E21" stroke-width="3" stroke-linejoin="bevel"/>
<path d="M496.265 108.909L492.885 110.076C491.984 110.387 492.179 113.317 493.319 116.62C494.46 119.922 496.075 122.232 496.976 121.921L500.356 120.754" stroke="#1C1E21"/>
<path fill-rule="evenodd" clip-rule="evenodd" d="M56.4528 117.353L57.6918 90.8735L64.9733 87.3543L91.4197 88.5918L174.244 92.4677L173.838 101.134L174.278 101.154C175.165 101.196 175.752 104.059 175.589 107.549C175.426 111.039 174.579 113.713 173.692 113.672L173.253 113.651L173.01 118.827L165.964 122.477L101.949 119.482L56.4528 117.353Z" fill="url(#paint1_linear_527_16021)"/>
<path d="M173.85 100.898L174.244 92.4676L90.9666 88.5698L64.5202 87.3323L57.2387 90.8515L55.9996 117.331L101.496 119.46L165.964 122.477L173.011 118.827L173.245 113.825" stroke="#1C1E21" stroke-width="3" stroke-linejoin="round"/>
<path d="M63.7201 91.3969L167.192 96.2388M167.192 96.2388L166.134 118.856M167.192 96.2388L170.519 95.0437" stroke="#1C1E21" stroke-linecap="round" stroke-linejoin="round"/>
<path d="M173.396 113.175C172.532 113.135 171.825 110.649 171.973 107.494C172.121 104.34 173.061 101.821 173.925 101.861" stroke="#1C1E21"/>
<path d="M173.26 100.624L174.177 100.667C175.133 100.712 175.765 103.795 175.589 107.553C175.413 111.312 174.502 114.192 173.546 114.147L172.629 114.104" stroke="#1C1E21" stroke-width="3" stroke-linejoin="bevel"/>
<path d="M173.719 101.128L170.147 100.961C169.195 100.916 168.29 103.709 168.127 107.2C167.964 110.69 168.609 113.434 169.561 113.478L173.133 113.645" stroke="#1C1E21"/>
<path fill-rule="evenodd" clip-rule="evenodd" d="M176.442 120.649L182.562 94.857L190.369 92.7468L216.129 98.8594L296.804 118.003L294.801 126.444L295.229 126.545C296.093 126.75 296.14 129.673 295.333 133.072C294.527 136.472 293.2 138.943 292.336 138.738L291.908 138.636L290.711 143.678L283.111 145.961L220.757 131.165L176.442 120.649Z" fill="url(#paint2_linear_527_16021)"/>
<path d="M294.855 126.215L296.804 118.003L215.688 98.7539L189.928 92.6413L182.121 94.7516L176 120.544L220.316 131.059L283.111 145.961L290.712 143.678L291.868 138.806" stroke="#1C1E21" stroke-width="3" stroke-linejoin="round"/>
<path d="M188.389 96.4875L289.175 120.403M289.175 120.403L283.948 142.433M289.175 120.403L292.666 119.845" stroke="#1C1E21" stroke-linecap="round" stroke-linejoin="round"/>
<path d="M294.326 125.836L295.22 126.048C296.151 126.269 296.201 129.416 295.332 133.077C294.464 136.738 293.035 139.399 292.104 139.178L291.21 138.966" stroke="#1C1E21" stroke-width="3" stroke-linejoin="bevel"/>
<path d="M294.684 126.416L291.205 125.591C290.277 125.37 288.871 127.948 288.065 131.348C287.258 134.747 287.384 137.563 288.312 137.783L291.791 138.609" stroke="#1C1E21"/>
<path fill-rule="evenodd" clip-rule="evenodd" d="M-8.4114 122.811L-19.9172 98.9297L-15.1864 92.3704L8.66501 80.8788L83.3622 44.8901L87.1277 52.7057L87.5239 52.5148C88.3244 52.1291 90.2026 54.3682 91.7192 57.5159C93.2358 60.6636 93.7635 63.4183 92.9631 63.804L92.5669 63.9949L94.8157 68.6625L90.3542 75.2258L32.6205 103.042L-8.4114 122.811Z" fill="url(#paint3_linear_527_16021)"/>
<path d="M87.0257 52.4934L83.3624 44.89L8.25583 81.0753L-15.5956 92.5668L-20.3264 99.1261L-8.82058 123.007L32.2113 103.238L90.3544 75.2257L94.8159 68.6625L92.6428 64.1522" stroke="#1C1E21" stroke-width="3" stroke-linejoin="round"/>
<path d="M-14.3655 96.5227L78.9532 51.5619M78.9532 51.5619L88.7807 71.9595M78.9532 51.5619L81.3114 48.928" stroke="#1C1E21" stroke-linecap="round" stroke-linejoin="round"/>
<path d="M92.4661 63.5083C91.6868 63.8838 89.8829 62.0332 88.5122 59.1881C87.1415 56.3431 86.7706 53.68 87.55 53.3046" stroke="#1C1E21"/>
<path d="M86.376 52.533L87.2033 52.1344C88.0653 51.719 90.0881 54.1304 91.7213 57.5202C93.3545 60.91 93.9228 63.8767 93.0608 64.292L92.2335 64.6906" stroke="#1C1E21" stroke-width="3" stroke-linejoin="bevel"/>
<path d="M87.0194 52.7578L83.7982 54.3097C82.9394 54.7235 83.4726 57.6107 84.9891 60.7584C86.5057 63.9061 88.3785 66.0127 89.2373 65.599L92.4585 64.047" stroke="#1C1E21"/>
<path fill-rule="evenodd" clip-rule="evenodd" d="M95.4491 79.1035L99.3334 52.8814L106.931 50.109L133.12 53.9885L215.14 66.1385L213.869 74.7203L214.304 74.7848C215.183 74.9149 215.48 77.8224 214.968 81.2786C214.456 84.7349 213.346 87.3109 212.468 87.1807L212.033 87.1162L211.273 92.2415L203.897 95.1684L140.503 85.7775L95.4491 79.1035Z" fill="url(#paint4_linear_527_16021)"/>
<path d="M213.903 74.4873L215.14 66.1385L132.671 53.9213L106.482 50.0417L98.8842 52.8141L94.9999 79.0363L140.054 85.7103L203.897 95.1683L211.273 92.2414L212.007 87.289" stroke="#1C1E21" stroke-width="3" stroke-linejoin="round"/>
<path d="M105.279 54.0059L207.746 69.1846M207.746 69.1846L204.428 91.5819M207.746 69.1846L211.176 68.3287" stroke="#1C1E21" stroke-linecap="round" stroke-linejoin="round"/>
<path d="M212.222 86.6571C211.366 86.5304 210.912 83.9863 211.375 80.8623C211.838 77.7384 213.026 75.3264 213.882 75.4531" stroke="#1C1E21"/>
<path d="M213.343 74.1553L214.251 74.2898C215.198 74.43 215.518 77.5611 214.967 81.2832C214.415 85.0054 213.22 87.7795 212.274 87.6393L211.365 87.5047" stroke="#1C1E21" stroke-width="3" stroke-linejoin="bevel"/>
<path d="M213.749 74.7027L210.212 74.1787C209.269 74.039 208.09 76.7276 207.578 80.1839C207.066 83.6402 207.433 86.4349 208.376 86.5746L211.913 87.0986" stroke="#1C1E21"/>
<path fill-rule="evenodd" clip-rule="evenodd" d="M188.428 54.272L203.137 32.2193L211.191 32.9564L233.216 47.6474L302.194 93.6565L297.38 100.874L297.746 101.118C298.485 101.611 297.513 104.367 295.574 107.274C293.635 110.18 291.532 112.036 290.793 111.543L290.427 111.299L287.552 115.609L279.632 115.106L226.318 79.5452L188.428 54.272Z" fill="url(#paint5_linear_527_16021)"/>
<path d="M297.511 100.678L302.195 93.6565L232.839 47.3948L210.814 32.7038L202.76 31.9667L188.051 54.0195L225.941 79.2927L279.632 115.106L287.552 115.609L290.33 111.444" stroke="#1C1E21" stroke-width="3" stroke-linejoin="round"/>
<path d="M208.034 35.7746L294.208 93.2534M294.208 93.2534L281.644 112.089M294.208 93.2534L297.675 93.9441" stroke="#1C1E21" stroke-linecap="round" stroke-linejoin="round"/>
<path d="M290.795 110.965C290.076 110.485 290.751 107.99 292.504 105.363C294.256 102.736 296.36 101.062 297.08 101.542" stroke="#1C1E21"/>
<path d="M297.146 100.138L297.91 100.648C298.706 101.179 297.659 104.147 295.571 107.277C293.483 110.408 291.218 112.406 290.422 111.875L289.658 111.365" stroke="#1C1E21" stroke-width="3" stroke-linejoin="bevel"/>
<path d="M297.281 100.807L294.306 98.823C293.513 98.2941 291.298 100.222 289.36 103.128C287.421 106.035 286.56 108.719 287.353 109.248L290.327 111.232" stroke="#1C1E21"/>
<path fill-rule="evenodd" clip-rule="evenodd" d="M37.4509 44.2155L40.4999 17.8831L48.0052 14.8707L74.3048 17.9159L156.669 27.453L155.671 36.0708L156.108 36.1214C156.991 36.2236 157.381 39.1201 156.979 42.5909C156.577 46.0617 155.55 48.6716 154.667 48.5694L154.23 48.5188L153.634 53.6656L146.354 56.8255L82.6945 49.4542L37.4509 44.2155Z" fill="white"/>
<path d="M155.698 35.8368L156.669 27.4529L73.8537 17.8629L47.554 14.8177L40.0487 17.8302L36.9997 44.1625L82.2434 49.4012L146.354 56.8254L153.634 53.6655L154.21 48.6923" stroke="#1C1E21" stroke-width="3" stroke-linejoin="round"/>
<path d="M46.4776 18.818L149.375 30.7324M149.375 30.7324L146.771 53.2238M149.375 30.7324L152.776 29.7679" stroke="#1C1E21" stroke-linecap="round" stroke-linejoin="round"/>
<path d="M154.405 48.0539C153.546 47.9544 153.011 45.426 153.375 42.2889C153.738 39.1519 154.849 36.7033 155.708 36.8028" stroke="#1C1E21"/>
<path d="M155.128 35.5227L156.04 35.6283C156.991 35.7384 157.41 38.8577 156.978 42.5955C156.545 46.3332 155.438 49.1439 154.488 49.0339L153.576 48.9283" stroke="#1C1E21" stroke-width="3" stroke-linejoin="bevel"/>
<path d="M155.552 36.0569L152 35.6457C151.053 35.536 149.959 38.2608 149.557 41.7316C149.156 45.2024 149.611 47.984 150.558 48.0937L154.11 48.505" stroke="#1C1E21"/>
<path fill-rule="evenodd" clip-rule="evenodd" d="M-84.5461 71.3655L-84.4939 44.8573L-77.3773 41.0156L-50.902 41.0677L32.0126 41.2312L31.9955 49.9067L32.4353 49.9075C33.3238 49.9093 34.0385 52.7431 34.0316 56.2371C34.0247 59.7311 33.2991 62.4404 32.4106 62.4387L31.9708 62.4378L31.9606 67.619L25.0847 71.5817L-39.0003 71.4553L-84.5461 71.3655Z" fill="url(#paint6_linear_527_16021)"/>
<path d="M31.9959 49.6711L32.0126 41.2312L-51.3561 41.0662L-77.8314 41.014L-84.948 44.8557L-85.0002 71.364L-39.4544 71.4537L25.0847 71.5817L31.9606 67.619L31.9704 62.6125" stroke="#1C1E21" stroke-width="3" stroke-linejoin="round"/>
<path d="M-78.4489 45.1104L25.1358 45.3144M25.1358 45.3144L25.0912 67.9561M25.1358 45.3144L28.4062 43.9716" stroke="#1C1E21" stroke-linecap="round" stroke-linejoin="round"/>
<path d="M32.0923 61.956C31.2272 61.9543 30.4102 59.5026 30.4165 56.3446C30.4227 53.1865 31.2495 50.6281 32.1146 50.6298" stroke="#1C1E21"/>
<path d="M31.3936 49.4235L32.3119 49.4253C33.2687 49.4272 34.0384 52.479 34.031 56.2417C34.0235 60.0045 33.2421 62.9222 32.2853 62.9204L31.367 62.9185" stroke="#1C1E21" stroke-width="3" stroke-linejoin="bevel"/>
<path d="M31.8749 49.9064L28.2994 49.8994C27.3461 49.8975 26.5677 52.7284 26.5608 56.2224C26.5539 59.7164 27.3214 62.4287 28.2747 62.4306L31.8502 62.4376" stroke="#1C1E21"/>
<path fill-rule="evenodd" clip-rule="evenodd" d="M299.454 131.366L299.506 104.857L306.623 101.016L333.098 101.068L416.013 101.231L415.996 109.907L416.435 109.908C417.324 109.909 418.038 112.743 418.032 116.237C418.025 119.731 417.299 122.44 416.411 122.439L415.971 122.438L415.961 127.619L409.085 131.582L345 131.455L299.454 131.366Z" fill="url(#paint7_linear_527_16021)"/>
<path d="M415.996 109.671L416.013 101.231L332.644 101.066L306.169 101.014L299.052 104.856L299 131.364L344.546 131.454L409.085 131.582L415.961 127.619L415.97 122.612" stroke="#1C1E21" stroke-width="3" stroke-linejoin="round"/>
<path d="M305.551 105.11L409.136 105.314M409.136 105.314L409.091 127.956M409.136 105.314L412.406 103.972" stroke="#1C1E21" stroke-linecap="round" stroke-linejoin="round"/>
<path d="M416.092 121.956C415.227 121.954 414.41 119.503 414.416 116.345C414.423 113.187 415.25 110.628 416.115 110.63" stroke="#1C1E21"/>
<path d="M415.394 109.423L416.312 109.425C417.269 109.427 418.038 112.479 418.031 116.242C418.024 120.004 417.242 122.922 416.285 122.92L415.367 122.919" stroke="#1C1E21" stroke-width="3" stroke-linejoin="bevel"/>
<path d="M415.875 109.906L412.299 109.899C411.346 109.898 410.568 112.728 410.561 116.222C410.554 119.716 411.321 122.429 412.275 122.431L415.85 122.438" stroke="#1C1E21"/>
<path fill-rule="evenodd" clip-rule="evenodd" d="M262.433 70.0635L270.498 44.8118L278.443 43.3016L303.663 51.3563L382.648 76.5818L380.008 84.846L380.427 84.9798C381.274 85.2501 381.098 88.1674 380.035 91.4958C378.972 94.8241 377.461 97.1873 376.615 96.917L376.196 96.7832L374.62 101.719L366.867 103.417L305.82 83.92L262.433 70.0635Z" fill="white"/>
<path d="M380.08 84.6217L382.647 76.5818L303.231 51.2175L278.01 43.1628L270.065 44.673L262.001 69.9247L305.388 83.7813L366.867 103.417L374.619 101.719L376.142 96.9496" stroke="#1C1E21" stroke-width="3" stroke-linejoin="round"/>
<path d="M276.183 46.8808L374.858 78.3948M374.858 78.3948L367.97 99.9631M374.858 78.3948L378.381 78.1036" stroke="#1C1E21" stroke-linecap="round" stroke-linejoin="round"/>
<path d="M376.457 96.3607C375.633 96.0975 375.595 93.5135 376.556 90.5052C377.517 87.4968 379.079 85.3081 379.903 85.5713" stroke="#1C1E21"/>
<path d="M379.581 84.2036L380.456 84.483C381.367 84.7741 381.178 87.9158 380.033 91.5002C378.889 95.0846 377.262 97.6295 376.35 97.3384L375.475 97.059" stroke="#1C1E21" stroke-width="3" stroke-linejoin="bevel"/>
<path d="M379.893 84.8095L376.487 83.7217C375.579 83.4316 373.981 85.8947 372.918 89.2231C371.855 92.5514 371.767 95.3688 372.675 95.6588L376.081 96.7466" stroke="#1C1E21"/>
<mask id="path-66-outside-1_527_16021" maskUnits="userSpaceOnUse" x="412.208" y="61.6495" width="125.418" height="64.1221" fill="black">
<rect fill="white" x="412.208" y="61.6495" width="125.418" height="64.1221"/>
<path fill-rule="evenodd" clip-rule="evenodd" d="M421.549 123.928L414.468 98.3829L420.289 92.7683L445.803 85.6963L525.705 63.5485L528.022 71.9087L528.446 71.7912C529.302 71.5539 530.753 74.091 531.686 77.458C532.619 80.8251 532.649 83.6297 531.793 83.8671L531.369 83.9845L532.753 88.9774L527.197 94.6438L465.44 111.762L421.549 123.928Z"/>
</mask>
<path fill-rule="evenodd" clip-rule="evenodd" d="M421.549 123.928L414.468 98.3829L420.289 92.7683L445.803 85.6963L525.705 63.5485L528.022 71.9087L528.446 71.7912C529.302 71.5539 530.753 74.091 531.686 77.458C532.619 80.8251 532.649 83.6297 531.793 83.8671L531.369 83.9845L532.753 88.9774L527.197 94.6438L465.44 111.762L421.549 123.928Z" fill="url(#paint8_linear_527_16021)"/>
<path d="M414.468 98.3829L413.774 97.6631L413.346 98.0764L413.505 98.65L414.468 98.3829ZM421.549 123.928L420.586 124.195L420.853 125.159L421.816 124.892L421.549 123.928ZM420.289 92.7683L420.022 91.8046L419.778 91.8724L419.595 92.0486L420.289 92.7683ZM445.803 85.6963L445.535 84.7326L445.535 84.7326L445.803 85.6963ZM525.705 63.5485L526.668 63.2814L526.401 62.3177L525.437 62.5848L525.705 63.5485ZM528.022 71.9087L527.058 72.1758L527.325 73.1395L528.289 72.8723L528.022 71.9087ZM528.446 71.7912L528.179 70.8275L528.179 70.8275L528.446 71.7912ZM531.793 83.8671L531.526 82.9034L531.526 82.9034L531.793 83.8671ZM531.369 83.9845L531.102 83.0209L530.138 83.288L530.406 84.2516L531.369 83.9845ZM532.753 88.9774L533.467 89.6776L533.871 89.2659L533.717 88.7103L532.753 88.9774ZM527.197 94.6438L527.464 95.6074L527.723 95.5357L527.911 95.3439L527.197 94.6438ZM465.44 111.762L465.173 110.798L465.173 110.798L465.44 111.762ZM413.505 98.65L420.586 124.195L422.513 123.661L415.432 98.1158L413.505 98.65ZM419.595 92.0486L413.774 97.6631L415.163 99.1026L420.983 93.488L419.595 92.0486ZM445.535 84.7326L420.022 91.8046L420.556 93.732L446.07 86.6599L445.535 84.7326ZM525.437 62.5848L445.535 84.7326L446.07 86.6599L525.972 64.5121L525.437 62.5848ZM528.986 71.6416L526.668 63.2814L524.741 63.8156L527.058 72.1758L528.986 71.6416ZM528.289 72.8723L528.713 72.7549L528.179 70.8275L527.755 70.945L528.289 72.8723ZM528.713 72.7549C528.384 72.8461 528.271 72.6173 528.494 72.8285C528.664 72.9897 528.898 73.2953 529.169 73.7694C529.703 74.7038 530.271 76.0977 530.722 77.7251L532.65 77.1909C532.167 75.4513 531.543 73.8931 530.905 72.7766C530.59 72.2252 530.242 71.7306 529.87 71.3776C529.551 71.0746 528.936 70.6177 528.179 70.8275L528.713 72.7549ZM530.722 77.7251C531.173 79.3529 531.395 80.8083 531.411 81.8511C531.419 82.3801 531.372 82.7446 531.31 82.9559C531.23 83.2244 531.216 82.9893 531.526 82.9034L532.06 84.8307C532.798 84.6261 533.101 83.9515 533.228 83.5221C533.371 83.0356 533.42 82.4439 533.41 81.8213C533.392 80.5607 533.132 78.9302 532.65 77.1909L530.722 77.7251ZM531.526 82.9034L531.102 83.0209L531.636 84.9482L532.06 84.8307L531.526 82.9034ZM533.717 88.7103L532.333 83.7174L530.406 84.2516L531.79 89.2445L533.717 88.7103ZM527.911 95.3439L533.467 89.6776L532.039 88.2773L526.483 93.9436L527.911 95.3439ZM465.707 112.726L527.464 95.6074L526.93 93.6801L465.173 110.798L465.707 112.726ZM421.816 124.892L465.707 112.726L465.173 110.798L421.282 122.964L421.816 124.892Z" fill="black" mask="url(#path-66-outside-1_527_16021)"/>
<path d="M527.959 71.6817L525.705 63.5485L445.365 85.8169L419.852 92.8889L414.031 98.5035L421.112 124.049L465.003 111.882L527.197 94.6437L532.753 88.9774L531.416 84.1528" stroke="#1C1E21" stroke-width="3" stroke-linejoin="round"/>
<path d="M420.359 97.0003L520.181 69.331M520.181 69.331L526.229 91.15M520.181 69.331L522.969 67.1579" stroke="#1C1E21" stroke-linecap="round" stroke-linejoin="round"/>
<path d="M531.357 83.4879C530.523 83.719 529.077 81.5774 528.233 78.5341C527.39 75.4909 527.498 72.8043 528.332 72.5732" stroke="#1C1E21"/>
<path d="M527.312 71.6052L528.197 71.3599C529.12 71.1043 530.682 73.8366 531.687 77.4627C532.692 81.0887 532.724 84.1091 531.802 84.3647L530.917 84.61" stroke="#1C1E21" stroke-width="3" stroke-linejoin="bevel"/>
<path d="M527.907 71.9408L524.461 72.8959C523.543 73.1505 523.554 76.0864 524.488 79.4535C525.421 82.8205 526.89 85.2263 527.809 84.9717L531.254 84.0166" stroke="#1C1E21"/>
<path fill-rule="evenodd" clip-rule="evenodd" d="M391.733 103.534L382.215 78.7936L387.465 72.6423L412.175 63.1359L489.56 33.364L492.675 41.4609L493.086 41.303C493.915 40.984 495.604 43.3689 496.859 46.6299C498.113 49.8908 498.414 52.6795 497.585 52.9985L497.175 53.1564L499.035 57.992L494.053 64.1692L434.241 87.18L391.733 103.534Z" fill="white"/>
<path d="M492.591 41.2411L489.56 33.364L411.751 63.2982L387.041 72.8047L381.791 78.9559L391.309 103.696L433.818 87.3423L494.053 64.1692L499.035 57.992L497.238 53.3194" stroke="#1C1E21" stroke-width="3" stroke-linejoin="round"/>
<path d="M387.944 76.8477L484.622 39.6537M484.622 39.6537L492.751 60.7854M484.622 39.6537L487.187 37.221" stroke="#1C1E21" stroke-linecap="round" stroke-linejoin="round"/>
<path d="M497.114 52.6632C496.307 52.9738 494.66 50.9822 493.526 48.0348C492.392 45.0874 492.24 42.4029 493.047 42.0923" stroke="#1C1E21"/>
<path d="M491.94 41.2274L492.798 40.8977C493.691 40.5541 495.51 43.1225 496.861 46.6343C498.212 50.1461 498.536 53.1493 497.643 53.4928L496.786 53.8226" stroke="#1C1E21" stroke-width="3" stroke-linejoin="bevel"/>
<path d="M492.563 41.5041L489.226 42.7879C488.337 43.1302 488.632 46.0513 489.887 49.3122C491.141 52.5732 492.836 54.8257 493.726 54.4834L497.063 53.1996" stroke="#1C1E21"/>
<path fill-rule="evenodd" clip-rule="evenodd" d="M337.791 64.7378L335.021 38.3746L341.688 33.7972L368.019 31.0311L450.48 22.3685L451.386 30.9965L451.824 30.9506C452.707 30.8577 453.719 33.5994 454.084 37.0743C454.449 40.5491 454.016 43.3203 453.133 43.4132L452.695 43.4591L453.237 48.6119L446.822 53.2839L383.087 59.9792L337.791 64.7378Z" fill="url(#paint9_linear_527_16021)"/>
<path d="M451.361 30.7623L450.479 22.3686L367.567 31.0779L341.236 33.8439L334.569 38.4213L337.338 64.7845L382.635 60.026L446.821 53.2839L453.236 48.6119L452.713 43.6328" stroke="#1C1E21" stroke-width="3" stroke-linejoin="round"/>
<path d="M341.058 37.9828L444.076 27.1605M444.076 27.1605L446.442 49.6782M444.076 27.1605L447.185 25.4772" stroke="#1C1E21" stroke-linecap="round" stroke-linejoin="round"/>
<path d="M452.764 42.9672C451.904 43.0576 450.831 40.7067 450.501 37.566C450.171 34.4252 450.721 31.7933 451.581 31.7029" stroke="#1C1E21"/>
<path d="M450.736 30.5802L451.65 30.4843C452.601 30.3843 453.691 33.3369 454.084 37.079C454.478 40.8212 454.011 43.8055 453.06 43.9055L452.146 44.0015" stroke="#1C1E21" stroke-width="3" stroke-linejoin="bevel"/>
<path d="M451.266 31.0091L447.71 31.3826C446.762 31.4822 446.289 34.3799 446.654 37.8548C447.019 41.3296 448.071 43.9448 449.019 43.8452L452.575 43.4717" stroke="#1C1E21"/>
<path fill-rule="evenodd" clip-rule="evenodd" d="M503.452 129.253L506.15 102.883L513.615 99.7706L539.953 102.466L622.437 110.907L621.554 119.537L621.991 119.582C622.875 119.672 623.303 122.563 622.948 126.039C622.592 129.515 621.599 132.138 620.716 132.048L620.278 132.003L619.751 137.157L612.513 140.414L548.761 133.89L503.452 129.253Z" fill="url(#paint10_linear_527_16021)"/>
<path d="M621.577 119.303L622.436 110.907L539.501 102.419L513.163 99.7237L505.698 102.836L503 129.206L548.309 133.843L612.513 140.414L619.75 137.157L620.26 132.177" stroke="#1C1E21" stroke-width="3" stroke-linejoin="round"/>
<path d="M512.14 103.738L615.187 114.283M615.187 114.283L612.882 136.807M615.187 114.283L618.575 113.273" stroke="#1C1E21" stroke-linecap="round" stroke-linejoin="round"/>
<path d="M620.446 131.536C619.585 131.448 619.017 128.927 619.339 125.785C619.66 122.644 620.738 120.18 621.599 120.269" stroke="#1C1E21"/>
<path d="M621.003 118.996L621.916 119.09C622.868 119.187 623.329 122.301 622.946 126.044C622.563 129.787 621.495 132.612 620.543 132.515L619.629 132.421" stroke="#1C1E21" stroke-width="3" stroke-linejoin="bevel"/>
<path d="M621.433 119.525L617.876 119.161C616.928 119.064 615.871 121.803 615.515 125.279C615.159 128.754 615.652 131.53 616.601 131.627L620.158 131.991" stroke="#1C1E21"/>
<path fill-rule="evenodd" clip-rule="evenodd" d="M227.951 42.1752L226.643 15.6992L233.553 11.4975L259.997 10.1916L342.81 6.10189L343.238 14.7668L343.678 14.7451C344.565 14.7012 345.424 17.4947 345.596 20.9844C345.769 24.4742 345.183 27.2172 344.296 27.261L343.857 27.2827L344.112 32.4575L337.448 36.7677L273.441 39.9286L227.951 42.1752Z" fill="url(#paint11_linear_527_16021)"/>
<path d="M343.227 14.5316L342.811 6.10192L259.543 10.2133L233.1 11.5192L226.19 15.7209L227.498 42.1969L272.988 39.9503L337.449 36.7677L344.112 32.4576L343.866 27.4571" stroke="#1C1E21" stroke-width="3" stroke-linejoin="round"/>
<path d="M232.694 15.6418L336.153 10.5324M336.153 10.5324L337.27 33.1465M336.153 10.5324L339.351 9.02359" stroke="#1C1E21" stroke-linecap="round" stroke-linejoin="round"/>
<path d="M343.953 26.7954C343.089 26.8381 342.148 24.4315 341.992 21.2773C341.836 18.1231 342.531 15.5256 343.395 15.483" stroke="#1C1E21"/>
<path d="M342.613 14.3152L343.53 14.2699C344.486 14.2227 345.411 17.231 345.597 20.9892C345.783 24.7474 345.152 27.7014 344.196 27.7486L343.279 27.7939" stroke="#1C1E21" stroke-width="3" stroke-linejoin="bevel"/>
<path d="M343.118 14.7727L339.547 14.949C338.595 14.9961 337.963 17.8632 338.135 21.3529C338.308 24.8426 339.213 27.512 340.165 27.465L343.737 27.2886" stroke="#1C1E21"/>
<path fill-rule="evenodd" clip-rule="evenodd" d="M495.642 66.7203L497.317 40.265L504.655 36.8662L531.078 38.5393L613.827 43.779L613.279 52.4371L613.718 52.4649C614.604 52.5211 615.144 55.3933 614.923 58.8803C614.702 62.3673 613.812 65.0272 612.926 64.971L612.487 64.9432L612.159 70.1141L605.054 73.6483L541.097 69.5985L495.642 66.7203Z" fill="url(#paint12_linear_527_16021)"/>
<path d="M613.293 52.202L613.827 43.779L530.625 38.5099L504.202 36.8368L496.864 40.2356L495.189 66.6909L540.644 69.5691L605.054 73.6483L612.159 70.114L612.476 65.1175" stroke="#1C1E21" stroke-width="3" stroke-linejoin="round"/>
<path d="M503.336 40.8877L606.714 47.4335M606.714 47.4335L605.283 70.0299M606.714 47.4335L610.06 46.2934" stroke="#1C1E21" stroke-linecap="round" stroke-linejoin="round"/>
<path d="M612.638 64.4698C611.774 64.4151 611.109 61.918 611.309 58.7663C611.508 55.6145 612.49 53.1115 613.353 53.1662" stroke="#1C1E21"/>
<path d="M612.708 51.918L613.625 51.976C614.579 52.0365 615.161 55.1297 614.923 58.8849C614.685 62.6402 613.727 65.5046 612.772 65.4441L611.855 65.3861" stroke="#1C1E21" stroke-width="3" stroke-linejoin="bevel"/>
<path d="M613.158 52.4295L609.59 52.2036C608.638 52.1433 607.688 54.9213 607.467 58.4083C607.247 61.8953 607.847 64.6495 608.798 64.7097L612.366 64.9356" stroke="#1C1E21"/>
<path fill-rule="evenodd" clip-rule="evenodd" d="M972.342 175.399L963.688 150.343L969.149 144.378L994.174 135.736L1072.55 108.67L1075.38 116.87L1075.79 116.726C1076.63 116.436 1078.24 118.878 1079.38 122.181C1080.52 125.483 1080.73 128.281 1079.89 128.571L1079.47 128.714L1081.16 133.612L1075.97 139.612L1015.39 160.532L972.342 175.399Z" fill="white"/>
<path d="M1075.3 116.647L1072.55 108.67L993.745 135.883L968.72 144.526L963.259 150.491L971.912 175.547L1014.96 160.679L1075.97 139.612L1081.16 133.612L1079.53 128.88" stroke="#1C1E21" stroke-width="3" stroke-linejoin="round"/>
<path d="M969.481 148.598L1067.39 114.784M1067.39 114.784L1074.78 136.185M1067.39 114.784L1070.04 112.442" stroke="#1C1E21" stroke-linecap="round" stroke-linejoin="round"/>
<path d="M1079.43 128.22C1078.61 128.502 1077.03 126.454 1076 123.469C1074.97 120.484 1074.91 117.796 1075.73 117.514" stroke="#1C1E21"/>
<path d="M1074.65 116.611L1075.52 116.311C1076.42 115.999 1078.15 118.629 1079.38 122.185C1080.61 125.742 1080.83 128.755 1079.92 129.067L1079.06 129.367" stroke="#1C1E21" stroke-width="3" stroke-linejoin="bevel"/>
<path d="M1075.27 116.909L1071.89 118.076C1070.98 118.387 1071.18 121.317 1072.32 124.62C1073.46 127.922 1075.07 130.232 1075.98 129.921L1079.36 128.754" stroke="#1C1E21"/>
<path fill-rule="evenodd" clip-rule="evenodd" d="M635.453 125.353L636.692 98.8735L643.973 95.3543L670.42 96.5918L753.244 100.468L752.838 109.134L753.278 109.154C754.165 109.196 754.752 112.059 754.589 115.549C754.426 119.039 753.579 121.713 752.692 121.672L752.253 121.651L752.01 126.827L744.964 130.477L680.949 127.482L635.453 125.353Z" fill="url(#paint13_linear_527_16021)"/>
<path d="M752.85 108.898L753.244 100.468L669.967 96.5698L643.52 95.3323L636.239 98.8515L635 125.331L680.496 127.46L744.964 130.477L752.011 126.827L752.245 121.825" stroke="#1C1E21" stroke-width="3" stroke-linejoin="round"/>
<path d="M642.72 99.3969L746.192 104.239M746.192 104.239L745.134 126.856M746.192 104.239L749.519 103.044" stroke="#1C1E21" stroke-linecap="round" stroke-linejoin="round"/>
<path d="M752.396 121.175C751.532 121.135 750.825 118.649 750.973 115.494C751.121 112.34 752.061 109.821 752.925 109.861" stroke="#1C1E21"/>
<path d="M752.26 108.624L753.177 108.667C754.133 108.712 754.765 111.795 754.589 115.553C754.413 119.312 753.502 122.192 752.546 122.147L751.629 122.104" stroke="#1C1E21" stroke-width="3" stroke-linejoin="bevel"/>
<path d="M752.719 109.128L749.147 108.961C748.195 108.916 747.29 111.709 747.127 115.2C746.964 118.69 747.609 121.434 748.561 121.478L752.133 121.645" stroke="#1C1E21"/>
<path fill-rule="evenodd" clip-rule="evenodd" d="M755.442 128.649L761.562 102.857L769.369 100.747L795.129 106.859L875.804 126.003L873.801 134.444L874.229 134.545C875.093 134.75 875.14 137.673 874.333 141.072C873.527 144.472 872.2 146.943 871.336 146.738L870.908 146.636L869.711 151.678L862.111 153.961L799.757 139.165L755.442 128.649Z" fill="url(#paint14_linear_527_16021)"/>
<path d="M873.855 134.215L875.804 126.003L794.688 106.754L768.928 100.641L761.121 102.752L755 128.544L799.316 139.059L862.111 153.961L869.712 151.678L870.868 146.806" stroke="#1C1E21" stroke-width="3" stroke-linejoin="round"/>
<path d="M767.389 104.488L868.175 128.403M868.175 128.403L862.948 150.433M868.175 128.403L871.666 127.845" stroke="#1C1E21" stroke-linecap="round" stroke-linejoin="round"/>
<path fill-rule="evenodd" clip-rule="evenodd" d="M555.754 105.261L553.745 78.8287L560.542 74.4453L586.941 72.4391L669.617 66.1561L670.275 74.8066L670.713 74.7733C671.599 74.7059 672.532 77.4756 672.797 80.9596C673.062 84.4435 672.549 87.2011 671.663 87.2684L671.224 87.3017L671.617 92.468L665.07 96.9533L601.169 101.809L555.754 105.261Z" fill="white"/>
<path d="M670.257 74.5717L669.617 66.1561L586.488 72.4727L560.089 74.479L553.292 78.8624L555.301 105.294L600.716 101.843L665.07 96.9532L671.617 92.468L671.237 87.4759" stroke="#1C1E21" stroke-width="3" stroke-linejoin="round"/>
<path d="M559.792 78.6109L663.079 70.7615M663.079 70.7615L664.795 93.338M663.079 70.7615L666.235 69.1684" stroke="#1C1E21" stroke-linecap="round" stroke-linejoin="round"/>
<path d="M671.308 86.812C670.445 86.8775 669.44 84.4967 669.201 81.3478C668.962 78.1988 669.587 75.5838 670.45 75.5183" stroke="#1C1E21"/>
<path d="M669.637 74.3717L670.552 74.3021C671.506 74.2296 672.511 77.2124 672.796 80.9643C673.081 84.7162 672.529 87.6859 671.575 87.7584L670.659 87.828" stroke="#1C1E21" stroke-width="3" stroke-linejoin="bevel"/>
<path d="M670.155 74.8157L666.589 75.0866C665.639 75.1588 665.083 78.0417 665.348 81.5256C665.612 85.0096 666.588 87.654 667.539 87.5818L671.104 87.3108" stroke="#1C1E21"/>
<path fill-rule="evenodd" clip-rule="evenodd" d="M674.449 87.1035L678.333 60.8814L685.931 58.109L712.12 61.9885L794.14 74.1385L792.869 82.7203L793.304 82.7848C794.183 82.9149 794.48 85.8224 793.968 89.2786C793.456 92.7349 792.346 95.3109 791.468 95.1807L791.033 95.1162L790.273 100.241L782.897 103.168L719.503 93.7775L674.449 87.1035Z" fill="url(#paint15_linear_527_16021)"/>
<path d="M792.903 82.4873L794.14 74.1385L711.671 61.9213L685.482 58.0417L677.884 60.8141L674 87.0363L719.054 93.7103L782.897 103.168L790.273 100.241L791.007 95.289" stroke="#1C1E21" stroke-width="3" stroke-linejoin="round"/>
<path d="M684.279 62.0059L786.746 77.1846M786.746 77.1846L783.428 99.5819M786.746 77.1846L790.176 76.3287" stroke="#1C1E21" stroke-linecap="round" stroke-linejoin="round"/>
<path d="M791.222 94.6571C790.366 94.5304 789.912 91.9863 790.375 88.8623C790.838 85.7384 792.026 83.3264 792.882 83.4531" stroke="#1C1E21"/>
<path d="M792.343 82.1553L793.251 82.2898C794.198 82.43 794.518 85.5611 793.967 89.2832C793.415 93.0054 792.22 95.7795 791.274 95.6393L790.365 95.5047" stroke="#1C1E21" stroke-width="3" stroke-linejoin="bevel"/>
<path d="M792.749 82.7027L789.212 82.1787C788.269 82.039 787.09 84.7276 786.578 88.1839C786.066 91.6402 786.433 94.4349 787.376 94.5746L790.913 95.0986" stroke="#1C1E21"/>
<path fill-rule="evenodd" clip-rule="evenodd" d="M767.428 62.272L782.137 40.2193L790.191 40.9564L812.216 55.6474L881.194 101.656L876.38 108.874L876.746 109.118C877.485 109.611 876.513 112.367 874.574 115.274C872.635 118.18 870.532 120.036 869.793 119.543L869.427 119.299L866.552 123.609L858.632 123.106L805.318 87.5452L767.428 62.272Z" fill="url(#paint16_linear_527_16021)"/>
<path d="M876.511 108.678L881.195 101.656L811.839 55.3948L789.814 40.7038L781.76 39.9667L767.051 62.0195L804.941 87.2927L858.632 123.106L866.552 123.609L869.33 119.444" stroke="#1C1E21" stroke-width="3" stroke-linejoin="round"/>
<path d="M787.034 43.7746L873.208 101.253M873.208 101.253L860.644 120.089M873.208 101.253L876.675 101.944" stroke="#1C1E21" stroke-linecap="round" stroke-linejoin="round"/>
<path d="M869.795 118.965C869.076 118.485 869.751 115.99 871.504 113.363C873.256 110.736 875.36 109.062 876.08 109.542" stroke="#1C1E21"/>
<path d="M876.146 108.138L876.91 108.648C877.706 109.179 876.659 112.147 874.571 115.277C872.483 118.408 870.218 120.406 869.422 119.875L868.658 119.365" stroke="#1C1E21" stroke-width="3" stroke-linejoin="bevel"/>
<path d="M876.281 108.807L873.306 106.823C872.513 106.294 870.298 108.222 868.36 111.128C866.421 114.035 865.56 116.719 866.353 117.248L869.327 119.232" stroke="#1C1E21"/>
<path fill-rule="evenodd" clip-rule="evenodd" d="M616.451 52.2155L619.5 25.8831L627.005 22.8707L653.305 25.9159L735.669 35.453L734.671 44.0708L735.108 44.1214C735.991 44.2236 736.381 47.1201 735.979 50.5909C735.577 54.0617 734.55 56.6716 733.667 56.5694L733.23 56.5188L732.634 61.6656L725.354 64.8255L661.695 57.4542L616.451 52.2155Z" fill="url(#paint17_linear_527_16021)"/>
<path d="M734.698 43.8368L735.669 35.4529L652.854 25.8629L626.554 22.8177L619.049 25.8302L616 52.1625L661.243 57.4012L725.354 64.8254L732.634 61.6655L733.21 56.6923" stroke="#1C1E21" stroke-width="3" stroke-linejoin="round"/>
<path d="M625.478 26.818L728.375 38.7324M728.375 38.7324L725.771 61.2238M728.375 38.7324L731.776 37.7679" stroke="#1C1E21" stroke-linecap="round" stroke-linejoin="round"/>
<path d="M733.405 56.0539C732.546 55.9544 732.011 53.426 732.375 50.2889C732.738 47.1519 733.849 44.7033 734.708 44.8028" stroke="#1C1E21"/>
<path d="M734.128 43.5227L735.04 43.6283C735.991 43.7384 736.41 46.8577 735.978 50.5955C735.545 54.3332 734.438 57.1439 733.488 57.0339L732.576 56.9283" stroke="#1C1E21" stroke-width="3" stroke-linejoin="bevel"/>
<path d="M734.552 44.0569L731 43.6457C730.053 43.536 728.959 46.2608 728.557 49.7316C728.156 53.2024 728.611 55.984 729.558 56.0937L733.11 56.505" stroke="#1C1E21"/>
<path fill-rule="evenodd" clip-rule="evenodd" d="M878.454 139.366L878.506 112.857L885.623 109.016L912.098 109.068L995.013 109.231L994.996 117.907L995.435 117.908C996.324 117.909 997.038 120.743 997.032 124.237C997.025 127.731 996.299 130.44 995.411 130.439L994.971 130.438L994.961 135.619L988.085 139.582L924 139.455L878.454 139.366Z" fill="url(#paint18_linear_527_16021)"/>
<path d="M994.996 117.671L995.013 109.231L911.644 109.066L885.169 109.014L878.052 112.856L878 139.364L923.546 139.454L988.085 139.582L994.961 135.619L994.97 130.612" stroke="#1C1E21" stroke-width="3" stroke-linejoin="round"/>
<path d="M884.551 113.11L988.136 113.314M988.136 113.314L988.091 135.956M988.136 113.314L991.406 111.972" stroke="#1C1E21" stroke-linecap="round" stroke-linejoin="round"/>
<path d="M995.092 129.956C994.227 129.954 993.41 127.503 993.416 124.345C993.423 121.187 994.25 118.628 995.115 118.63" stroke="#1C1E21"/>
<path d="M994.394 117.423L995.312 117.425C996.269 117.427 997.038 120.479 997.031 124.242C997.024 128.004 996.242 130.922 995.285 130.92L994.367 130.919" stroke="#1C1E21" stroke-width="3" stroke-linejoin="bevel"/>
<path d="M994.875 117.906L991.299 117.899C990.346 117.898 989.568 120.728 989.561 124.222C989.554 127.716 990.321 130.429 991.275 130.431L994.85 130.438" stroke="#1C1E21"/>
<path fill-rule="evenodd" clip-rule="evenodd" d="M841.433 78.0635L849.498 52.8118L857.443 51.3016L882.663 59.3563L961.648 84.5818L959.008 92.846L959.427 92.9798C960.274 93.2501 960.098 96.1674 959.035 99.4958C957.972 102.824 956.461 105.187 955.615 104.917L955.196 104.783L953.62 109.719L945.867 111.417L884.82 91.92L841.433 78.0635Z" fill="url(#paint19_linear_527_16021)"/>
<path d="M959.08 92.6217L961.647 84.5818L882.231 59.2175L857.01 51.1628L849.065 52.673L841.001 77.9247L884.388 91.7813L945.867 111.417L953.619 109.719L955.142 104.95" stroke="#1C1E21" stroke-width="3" stroke-linejoin="round"/>
<path d="M855.183 54.8808L953.858 86.3948M953.858 86.3948L946.97 107.963M953.858 86.3948L957.381 86.1036" stroke="#1C1E21" stroke-linecap="round" stroke-linejoin="round"/>
<path d="M955.457 104.361C954.633 104.097 954.595 101.513 955.556 98.5052C956.517 95.4968 958.079 93.3081 958.903 93.5713" stroke="#1C1E21"/>
<path d="M958.581 92.2036L959.456 92.483C960.367 92.7741 960.178 95.9158 959.033 99.5002C957.889 103.085 956.262 105.63 955.35 105.338L954.475 105.059" stroke="#1C1E21" stroke-width="3" stroke-linejoin="bevel"/>
<path d="M958.893 92.8095L955.487 91.7217C954.579 91.4316 952.981 93.8947 951.918 97.2231C950.855 100.551 950.767 103.369 951.675 103.659L955.081 104.747" stroke="#1C1E21"/>
<path fill-rule="evenodd" clip-rule="evenodd" d="M1000.55 131.928L993.468 106.383L999.289 100.768L1024.8 93.6963L1104.7 71.5485L1107.02 79.9087L1107.45 79.7912C1108.3 79.5539 1109.75 82.091 1110.69 85.458C1111.62 88.8251 1111.65 91.6297 1110.79 91.8671L1110.37 91.9845L1111.75 96.9774L1106.2 102.644L1044.44 119.762L1000.55 131.928Z" fill="url(#paint20_linear_527_16021)"/>
<path d="M1106.96 79.6817L1104.7 71.5485L1024.37 93.8169L998.852 100.889L993.031 106.503L1000.11 132.049L1044 119.882L1106.2 102.644L1111.75 96.9774L1110.42 92.1528" stroke="#1C1E21" stroke-width="3" stroke-linejoin="round"/>
<path d="M999.359 105L1099.18 77.331M1099.18 77.331L1105.23 99.15M1099.18 77.331L1101.97 75.1579" stroke="#1C1E21" stroke-linecap="round" stroke-linejoin="round"/>
<path d="M1110.36 91.4879C1109.52 91.719 1108.08 89.5774 1107.23 86.5341C1106.39 83.4909 1106.5 80.8043 1107.33 80.5732" stroke="#1C1E21"/>
<path d="M1106.31 79.6052L1107.2 79.3599C1108.12 79.1043 1109.68 81.8366 1110.69 85.4627C1111.69 89.0887 1111.72 92.1091 1110.8 92.3647L1109.92 92.61" stroke="#1C1E21" stroke-width="3" stroke-linejoin="bevel"/>
<path d="M1106.91 79.9408L1103.46 80.8959C1102.54 81.1505 1102.55 84.0864 1103.49 87.4535C1104.42 90.8205 1105.89 93.2263 1106.81 92.9717L1110.25 92.0166" stroke="#1C1E21"/>
<path fill-rule="evenodd" clip-rule="evenodd" d="M970.733 111.534L961.215 86.7936L966.465 80.6423L991.175 71.1359L1068.56 41.364L1071.68 49.4609L1072.09 49.303C1072.91 48.984 1074.6 51.3689 1075.86 54.6299C1077.11 57.8908 1077.41 60.6795 1076.59 60.9985L1076.17 61.1564L1078.04 65.992L1073.05 72.1692L1013.24 95.18L970.733 111.534Z" fill="url(#paint21_linear_527_16021)"/>
<path d="M1071.59 49.2411L1068.56 41.364L990.751 71.2982L966.041 80.8047L960.791 86.9559L970.309 111.696L1012.82 95.3423L1073.05 72.1692L1078.04 65.992L1076.24 61.3194" stroke="#1C1E21" stroke-width="3" stroke-linejoin="round"/>
<path d="M966.944 84.8477L1063.62 47.6537M1063.62 47.6537L1071.75 68.7854M1063.62 47.6537L1066.19 45.221" stroke="#1C1E21" stroke-linecap="round" stroke-linejoin="round"/>
<path d="M1076.11 60.6632C1075.31 60.9738 1073.66 58.9822 1072.53 56.0348C1071.39 53.0874 1071.24 50.4029 1072.05 50.0923" stroke="#1C1E21"/>
<path d="M1070.94 49.2274L1071.8 48.8977C1072.69 48.5541 1074.51 51.1225 1075.86 54.6343C1077.21 58.1461 1077.54 61.1493 1076.64 61.4928L1075.79 61.8226" stroke="#1C1E21" stroke-width="3" stroke-linejoin="bevel"/>
<path d="M1071.56 49.5041L1068.23 50.7879C1067.34 51.1302 1067.63 54.0513 1068.89 57.3122C1070.14 60.5732 1071.84 62.8257 1072.73 62.4834L1076.06 61.1996" stroke="#1C1E21"/>
<path fill-rule="evenodd" clip-rule="evenodd" d="M916.791 72.7378L914.021 46.3746L920.688 41.7972L947.019 39.0311L1029.48 30.3685L1030.39 38.9965L1030.82 38.9506C1031.71 38.8577 1032.72 41.5994 1033.08 45.0743C1033.45 48.5491 1033.02 51.3203 1032.13 51.4132L1031.7 51.4591L1032.24 56.6119L1025.82 61.2839L962.087 67.9792L916.791 72.7378Z" fill="url(#paint22_linear_527_16021)"/>
<path d="M1030.36 38.7623L1029.48 30.3686L946.567 39.0779L920.236 41.8439L913.569 46.4213L916.338 72.7845L961.635 68.026L1025.82 61.2839L1032.24 56.6119L1031.71 51.6328" stroke="#1C1E21" stroke-width="3" stroke-linejoin="round"/>
<path d="M920.058 45.9828L1023.08 35.1605M1023.08 35.1605L1025.44 57.6782M1023.08 35.1605L1026.18 33.4772" stroke="#1C1E21" stroke-linecap="round" stroke-linejoin="round"/>
<path d="M1031.76 50.9672C1030.9 51.0576 1029.83 48.7067 1029.5 45.566C1029.17 42.4252 1029.72 39.7933 1030.58 39.7029" stroke="#1C1E21"/>
<path d="M1029.74 38.5802L1030.65 38.4843C1031.6 38.3843 1032.69 41.3369 1033.08 45.079C1033.48 48.8212 1033.01 51.8055 1032.06 51.9055L1031.15 52.0015" stroke="#1C1E21" stroke-width="3" stroke-linejoin="bevel"/>
<path d="M1030.27 39.0091L1026.71 39.3826C1025.76 39.4822 1025.29 42.3799 1025.65 45.8548C1026.02 49.3296 1027.07 51.9448 1028.02 51.8452L1031.58 51.4717" stroke="#1C1E21"/>
<path fill-rule="evenodd" clip-rule="evenodd" d="M1082.45 137.253L1085.15 110.883L1092.62 107.771L1118.95 110.466L1201.44 118.907L1200.55 127.537L1200.99 127.582C1201.88 127.672 1202.3 130.563 1201.95 134.039C1201.59 137.515 1200.6 140.138 1199.72 140.048L1199.28 140.003L1198.75 145.157L1191.51 148.414L1127.76 141.89L1082.45 137.253Z" fill="url(#paint23_linear_527_16021)"/>
<path d="M1200.58 127.303L1201.44 118.907L1118.5 110.419L1092.16 107.724L1084.7 110.836L1082 137.206L1127.31 141.843L1191.51 148.414L1198.75 145.157L1199.26 140.177" stroke="#1C1E21" stroke-width="3" stroke-linejoin="round"/>
<path d="M1091.14 111.738L1194.19 122.283M1194.19 122.283L1191.88 144.807M1194.19 122.283L1197.57 121.273" stroke="#1C1E21" stroke-linecap="round" stroke-linejoin="round"/>
<path d="M1200 126.996L1200.92 127.09C1201.87 127.187 1202.33 130.301 1201.95 134.044C1201.56 137.787 1200.49 140.612 1199.54 140.515L1198.63 140.421" stroke="#1C1E21" stroke-width="3" stroke-linejoin="bevel"/>
<path fill-rule="evenodd" clip-rule="evenodd" d="M806.951 50.1752L805.643 23.6992L812.553 19.4975L838.997 18.1916L921.81 14.1019L922.238 22.7668L922.678 22.7451C923.565 22.7012 924.424 25.4947 924.596 28.9844C924.769 32.4742 924.183 35.2172 923.296 35.261L922.857 35.2827L923.112 40.4575L916.448 44.7677L852.441 47.9286L806.951 50.1752Z" fill="white"/>
<path d="M922.227 22.5316L921.811 14.1019L838.543 18.2133L812.1 19.5192L805.19 23.7209L806.498 50.1969L851.988 47.9503L916.449 44.7677L923.112 40.4576L922.866 35.4571" stroke="#1C1E21" stroke-width="3" stroke-linejoin="round"/>
<path d="M811.694 23.6418L915.153 18.5324M915.153 18.5324L916.27 41.1465M915.153 18.5324L918.351 17.0236" stroke="#1C1E21" stroke-linecap="round" stroke-linejoin="round"/>
<path d="M922.953 34.7954C922.089 34.8381 921.148 32.4315 920.992 29.2773C920.836 26.1231 921.531 23.5256 922.395 23.483" stroke="#1C1E21"/>
<path d="M921.613 22.3152L922.53 22.2699C923.486 22.2227 924.411 25.231 924.597 28.9892C924.783 32.7474 924.152 35.7014 923.196 35.7486L922.279 35.7939" stroke="#1C1E21" stroke-width="3" stroke-linejoin="bevel"/>
<path d="M922.118 22.7727L918.547 22.949C917.595 22.9961 916.963 25.8632 917.135 29.3529C917.308 32.8426 918.213 35.512 919.165 35.465L922.737 35.2886" stroke="#1C1E21"/>
<path fill-rule="evenodd" clip-rule="evenodd" d="M1382.34 163.399L1373.69 138.343L1379.15 132.378L1404.17 123.736L1482.55 96.6696L1485.38 104.87L1485.79 104.726C1486.63 104.436 1488.24 106.878 1489.38 110.181C1490.52 113.483 1490.73 116.281 1489.89 116.571L1489.47 116.714L1491.16 121.612L1485.97 127.612L1425.39 148.532L1382.34 163.399Z" fill="url(#paint24_linear_527_16021)"/>
<path d="M1485.3 104.647L1482.55 96.6696L1403.74 123.883L1378.72 132.526L1373.26 138.491L1381.91 163.547L1424.96 148.679L1485.97 127.612L1491.16 121.612L1489.53 116.88" stroke="#1C1E21" stroke-width="3" stroke-linejoin="round"/>
<path d="M1379.48 136.598L1477.39 102.784M1477.39 102.784L1484.78 124.185M1477.39 102.784L1480.04 100.442" stroke="#1C1E21" stroke-linecap="round" stroke-linejoin="round"/>
<path fill-rule="evenodd" clip-rule="evenodd" d="M1165.44 116.649L1171.56 90.857L1179.37 88.7468L1205.13 94.8594L1285.8 114.003L1283.8 122.444L1284.23 122.545C1285.09 122.75 1285.14 125.673 1284.33 129.072C1283.53 132.472 1282.2 134.943 1281.34 134.738L1280.91 134.636L1279.71 139.678L1272.11 141.961L1209.76 127.165L1165.44 116.649Z" fill="url(#paint25_linear_527_16021)"/>
<path d="M1283.86 122.215L1285.8 114.003L1204.69 94.7539L1178.93 88.6413L1171.12 90.7516L1165 116.544L1209.32 127.059L1272.11 141.961L1279.71 139.678L1280.87 134.806" stroke="#1C1E21" stroke-width="3" stroke-linejoin="round"/>
<path d="M1177.39 92.4875L1278.18 116.403M1278.18 116.403L1272.95 138.433M1278.18 116.403L1281.67 115.845" stroke="#1C1E21" stroke-linecap="round" stroke-linejoin="round"/>
<path d="M1281.14 134.195C1280.29 133.996 1280.06 131.422 1280.79 128.349C1281.52 125.276 1282.91 122.975 1283.75 123.175" stroke="#1C1E21"/>
<path d="M1283.33 121.836L1284.22 122.048C1285.15 122.269 1285.2 125.416 1284.33 129.077C1283.46 132.738 1282.03 135.399 1281.1 135.178L1280.21 134.966" stroke="#1C1E21" stroke-width="3" stroke-linejoin="bevel"/>
<path d="M1283.68 122.416L1280.2 121.591C1279.28 121.37 1277.87 123.948 1277.06 127.348C1276.26 130.747 1276.38 133.563 1277.31 133.783L1280.79 134.609" stroke="#1C1E21"/>
<path fill-rule="evenodd" clip-rule="evenodd" d="M1084.45 75.1035L1088.33 48.8814L1095.93 46.109L1122.12 49.9885L1204.14 62.1385L1202.87 70.7203L1203.3 70.7848C1204.18 70.9149 1204.48 73.8224 1203.97 77.2786C1203.46 80.7349 1202.35 83.3109 1201.47 83.1807L1201.03 83.1162L1200.27 88.2415L1192.9 91.1684L1129.5 81.7775L1084.45 75.1035Z" fill="url(#paint26_linear_527_16021)"/>
<path d="M1202.9 70.4873L1204.14 62.1385L1121.67 49.9213L1095.48 46.0417L1087.88 48.8141L1084 75.0363L1129.05 81.7103L1192.9 91.1683L1200.27 88.2414L1201.01 83.289" stroke="#1C1E21" stroke-width="3" stroke-linejoin="round"/>
<path d="M1094.28 50.0059L1196.75 65.1846M1196.75 65.1846L1193.43 87.5819M1196.75 65.1846L1200.18 64.3287" stroke="#1C1E21" stroke-linecap="round" stroke-linejoin="round"/>
<path d="M1201.22 82.6571C1200.37 82.5304 1199.91 79.9863 1200.37 76.8623C1200.84 73.7384 1202.03 71.3264 1202.88 71.4531" stroke="#1C1E21"/>
<path d="M1202.34 70.1553L1203.25 70.2898C1204.2 70.43 1204.52 73.5611 1203.97 77.2832C1203.42 81.0054 1202.22 83.7795 1201.27 83.6393L1200.37 83.5047" stroke="#1C1E21" stroke-width="3" stroke-linejoin="bevel"/>
<path d="M1202.75 70.7027L1199.21 70.1787C1198.27 70.039 1197.09 72.7276 1196.58 76.1839C1196.07 79.6402 1196.43 82.4349 1197.38 82.5746L1200.91 83.0986" stroke="#1C1E21"/>
<path fill-rule="evenodd" clip-rule="evenodd" d="M1177.43 50.272L1192.14 28.2193L1200.19 28.9564L1222.22 43.6474L1291.19 89.6565L1286.38 96.8738L1286.75 97.1178C1287.49 97.6108 1286.51 100.367 1284.57 103.274C1282.64 106.18 1280.53 108.036 1279.79 107.543L1279.43 107.299L1276.55 111.609L1268.63 111.106L1215.32 75.5452L1177.43 50.272Z" fill="white"/>
<path d="M1286.51 96.6778L1291.19 89.6565L1221.84 43.3948L1199.81 28.7038L1191.76 27.9667L1177.05 50.0195L1214.94 75.2927L1268.63 111.106L1276.55 111.609L1279.33 107.444" stroke="#1C1E21" stroke-width="3" stroke-linejoin="round"/>
<path d="M1197.03 31.7746L1283.21 89.2534M1283.21 89.2534L1270.64 108.089M1283.21 89.2534L1286.68 89.9441" stroke="#1C1E21" stroke-linecap="round" stroke-linejoin="round"/>
<path d="M1279.8 106.965C1279.08 106.485 1279.75 103.99 1281.5 101.363C1283.26 98.7357 1285.36 97.062 1286.08 97.542" stroke="#1C1E21"/>
<path d="M1286.15 96.1384L1286.91 96.648C1287.71 97.1789 1286.66 100.147 1284.57 103.277C1282.48 106.408 1280.22 108.406 1279.42 107.875L1278.66 107.365" stroke="#1C1E21" stroke-width="3" stroke-linejoin="bevel"/>
<path d="M1286.28 96.8071L1283.31 94.823C1282.51 94.2941 1280.3 96.2216 1278.36 99.1283C1276.42 102.035 1275.56 104.719 1276.35 105.248L1279.33 107.232" stroke="#1C1E21"/>
<path fill-rule="evenodd" clip-rule="evenodd" d="M1026.45 40.2155L1029.5 13.8831L1037.01 10.8707L1063.3 13.9159L1145.67 23.453L1144.67 32.0708L1145.11 32.1214C1145.99 32.2236 1146.38 35.1201 1145.98 38.5909C1145.58 42.0617 1144.55 44.6716 1143.67 44.5694L1143.23 44.5188L1142.63 49.6656L1135.35 52.8255L1071.69 45.4542L1026.45 40.2155Z" fill="white"/>
<path d="M1144.7 31.8368L1145.67 23.4529L1062.85 13.8629L1036.55 10.8177L1029.05 13.8302L1026 40.1625L1071.24 45.4012L1135.35 52.8254L1142.63 49.6655L1143.21 44.6923" stroke="#1C1E21" stroke-width="3" stroke-linejoin="round"/>
<path d="M1035.48 14.818L1138.38 26.7324M1138.38 26.7324L1135.77 49.2238M1138.38 26.7324L1141.78 25.7679" stroke="#1C1E21" stroke-linecap="round" stroke-linejoin="round"/>
<path d="M1143.41 44.0539C1142.55 43.9544 1142.01 41.426 1142.37 38.2889C1142.74 35.1519 1143.85 32.7033 1144.71 32.8028" stroke="#1C1E21"/>
<path d="M1144.13 31.5227L1145.04 31.6283C1145.99 31.7384 1146.41 34.8577 1145.98 38.5955C1145.54 42.3332 1144.44 45.1439 1143.49 45.0339L1142.58 44.9283" stroke="#1C1E21" stroke-width="3" stroke-linejoin="bevel"/>
<path d="M1144.55 32.0569L1141 31.6457C1140.05 31.536 1138.96 34.2608 1138.56 37.7316C1138.16 41.2024 1138.61 43.984 1139.56 44.0937L1143.11 44.505" stroke="#1C1E21"/>
<path fill-rule="evenodd" clip-rule="evenodd" d="M1288.45 127.366L1288.51 100.857L1295.62 97.0156L1322.1 97.0677L1405.01 97.2312L1405 105.907L1405.44 105.908C1406.32 105.909 1407.04 108.743 1407.03 112.237C1407.02 115.731 1406.3 118.44 1405.41 118.439L1404.97 118.438L1404.96 123.619L1398.08 127.582L1334 127.455L1288.45 127.366Z" fill="white"/>
<path d="M1405 105.671L1405.01 97.2312L1321.64 97.0662L1295.17 97.014L1288.05 100.856L1288 127.364L1333.55 127.454L1398.08 127.582L1404.96 123.619L1404.97 118.612" stroke="#1C1E21" stroke-width="3" stroke-linejoin="round"/>
<path d="M1294.55 101.11L1398.14 101.314M1398.14 101.314L1398.09 123.956M1398.14 101.314L1401.41 99.9716" stroke="#1C1E21" stroke-linecap="round" stroke-linejoin="round"/>
<path d="M1405.09 117.956C1404.23 117.954 1403.41 115.503 1403.42 112.345C1403.42 109.187 1404.25 106.628 1405.11 106.63" stroke="#1C1E21"/>
<path d="M1404.39 105.423L1405.31 105.425C1406.27 105.427 1407.04 108.479 1407.03 112.242C1407.02 116.004 1406.24 118.922 1405.29 118.92L1404.37 118.919" stroke="#1C1E21" stroke-width="3" stroke-linejoin="bevel"/>
<path d="M1404.87 105.906L1401.3 105.899C1400.35 105.898 1399.57 108.728 1399.56 112.222C1399.55 115.716 1400.32 118.429 1401.27 118.431L1404.85 118.438" stroke="#1C1E21"/>
<path fill-rule="evenodd" clip-rule="evenodd" d="M1251.43 66.0635L1259.5 40.8118L1267.44 39.3016L1292.66 47.3563L1371.65 72.5818L1369.01 80.846L1369.43 80.9798C1370.27 81.2501 1370.1 84.1674 1369.04 87.4958C1367.97 90.8241 1366.46 93.1873 1365.61 92.917L1365.2 92.7832L1363.62 97.7187L1355.87 99.417L1294.82 79.92L1251.43 66.0635Z" fill="url(#paint27_linear_527_16021)"/>
<path d="M1369.08 80.6217L1371.65 72.5818L1292.23 47.2175L1267.01 39.1628L1259.07 40.673L1251 65.9247L1294.39 79.7813L1355.87 99.417L1363.62 97.7188L1365.14 92.9496" stroke="#1C1E21" stroke-width="3" stroke-linejoin="round"/>
<path d="M1265.18 42.8808L1363.86 74.3948M1363.86 74.3948L1356.97 95.9631M1363.86 74.3948L1367.38 74.1036" stroke="#1C1E21" stroke-linecap="round" stroke-linejoin="round"/>
<path d="M1365.46 92.3607C1364.63 92.0975 1364.6 89.5135 1365.56 86.5052C1366.52 83.4968 1368.08 81.3081 1368.9 81.5713" stroke="#1C1E21"/>
<path d="M1368.58 80.2036L1369.46 80.483C1370.37 80.7741 1370.18 83.9158 1369.03 87.5002C1367.89 91.0846 1366.26 93.6295 1365.35 93.3384L1364.48 93.059" stroke="#1C1E21" stroke-width="3" stroke-linejoin="bevel"/>
<path d="M1368.89 80.8095L1365.49 79.7217C1364.58 79.4316 1362.98 81.8947 1361.92 85.2231C1360.86 88.5514 1360.77 91.3688 1361.67 91.6588L1365.08 92.7466" stroke="#1C1E21"/>
<path fill-rule="evenodd" clip-rule="evenodd" d="M1410.55 119.928L1403.47 94.3829L1409.29 88.7683L1434.8 81.6963L1514.7 59.5485L1517.02 67.9087L1517.45 67.7912C1518.3 67.5539 1519.75 70.091 1520.69 73.458C1521.62 76.8251 1521.65 79.6297 1520.79 79.8671L1520.37 79.9845L1521.75 84.9774L1516.2 90.6438L1454.44 107.762L1410.55 119.928Z" fill="white"/>
<path d="M1516.96 67.6817L1514.7 59.5485L1434.37 81.8169L1408.85 88.8889L1403.03 94.5035L1410.11 120.049L1454 107.882L1516.2 90.6437L1521.75 84.9774L1520.42 80.1528" stroke="#1C1E21" stroke-width="3" stroke-linejoin="round"/>
<path d="M1409.36 93.0003L1509.18 65.331M1509.18 65.331L1515.23 87.15M1509.18 65.331L1511.97 63.1579" stroke="#1C1E21" stroke-linecap="round" stroke-linejoin="round"/>
<path fill-rule="evenodd" clip-rule="evenodd" d="M1380.73 99.534L1371.21 74.7936L1376.47 68.6423L1401.17 59.1359L1478.56 29.364L1481.68 37.4609L1482.09 37.303C1482.91 36.984 1484.6 39.3689 1485.86 42.6299C1487.11 45.8908 1487.41 48.6795 1486.59 48.9985L1486.17 49.1564L1488.04 53.992L1483.05 60.1692L1423.24 83.18L1380.73 99.534Z" fill="url(#paint28_linear_527_16021)"/>
<path d="M1481.59 37.2411L1478.56 29.364L1400.75 59.2982L1376.04 68.8047L1370.79 74.9559L1380.31 99.6964L1422.82 83.3423L1483.05 60.1692L1488.04 53.992L1486.24 49.3194" stroke="#1C1E21" stroke-width="3" stroke-linejoin="round"/>
<path d="M1376.94 72.8477L1473.62 35.6537M1473.62 35.6537L1481.75 56.7854M1473.62 35.6537L1476.19 33.221" stroke="#1C1E21" stroke-linecap="round" stroke-linejoin="round"/>
<path d="M1481.56 37.5041L1478.23 38.7879C1477.34 39.1302 1477.63 42.0513 1478.89 45.3122C1480.14 48.5732 1481.84 50.8257 1482.73 50.4834L1486.06 49.1996" stroke="#1C1E21"/>
<path fill-rule="evenodd" clip-rule="evenodd" d="M1326.79 60.7378L1324.02 34.3746L1330.69 29.7972L1357.02 27.0311L1439.48 18.3685L1440.39 26.9965L1440.82 26.9506C1441.71 26.8577 1442.72 29.5994 1443.08 33.0743C1443.45 36.5491 1443.02 39.3203 1442.13 39.4132L1441.7 39.4591L1442.24 44.6119L1435.82 49.2839L1372.09 55.9792L1326.79 60.7378Z" fill="url(#paint29_linear_527_16021)"/>
<path d="M1440.36 26.7623L1439.48 18.3686L1356.57 27.0779L1330.24 29.8439L1323.57 34.4213L1326.34 60.7845L1371.64 56.026L1435.82 49.2839L1442.24 44.6119L1441.71 39.6328" stroke="#1C1E21" stroke-width="3" stroke-linejoin="round"/>
<path d="M1330.06 33.9828L1433.08 23.1605M1433.08 23.1605L1435.44 45.6782M1433.08 23.1605L1436.18 21.4772" stroke="#1C1E21" stroke-linecap="round" stroke-linejoin="round"/>
<path d="M1441.76 38.9672C1440.9 39.0576 1439.83 36.7067 1439.5 33.566C1439.17 30.4252 1439.72 27.7933 1440.58 27.7029" stroke="#1C1E21"/>
<path d="M1439.74 26.5802L1440.65 26.4843C1441.6 26.3843 1442.69 29.3369 1443.08 33.079C1443.48 36.8212 1443.01 39.8055 1442.06 39.9055L1441.15 40.0015" stroke="#1C1E21" stroke-width="3" stroke-linejoin="bevel"/>
<path d="M1440.27 27.0091L1436.71 27.3826C1435.76 27.4822 1435.29 30.3799 1435.65 33.8548C1436.02 37.3296 1437.07 39.9448 1438.02 39.8452L1441.58 39.4717" stroke="#1C1E21"/>
<path fill-rule="evenodd" clip-rule="evenodd" d="M1216.95 38.1752L1215.64 11.6992L1222.55 7.49749L1249 6.19157L1331.81 2.10189L1332.24 10.7668L1332.68 10.7451C1333.57 10.7012 1334.42 13.4947 1334.6 16.9844C1334.77 20.4742 1334.18 23.2172 1333.3 23.261L1332.86 23.2827L1333.11 28.4575L1326.45 32.7677L1262.44 35.9286L1216.95 38.1752Z" fill="url(#paint30_linear_527_16021)"/>
<path d="M1332.23 10.5316L1331.81 2.10192L1248.54 6.21329L1222.1 7.51921L1215.19 11.7209L1216.5 38.1969L1261.99 35.9503L1326.45 32.7677L1333.11 28.4576L1332.87 23.4571" stroke="#1C1E21" stroke-width="3" stroke-linejoin="round"/>
<path d="M1221.69 11.6418L1325.15 6.53242M1325.15 6.53242L1326.27 29.1465M1325.15 6.53242L1328.35 5.02359" stroke="#1C1E21" stroke-linecap="round" stroke-linejoin="round"/>
<path d="M1332.95 22.7954C1332.09 22.8381 1331.15 20.4315 1330.99 17.2773C1330.84 14.1231 1331.53 11.5256 1332.39 11.483" stroke="#1C1E21"/>
<path d="M1331.61 10.3152L1332.53 10.2699C1333.49 10.2227 1334.41 13.231 1334.6 16.9892C1334.78 20.7474 1334.15 23.7014 1333.2 23.7486L1332.28 23.7939" stroke="#1C1E21" stroke-width="3" stroke-linejoin="bevel"/>
<path d="M1332.12 10.7727L1328.55 10.949C1327.6 10.9961 1326.96 13.8632 1327.14 17.3529C1327.31 20.8426 1328.21 23.512 1329.17 23.465L1332.74 23.2886" stroke="#1C1E21"/>
<defs>
<linearGradient id="paint0_linear_527_16021" x1="122.856" y1="147.678" x2="20.8819" y2="105.439" gradientUnits="userSpaceOnUse">
<stop stop-color="#B191E6"/>
<stop offset="1" stop-color="#E2A5E0"/>
</linearGradient>
<linearGradient id="paint1_linear_527_16021" x1="171.686" y1="117.696" x2="67.3722" y2="81.6172" gradientUnits="userSpaceOnUse">
<stop stop-color="#6CAFF5"/>
<stop offset="1" stop-color="#A7DBFF"/>
</linearGradient>
<linearGradient id="paint2_linear_527_16021" x1="289.619" y1="142.321" x2="193.789" y2="87.553" gradientUnits="userSpaceOnUse">
<stop stop-color="#B191E6"/>
<stop offset="1" stop-color="#E2A5E0"/>
</linearGradient>
<linearGradient id="paint3_linear_527_16021" x1="93.1125" y1="68.2978" x2="-15.8053" y2="86.1829" gradientUnits="userSpaceOnUse">
<stop stop-color="#FCAC6D"/>
<stop offset="1" stop-color="#FFD761"/>
</linearGradient>
<linearGradient id="paint4_linear_527_16021" x1="210.068" y1="90.9835" x2="109.892" y2="44.6409" gradientUnits="userSpaceOnUse">
<stop stop-color="#1CBEB7"/>
<stop offset="1" stop-color="#DBF776"/>
</linearGradient>
<linearGradient id="paint5_linear_527_16021" x1="287" y1="113.957" x2="216.203" y2="29.2763" gradientUnits="userSpaceOnUse">
<stop stop-color="#54B4C6"/>
<stop offset="1" stop-color="#78E8EA"/>
</linearGradient>
<linearGradient id="paint6_linear_527_16021" x1="30.5866" y1="66.5484" x2="-75.2377" y2="35.1768" gradientUnits="userSpaceOnUse">
<stop stop-color="#B191E6"/>
<stop offset="1" stop-color="#E2A5E0"/>
</linearGradient>
<linearGradient id="paint7_linear_527_16021" x1="414.587" y1="126.548" x2="308.762" y2="95.1768" gradientUnits="userSpaceOnUse">
<stop stop-color="#1CBEB7"/>
<stop offset="1" stop-color="#DBF776"/>
</linearGradient>
<linearGradient id="paint8_linear_527_16021" x1="531.142" y1="88.316" x2="420.779" y2="86.5692" gradientUnits="userSpaceOnUse">
<stop stop-color="#FCAC6D"/>
<stop offset="1" stop-color="#FFD761"/>
</linearGradient>
<linearGradient id="paint9_linear_527_16021" x1="451.756" y1="47.6937" x2="343.194" y2="27.7639" gradientUnits="userSpaceOnUse">
<stop stop-color="#B191E6"/>
<stop offset="1" stop-color="#E2A5E0"/>
</linearGradient>
<linearGradient id="paint10_linear_527_16021" x1="618.49" y1="135.955" x2="516.327" y2="94.1746" gradientUnits="userSpaceOnUse">
<stop stop-color="#B191E6"/>
<stop offset="1" stop-color="#E2A5E0"/>
</linearGradient>
<linearGradient id="paint11_linear_527_16021" x1="342.685" y1="31.4589" x2="235.391" y2="5.55667" gradientUnits="userSpaceOnUse">
<stop stop-color="#FCAC6D"/>
<stop offset="1" stop-color="#FFD761"/>
</linearGradient>
<linearGradient id="paint12_linear_527_16021" x1="610.853" y1="68.9614" x2="507.148" y2="31.1694" gradientUnits="userSpaceOnUse">
<stop stop-color="#FF5F9B"/>
<stop offset="1" stop-color="#FFBE72"/>
</linearGradient>
<linearGradient id="paint13_linear_527_16021" x1="750.686" y1="125.696" x2="646.372" y2="89.6172" gradientUnits="userSpaceOnUse">
<stop stop-color="#FCAC6D"/>
<stop offset="1" stop-color="#FFD761"/>
</linearGradient>
<linearGradient id="paint14_linear_527_16021" x1="868.619" y1="150.321" x2="772.789" y2="95.553" gradientUnits="userSpaceOnUse">
<stop stop-color="#B191E6"/>
<stop offset="1" stop-color="#E2A5E0"/>
</linearGradient>
<linearGradient id="paint15_linear_527_16021" x1="789.068" y1="98.9835" x2="688.892" y2="52.6409" gradientUnits="userSpaceOnUse">
<stop stop-color="#6CAFF5"/>
<stop offset="1" stop-color="#A7DBFF"/>
</linearGradient>
<linearGradient id="paint16_linear_527_16021" x1="866" y1="121.957" x2="795.203" y2="37.2763" gradientUnits="userSpaceOnUse">
<stop stop-color="#FF5F9B"/>
<stop offset="1" stop-color="#FFBE72"/>
</linearGradient>
<linearGradient id="paint17_linear_527_16021" x1="731.39" y1="60.4466" x2="629.791" y2="17.3113" gradientUnits="userSpaceOnUse">
<stop stop-color="#54B4C6"/>
<stop offset="1" stop-color="#78E8EA"/>
</linearGradient>
<linearGradient id="paint18_linear_527_16021" x1="993.587" y1="134.548" x2="887.762" y2="103.177" gradientUnits="userSpaceOnUse">
<stop stop-color="#6CAFF5"/>
<stop offset="1" stop-color="#A7DBFF"/>
</linearGradient>
<linearGradient id="paint19_linear_527_16021" x1="952.634" y1="108.283" x2="861.248" y2="46.383" gradientUnits="userSpaceOnUse">
<stop stop-color="#FCAC6D"/>
<stop offset="1" stop-color="#FFD761"/>
</linearGradient>
<linearGradient id="paint20_linear_527_16021" x1="1110.14" y1="96.316" x2="999.779" y2="94.5692" gradientUnits="userSpaceOnUse">
<stop stop-color="#1CBEB7"/>
<stop offset="1" stop-color="#DBF776"/>
</linearGradient>
<linearGradient id="paint21_linear_527_16021" x1="1076.37" y1="65.4896" x2="966.353" y2="74.4249" gradientUnits="userSpaceOnUse">
<stop stop-color="#B191E6"/>
<stop offset="1" stop-color="#E2A5E0"/>
</linearGradient>
<linearGradient id="paint22_linear_527_16021" x1="1030.76" y1="55.6937" x2="922.194" y2="35.7639" gradientUnits="userSpaceOnUse">
<stop stop-color="#54B4C6"/>
<stop offset="1" stop-color="#78E8EA"/>
</linearGradient>
<linearGradient id="paint23_linear_527_16021" x1="1197.49" y1="143.955" x2="1095.33" y2="102.175" gradientUnits="userSpaceOnUse">
<stop stop-color="#54B4C6"/>
<stop offset="1" stop-color="#78E8EA"/>
</linearGradient>
<linearGradient id="paint24_linear_527_16021" x1="1489.51" y1="121.052" x2="1379.25" y2="126.161" gradientUnits="userSpaceOnUse">
<stop stop-color="#6CAFF5"/>
<stop offset="1" stop-color="#A7DBFF"/>
</linearGradient>
<linearGradient id="paint25_linear_527_16021" x1="1278.62" y1="138.321" x2="1182.79" y2="83.553" gradientUnits="userSpaceOnUse">
<stop stop-color="#6CAFF5"/>
<stop offset="1" stop-color="#A7DBFF"/>
</linearGradient>
<linearGradient id="paint26_linear_527_16021" x1="1199.07" y1="86.9835" x2="1098.89" y2="40.6409" gradientUnits="userSpaceOnUse">
<stop stop-color="#FCAC6D"/>
<stop offset="1" stop-color="#FFD761"/>
</linearGradient>
<linearGradient id="paint27_linear_527_16021" x1="1362.63" y1="96.2828" x2="1271.25" y2="34.383" gradientUnits="userSpaceOnUse">
<stop stop-color="#54B4C6"/>
<stop offset="1" stop-color="#78E8EA"/>
</linearGradient>
<linearGradient id="paint28_linear_527_16021" x1="1486.37" y1="53.4896" x2="1376.35" y2="62.4249" gradientUnits="userSpaceOnUse">
<stop stop-color="#FCAC6D"/>
<stop offset="1" stop-color="#FFD761"/>
</linearGradient>
<linearGradient id="paint29_linear_527_16021" x1="1440.76" y1="43.6937" x2="1332.19" y2="23.7639" gradientUnits="userSpaceOnUse">
<stop stop-color="#6CAFF5"/>
<stop offset="1" stop-color="#A7DBFF"/>
</linearGradient>
<linearGradient id="paint30_linear_527_16021" x1="1331.68" y1="27.4589" x2="1224.39" y2="1.55667" gradientUnits="userSpaceOnUse">
<stop stop-color="#FF5F9B"/>
<stop offset="1" stop-color="#FFBE72"/>
</linearGradient>
</defs>
</svg>
