<svg width="178" height="34" viewBox="0 0 178 34" fill="none" xmlns="http://www.w3.org/2000/svg">
<path fill-rule="evenodd" clip-rule="evenodd" d="M2.4541 32.3647V5.85642L9.56312 2.00067H91.0385L173.953 2.00084V10.6763L174.393 10.6763C175.282 10.6763 176.002 13.5087 176.002 17.0027C176.002 20.4967 175.282 23.2074 174.393 23.2074L173.953 23.2074V28.3886L167.085 32.3648L103 32.3647H2.4541Z" fill="url(#paint0_linear_713_741)"/>
<path d="M173.953 10.4408V2.00086L35.5844 2H9.10902L2 5.85575V32.364H47.5459L167.085 32.3649L173.953 28.3886V23.3821" stroke="#1C1E21" stroke-width="3" stroke-linejoin="round"/>
<path d="M9.5 6.09759H167.085M167.085 6.09759V28.7392M167.085 6.09759L170.353 4.74829" stroke="#1C1E21" stroke-linecap="round" stroke-linejoin="round"/>
<path d="M174.074 22.7255C173.209 22.7255 172.387 20.2754 172.387 17.1173C172.387 13.9593 173.209 11.3992 174.074 11.3992" stroke="#1C1E21"/>
<path d="M173.351 10.1943H174.269C175.226 10.1943 176.001 13.2446 176.001 17.0074C176.001 20.7702 175.226 23.6895 174.269 23.6895H173.351" stroke="#1C1E21" stroke-width="3" stroke-linejoin="bevel"/>
<path d="M173.833 10.6763H170.257C169.304 10.6763 168.531 13.5088 168.531 17.0028C168.531 20.4967 169.304 23.2075 170.257 23.2075H173.833" stroke="#1C1E21"/>
<path d="M71.988 12.604C72.9213 13.2947 73.7333 13.99 74.424 14.69L73.388 15.74C72.8187 15.0867 72.002 14.382 70.938 13.626L71.988 12.604ZM71.652 15.894C72.5667 16.594 73.3367 17.294 73.962 17.994L72.926 19.03C72.366 18.3767 71.596 17.6673 70.616 16.902L71.652 15.894ZM74.368 20.402C73.7613 22.138 73.066 23.7853 72.282 25.344L70.812 24.7C71.6333 23.188 72.38 21.5733 73.052 19.856L74.368 20.402ZM74.746 14.704H78.274C78.05 14.0787 77.7747 13.4487 77.448 12.814L78.806 12.422C79.2167 13.2993 79.52 14.06 79.716 14.704H83.118V16.132H79.702V18.974H82.74V20.374H79.702V23.566H83.412V24.994H74.41V23.566H78.232V20.374H75.138V18.974H78.232V16.132H74.746V14.704ZM91.4901 17.924H93.0301V12.94H97.3701V17.924H98.5741V12.94H102.928V17.924H104.314V19.338H102.928V23.874C102.928 24.826 102.415 25.302 101.388 25.302H100.184L99.8061 23.93C100.347 23.9673 100.725 23.986 100.94 23.986C101.313 23.986 101.5 23.776 101.5 23.356V19.338H99.9601V19.59C99.9321 22.0073 99.4981 23.972 98.6581 25.484L97.5941 24.518C98.2194 23.2673 98.5461 21.6573 98.5741 19.688V19.338H97.3701V23.86C97.3701 24.8213 96.9268 25.302 96.0401 25.302H94.7941L94.4021 23.93C94.9808 23.9673 95.3821 23.986 95.6061 23.986C95.8581 23.986 95.9841 23.7807 95.9841 23.37V19.338H94.4581V19.562C94.4301 22.0073 93.9261 23.986 92.9461 25.498L91.8681 24.504C92.6148 23.2627 93.0021 21.6527 93.0301 19.674V19.338H91.4901V17.924ZM101.5 17.924V14.256H99.9601V17.924H101.5ZM95.9841 17.924V14.256H94.4581V17.924H95.9841Z" fill="#1C1E21"/>
<defs>
<linearGradient id="paint0_linear_713_741" x1="170.988" y1="27.3208" x2="28.9222" y2="-33.8886" gradientUnits="userSpaceOnUse">
<stop stop-color="#1CBEB7"/>
<stop offset="1" stop-color="#DBF776"/>
</linearGradient>
</defs>
</svg>
