<svg width="205" height="13" viewBox="0 0 205 13" fill="none" xmlns="http://www.w3.org/2000/svg">
<path d="M11.4912 1C11.3164 2.48568 10.3169 3.33138 8.86841 3.33138C7.41988 3.33138 6.42046 2.48568 6.24561 1" stroke="url(#paint0_linear_418_132)" stroke-width="0.7" stroke-linecap="square"/>
<path d="M16.7368 6.09804L8.86842 12.0741L1 6.09804V1.58282L8.86842 7.55884L16.7368 1.58282V6.09804Z" stroke="url(#paint1_linear_418_132)" stroke-width="0.7" stroke-linejoin="bevel"/>
<path d="M27.864 1.432H31.368C33.336 1.432 34.32 2.272 34.32 3.952C34.32 5.648 33.332 6.496 31.356 6.496H28.848V10H27.864V1.432ZM28.848 2.284V5.644H31.308C31.988 5.644 32.5 5.504 32.844 5.224C33.172 4.944 33.336 4.52 33.336 3.952C33.336 3.368 33.168 2.952 32.832 2.704C32.504 2.424 31.996 2.284 31.308 2.284H28.848ZM39.7272 3.628C40.0712 3.628 40.3552 3.676 40.5792 3.772V4.732C40.2912 4.644 39.9832 4.6 39.6552 4.6C39.1672 4.6 38.7632 4.812 38.4432 5.236C38.1152 5.636 37.9512 6.128 37.9512 6.712V10H37.0032V3.796H37.9512V4.876C38.1192 4.508 38.3352 4.224 38.5992 4.024C38.9272 3.76 39.3032 3.628 39.7272 3.628ZM45.718 3.628C46.654 3.628 47.394 3.948 47.938 4.588C48.466 5.196 48.73 5.968 48.73 6.904C48.73 7.824 48.47 8.588 47.95 9.196C47.39 9.844 46.646 10.168 45.718 10.168C44.79 10.168 44.05 9.844 43.498 9.196C42.97 8.596 42.706 7.832 42.706 6.904C42.706 5.968 42.97 5.196 43.498 4.588C44.042 3.948 44.782 3.628 45.718 3.628ZM45.718 4.432C45.054 4.432 44.542 4.684 44.182 5.188C43.854 5.636 43.69 6.208 43.69 6.904C43.69 7.592 43.854 8.16 44.182 8.608C44.542 9.112 45.054 9.364 45.718 9.364C46.366 9.364 46.882 9.112 47.266 8.608C47.594 8.144 47.758 7.576 47.758 6.904C47.758 6.224 47.594 5.652 47.266 5.188C46.882 4.684 46.366 4.432 45.718 4.432ZM54.2493 3.628C55.2013 3.628 55.8493 4.02 56.1933 4.804C56.4333 4.388 56.7213 4.092 57.0573 3.916C57.3613 3.724 57.7253 3.628 58.1493 3.628C58.7893 3.628 59.3133 3.832 59.7213 4.24C60.1133 4.672 60.3093 5.236 60.3093 5.932V10H59.3493V6.088C59.3493 5.544 59.2333 5.136 59.0013 4.864C58.7693 4.584 58.3853 4.444 57.8493 4.444C57.4253 4.444 57.0853 4.596 56.8293 4.9C56.5493 5.204 56.4093 5.608 56.4093 6.112V10H55.4493V6.088C55.4493 4.992 54.9733 4.444 54.0213 4.444C53.5733 4.444 53.2093 4.62 52.9293 4.972C52.6413 5.308 52.4973 5.724 52.4973 6.22V10H51.5373V3.796H52.4973V4.624C52.9613 3.96 53.5453 3.628 54.2493 3.628ZM66.3269 3.628C67.2229 3.628 67.9269 3.96 68.4389 4.624C68.9109 5.232 69.1469 5.996 69.1469 6.916C69.1469 7.82 68.9149 8.576 68.4509 9.184C67.9389 9.84 67.2469 10.168 66.3749 10.168C65.4869 10.168 64.8029 9.736 64.3229 8.872V12.376H63.3629V3.796H64.2629V4.816C64.7109 4.024 65.3989 3.628 66.3269 3.628ZM66.2069 4.42C65.5749 4.42 65.0909 4.664 64.7549 5.152C64.4429 5.584 64.2869 6.152 64.2869 6.856V6.976C64.2869 7.704 64.4629 8.284 64.8149 8.716C65.1589 9.156 65.6109 9.376 66.1709 9.376C66.8349 9.376 67.3429 9.144 67.6949 8.68C68.0069 8.248 68.1629 7.66 68.1629 6.916C68.1629 6.188 68.0149 5.604 67.7189 5.164C67.3749 4.668 66.8709 4.42 66.2069 4.42ZM73.6102 1.792V3.796H75.1462V4.6H73.6102V8.548C73.6102 8.788 73.6542 8.952 73.7422 9.04C73.8302 9.144 73.9822 9.196 74.1982 9.196H74.9902V10H74.0542C73.5422 10 73.1782 9.868 72.9622 9.604C72.7622 9.372 72.6622 9.02 72.6622 8.548V4.6H71.4142V3.796H72.6622V2.188L73.6102 1.792ZM79.9758 3.628C81.5038 3.628 82.3518 4.272 82.5198 5.56H81.5838C81.4958 5.16 81.3358 4.88 81.1038 4.72C80.8398 4.528 80.4598 4.432 79.9638 4.432C79.5238 4.432 79.1878 4.512 78.9558 4.672C78.6918 4.824 78.5598 5.04 78.5598 5.32C78.5598 5.592 78.7358 5.816 79.0878 5.992C79.2878 6.088 79.7158 6.224 80.3718 6.4C81.1078 6.576 81.6398 6.768 81.9678 6.976C82.4638 7.288 82.7118 7.712 82.7118 8.248C82.7118 9.528 81.8358 10.168 80.0838 10.168C78.4518 10.168 77.5638 9.452 77.4198 8.02H78.3558C78.4278 8.5 78.5998 8.852 78.8718 9.076C79.1358 9.268 79.5318 9.364 80.0598 9.364C81.1718 9.364 81.7278 9.012 81.7278 8.308C81.7278 7.964 81.5318 7.696 81.1398 7.504C80.9398 7.408 80.4998 7.276 79.8198 7.108C79.0758 6.924 78.5638 6.74 78.2838 6.556C77.8118 6.276 77.5758 5.872 77.5758 5.344C77.5758 4.824 77.8078 4.408 78.2718 4.096C78.7038 3.784 79.2718 3.628 79.9758 3.628ZM91.4705 5.728C91.8705 3.88 92.1505 2.32 92.3105 1.048C92.5265 1.08 92.7585 1.104 93.0065 1.12C95.8385 1.112 98.1425 0.827999 99.9185 0.267999L100.326 0.999999C98.5105 1.52 96.0745 1.804 93.0185 1.852C92.8585 2.804 92.6625 3.816 92.4305 4.888H95.8625V2.584H96.7505V4.888H101.13V5.728H96.7505V9.94C96.7505 10.748 96.3745 11.152 95.6225 11.152H94.0145L93.8345 10.3C94.4105 10.34 94.9065 10.36 95.3225 10.36C95.6825 10.36 95.8625 10.148 95.8625 9.724V5.728H91.4705ZM93.7865 7.024C93.1545 8.448 92.4305 9.668 91.6145 10.684L90.8705 10.156C91.7105 9.164 92.4305 7.996 93.0305 6.652L93.7865 7.024ZM99.1505 6.58C99.9025 7.756 100.598 9.012 101.238 10.348L100.434 10.756C99.7945 9.324 99.1105 8.056 98.3825 6.952L99.1505 6.58ZM109.926 0.124C110.07 0.483999 110.198 0.843999 110.31 1.204H115.062V1.996H104.466V1.204H109.386C109.29 0.932 109.154 0.628 108.978 0.292L109.926 0.124ZM112.134 11.164L111.93 10.384L112.89 10.42C113.386 10.42 113.634 10.228 113.634 9.844V6.58H105.906V11.2H105.078V5.824H114.462V10.024C114.462 10.784 114.022 11.164 113.142 11.164H112.134ZM106.422 2.776H113.13V5.104H106.422V2.776ZM112.29 4.432V3.448H107.262V4.432H112.29ZM107.418 7.348H112.134V9.748H107.418V7.348ZM111.366 9.1V7.996H108.198V9.1H111.366ZM118.362 0.7H121.998V1.384C121.606 2.512 121.17 3.64 120.69 4.768C121.474 5.824 121.894 6.78 121.95 7.636C121.95 8.148 121.826 8.52 121.578 8.752C121.25 9.04 120.666 9.188 119.826 9.196L119.538 8.32C119.794 8.352 119.95 8.368 120.006 8.368C120.43 8.344 120.722 8.28 120.882 8.176C121.034 8.064 121.11 7.884 121.11 7.636C121.11 6.828 120.682 5.916 119.826 4.9C120.378 3.708 120.818 2.58 121.146 1.516H119.202V11.212H118.362V0.7ZM125.454 0.279999C125.454 1.392 125.402 2.48 125.298 3.544C125.994 6.416 127.194 8.688 128.898 10.36L128.274 11.092C126.834 9.564 125.754 7.68 125.034 5.44L124.902 6.064C124.446 8.128 123.378 9.82 121.698 11.14L121.122 10.456C122.586 9.28 123.558 7.8 124.038 6.016C124.406 4.496 124.594 2.584 124.602 0.279999H125.454ZM146.707 0.159999H147.559L143.311 11.2H142.447L146.707 0.159999ZM160.735 1.432H161.815L164.491 8.932H164.527L167.203 1.432H168.283L165.115 10H163.903L160.735 1.432ZM173.499 1.264C174.523 1.264 175.295 1.716 175.815 2.62C176.271 3.388 176.499 4.42 176.499 5.716C176.499 7.012 176.271 8.044 175.815 8.812C175.287 9.716 174.515 10.168 173.499 10.168C172.475 10.168 171.703 9.716 171.183 8.812C170.727 8.044 170.499 7.012 170.499 5.716C170.499 4.42 170.727 3.388 171.183 2.62C171.695 1.716 172.467 1.264 173.499 1.264ZM173.499 2.104C172.731 2.104 172.179 2.516 171.843 3.34C171.603 3.916 171.483 4.708 171.483 5.716C171.483 6.708 171.603 7.5 171.843 8.092C172.179 8.916 172.731 9.328 173.499 9.328C174.267 9.328 174.819 8.916 175.155 8.092C175.403 7.484 175.527 6.692 175.527 5.716C175.527 4.724 175.403 3.932 175.155 3.34C174.819 2.516 174.267 2.104 173.499 2.104ZM180.238 8.572C180.446 8.572 180.618 8.64 180.754 8.776C180.898 8.904 180.97 9.072 180.97 9.28C180.97 9.488 180.898 9.66 180.754 9.796C180.602 9.932 180.43 10 180.238 10C180.046 10 179.874 9.932 179.722 9.796C179.578 9.652 179.506 9.48 179.506 9.28C179.506 9.072 179.578 8.904 179.722 8.776C179.858 8.64 180.03 8.572 180.238 8.572ZM186.978 1.264C188.002 1.264 188.774 1.716 189.294 2.62C189.75 3.388 189.978 4.42 189.978 5.716C189.978 7.012 189.75 8.044 189.294 8.812C188.766 9.716 187.994 10.168 186.978 10.168C185.954 10.168 185.182 9.716 184.662 8.812C184.206 8.044 183.978 7.012 183.978 5.716C183.978 4.42 184.206 3.388 184.662 2.62C185.174 1.716 185.946 1.264 186.978 1.264ZM186.978 2.104C186.21 2.104 185.658 2.516 185.322 3.34C185.082 3.916 184.962 4.708 184.962 5.716C184.962 6.708 185.082 7.5 185.322 8.092C185.658 8.916 186.21 9.328 186.978 9.328C187.746 9.328 188.298 8.916 188.634 8.092C188.882 7.484 189.006 6.692 189.006 5.716C189.006 4.724 188.882 3.932 188.634 3.34C188.298 2.516 187.746 2.104 186.978 2.104ZM193.718 8.572C193.926 8.572 194.098 8.64 194.234 8.776C194.378 8.904 194.45 9.072 194.45 9.28C194.45 9.488 194.378 9.66 194.234 9.796C194.082 9.932 193.91 10 193.718 10C193.526 10 193.354 9.932 193.202 9.796C193.058 9.652 192.986 9.48 192.986 9.28C192.986 9.072 193.058 8.904 193.202 8.776C193.338 8.64 193.51 8.572 193.718 8.572ZM201.19 1.432V10H200.206V2.632C199.678 3.176 199.006 3.568 198.19 3.808V2.824C198.566 2.72 198.966 2.544 199.39 2.296C199.782 2.056 200.126 1.768 200.422 1.432H201.19Z" fill="#1C1E21"/>
<defs>
<linearGradient id="paint0_linear_418_132" x1="11.3397" y1="2.9441" x2="6.39087" y2="2.10473" gradientUnits="userSpaceOnUse">
<stop stop-color="#FF8F37"/>
<stop offset="1" stop-color="#0DFAFA"/>
</linearGradient>
<linearGradient id="paint1_linear_418_132" x1="16.2822" y1="10.3313" x2="1.20152" y2="8.62603" gradientUnits="userSpaceOnUse">
<stop stop-color="#FF8F37"/>
<stop offset="1" stop-color="#0DFAFA"/>
</linearGradient>
</defs>
</svg>
