<svg width="18" height="18" viewBox="0 0 18 18" fill="none" xmlns="http://www.w3.org/2000/svg">
<mask id="path-1-outside-1_334_344" maskUnits="userSpaceOnUse" x="-4.41428" y="-4.41421" width="26.8701" height="26.8701" fill="black">
<rect fill="white" x="-4.41428" y="-4.41421" width="26.8701" height="26.8701"/>
<path fill-rule="evenodd" clip-rule="evenodd" d="M11.1421 9.02082L16.0918 4.07107L13.9705 1.94975L9.02075 6.89949L4.071 1.94975L1.94968 4.07107L6.89943 9.02082L1.94968 13.9706L4.071 16.0919L9.02075 11.1421L13.9705 16.0919L16.0918 13.9706L11.1421 9.02082Z"/>
</mask>
<path fill-rule="evenodd" clip-rule="evenodd" d="M11.1421 9.02082L16.0918 4.07107L13.9705 1.94975L9.02075 6.89949L4.071 1.94975L1.94968 4.07107L6.89943 9.02082L1.94968 13.9706L4.071 16.0919L9.02075 11.1421L13.9705 16.0919L16.0918 13.9706L11.1421 9.02082Z" fill="black"/>
<path d="M16.0918 4.07107L16.7989 4.77817L17.506 4.07107L16.7989 3.36396L16.0918 4.07107ZM11.1421 9.02082L10.435 8.31371L9.72786 9.02082L10.435 9.72792L11.1421 9.02082ZM13.9705 1.94975L14.6776 1.24264L13.9705 0.535534L13.2634 1.24264L13.9705 1.94975ZM9.02075 6.89949L8.31365 7.6066L9.02075 8.31371L9.72786 7.6066L9.02075 6.89949ZM4.071 1.94975L4.77811 1.24264L4.071 0.535534L3.3639 1.24264L4.071 1.94975ZM1.94968 4.07107L1.24258 3.36396L0.535471 4.07107L1.24258 4.77817L1.94968 4.07107ZM6.89943 9.02082L7.60654 9.72792L8.31365 9.02082L7.60654 8.31371L6.89943 9.02082ZM1.94968 13.9706L1.24258 13.2635L0.535471 13.9706L1.24258 14.6777L1.94968 13.9706ZM4.071 16.0919L3.3639 16.799L4.071 17.5061L4.77811 16.799L4.071 16.0919ZM9.02075 11.1421L9.72786 10.435L9.02075 9.72792L8.31365 10.435L9.02075 11.1421ZM13.9705 16.0919L13.2634 16.799L13.9705 17.5061L14.6776 16.799L13.9705 16.0919ZM16.0918 13.9706L16.7989 14.6777L17.506 13.9706L16.7989 13.2635L16.0918 13.9706ZM15.3847 3.36396L10.435 8.31371L11.8492 9.72792L16.7989 4.77817L15.3847 3.36396ZM13.2634 2.65685L15.3847 4.77817L16.7989 3.36396L14.6776 1.24264L13.2634 2.65685ZM9.72786 7.6066L14.6776 2.65685L13.2634 1.24264L8.31365 6.19239L9.72786 7.6066ZM3.3639 2.65685L8.31365 7.6066L9.72786 6.19239L4.77811 1.24264L3.3639 2.65685ZM2.65679 4.77817L4.77811 2.65685L3.3639 1.24264L1.24258 3.36396L2.65679 4.77817ZM7.60654 8.31371L2.65679 3.36396L1.24258 4.77817L6.19232 9.72792L7.60654 8.31371ZM2.65679 14.6777L7.60654 9.72792L6.19232 8.31371L1.24258 13.2635L2.65679 14.6777ZM4.77811 15.3848L2.65679 13.2635L1.24258 14.6777L3.3639 16.799L4.77811 15.3848ZM8.31365 10.435L3.3639 15.3848L4.77811 16.799L9.72786 11.8492L8.31365 10.435ZM14.6776 15.3848L9.72786 10.435L8.31365 11.8492L13.2634 16.799L14.6776 15.3848ZM15.3847 13.2635L13.2634 15.3848L14.6776 16.799L16.7989 14.6777L15.3847 13.2635ZM10.435 9.72792L15.3847 14.6777L16.7989 13.2635L11.8492 8.31371L10.435 9.72792Z" fill="white" mask="url(#path-1-outside-1_334_344)"/>
</svg>
