<svg width="46" height="46" viewBox="0 0 46 46" fill="none" xmlns="http://www.w3.org/2000/svg">
<path d="M4.62547 2.00018L38.2584 2.00018C39.2673 2.00018 40.2087 2.50735 40.7637 3.34994L43.2217 7.08154C43.5444 7.57143 43.7164 8.14517 43.7164 8.73179L43.7164 40.8903C43.7164 42.5472 42.3732 43.8903 40.7164 43.8903L7.16272 43.8903C6.20627 43.8903 5.30715 43.4343 4.74214 42.6626L2.20489 39.1971C1.82842 38.6829 1.62547 38.0621 1.62547 37.4249L1.62547 5.00018C1.62547 3.34333 2.96862 2.00018 4.62547 2.00018Z" fill="#D3D3D3" stroke="#1C1E21" stroke-width="3" stroke-linejoin="round"/>
<path d="M5.81498 39.7734L5.81498 7.48486M5.81498 7.48486L4.36377 4.4364M5.81498 7.48486L40.9347 7.48486" stroke="#1C1E21" stroke-linecap="round" stroke-linejoin="round"/>
<path d="M28.6953 19.7992L26.5876 15.5285C25.854 14.042 23.7343 14.042 23.0007 15.5285L20.893 19.7992L16.18 20.484C14.5396 20.7224 13.8845 22.7383 15.0716 23.8954L18.4819 27.2196L17.6768 31.9136C17.3966 33.5474 19.1115 34.7933 20.5787 34.0219L24.7942 31.8058L29.0096 34.0219C30.4768 34.7933 32.1917 33.5474 31.9115 31.9136L31.1064 27.2196L34.5167 23.8954C35.7038 22.7383 35.0487 20.7224 33.4083 20.484L28.6953 19.7992Z" stroke="black" stroke-width="2"/>
</svg>
