<svg width="90" height="46" viewBox="0 0 90 46" fill="none" xmlns="http://www.w3.org/2000/svg">
<path d="M85.1494 43.8901L7.45799 43.8901C6.44904 43.8901 5.50766 43.383 4.95266 42.5404L2.49467 38.8088C2.17198 38.3189 2 37.7451 2 37.1585L2 4.99999C2 3.34314 3.34315 1.99999 5 1.99999L82.6122 1.99999C83.5686 1.99999 84.4677 2.45604 85.0328 3.22776L87.57 6.69323C87.9465 7.20744 88.1494 7.82817 88.1494 8.46546L88.1494 40.8901C88.1494 42.547 86.8063 43.8901 85.1494 43.8901Z" fill="#D3D3D3" stroke="#1C1E21" stroke-width="3" stroke-linejoin="round"/>
<path d="M6.18949 39.7731L6.18949 7.4845M6.18949 7.4845L4.73828 4.43604M6.18949 7.4845L82.4522 7.4845" stroke="#1C1E21" stroke-linecap="round" stroke-linejoin="round"/>
<path d="M48.9772 21.8318C48.7425 22.2158 48.4865 22.5838 48.2092 22.9358H57.6172V27.9918H51.2812C51.0892 28.3011 50.8225 28.6638 50.4812 29.0798H57.6492V29.9118C56.8598 30.9145 55.8038 31.7571 54.4812 32.4398C56.0172 32.8878 57.7345 33.1438 59.6332 33.2078L59.3612 34.2638C56.9932 34.1465 54.9078 33.7411 53.1052 33.0478C51.2492 33.7411 48.9665 34.1678 46.2572 34.3278L45.7932 33.3198C48.1185 33.2238 50.1025 32.9358 51.7452 32.4558C50.6572 31.9225 49.6812 31.2825 48.8172 30.5358C48.1238 31.0051 47.3772 31.4265 46.5772 31.7998L45.9852 30.8238C47.8198 30.0878 49.1692 29.1438 50.0332 27.9918H47.9852V23.2078C47.4198 23.8585 46.8012 24.4345 46.1292 24.9358L45.4412 24.0398C47.0945 22.7918 48.2145 21.2771 48.8012 19.4958L49.9372 19.6878C49.7985 20.0931 49.6545 20.4718 49.5052 20.8238H58.8652V21.8318H48.9772ZM53.1212 31.9918C54.4118 31.4585 55.4465 30.8025 56.2252 30.0238H49.6492C50.6838 30.8238 51.8412 31.4798 53.1212 31.9918ZM56.4972 27.0638V25.8798H49.1212V27.0638H56.4972ZM49.1212 25.0158H56.4972V23.8478H49.1212V25.0158ZM66.2252 22.7438C65.9372 23.3838 65.6012 23.9118 65.2172 24.3278L64.2892 23.6558C65.0892 22.7918 65.6012 21.6025 65.8252 20.0878L66.9132 20.2638C66.8278 20.8078 66.7265 21.2771 66.6092 21.6718H68.4652V19.6878H69.6172V21.6718H72.6092V22.7438H69.6172V24.8078H73.0732V25.8798H69.6172V27.5598H72.7372V31.7838C72.7372 32.7331 72.2572 33.2078 71.2972 33.2078H70.4492L70.1612 32.1198L70.9452 32.1678C71.4038 32.1678 71.6332 31.9598 71.6332 31.5438V28.6318H69.6172V34.3278H68.4652V28.6318H66.4332V33.3198H65.3132V27.5598H68.4652V25.8798H64.5932V24.8078H68.4652V22.7438H66.2252ZM74.0172 21.1278H75.1372V31.0158H74.0172V21.1278ZM74.5932 34.1678L74.3372 33.0638C75.1905 33.1171 75.9265 33.1438 76.5452 33.1438C77.0358 33.1438 77.2812 32.8878 77.2812 32.3758V19.6878H78.4172V32.6638C78.4172 33.6665 77.9265 34.1678 76.9452 34.1678H74.5932Z" fill="#1C1E21"/>
<rect x="19.9907" y="18.4713" width="16.4329" height="17.1926" rx="3" stroke="#1C1E21" stroke-width="2"/>
<rect x="11.6348" y="10.8751" width="21.7503" height="21.7503" rx="3" stroke="#D3D3D3" stroke-width="2"/>
<path d="M29.6254 14.6732H18.4329C16.776 14.6732 15.4329 16.0163 15.4329 17.6732V28.8657C15.4329 30.5226 16.776 31.8657 18.4329 31.8657H29.6254C31.2823 31.8657 32.6254 30.5226 32.6254 28.8657V17.6732C32.6254 16.0163 31.2823 14.6732 29.6254 14.6732Z" stroke="#1C1E21" stroke-width="2"/>
</svg>
