<svg width="46" height="46" viewBox="0 0 46 46" fill="none" xmlns="http://www.w3.org/2000/svg">
<path d="M4.99998 1.99994L38.6329 1.99994C39.6419 1.99994 40.5832 2.50711 41.1382 3.34969L43.5962 7.0813C43.9189 7.57119 44.0909 8.14493 44.0909 8.73154L44.0909 40.8901C44.0909 42.5469 42.7477 43.8901 41.0909 43.8901L7.53723 43.8901C6.58078 43.8901 5.68166 43.434 5.11665 42.6623L2.5794 39.1968C2.20293 38.6826 1.99998 38.0619 1.99998 37.4246L1.99998 4.99994C1.99998 3.34309 3.34313 1.99994 4.99998 1.99994Z" fill="#D3D3D3" stroke="#1C1E21" stroke-width="3" stroke-linejoin="round"/>
<path d="M6.18949 39.7732L6.18949 7.48462M6.18949 7.48462L4.73828 4.43616M6.18949 7.48462L41.3092 7.48462" stroke="#1C1E21" stroke-linecap="round" stroke-linejoin="round"/>
<path d="M19.4664 15.6733L29.6279 15.6733" stroke="black" stroke-width="2" stroke-linecap="round"/>
<path d="M16.1926 19.0682L33.3792 19.0682" stroke="black" stroke-width="2" stroke-linecap="round"/>
<path d="M17.2839 18.9469L18.5011 34.2016C18.584 35.2412 19.4518 36.0426 20.4947 36.0426H29.1064C30.1372 36.0426 30.9991 35.2592 31.0973 34.2332L32.5609 18.9469" stroke="black" stroke-width="2"/>
<path d="M28.8756 22.5099L28.0572 30.1484" stroke="black" stroke-width="2" stroke-linecap="round"/>
</svg>
