<svg width="54" height="54" viewBox="0 0 54 54" fill="none" xmlns="http://www.w3.org/2000/svg">
<g filter="url(#filter0_d_419_6)">
<path d="M48.2013 44L9.85181 44L6 38.1524L6 2.00001L44.1752 2.00001L48.2013 7.49903L48.2013 44Z" fill="#D3D3D3" stroke="#1C1E21" stroke-width="3" stroke-linejoin="round"/>
<path d="M10.2004 39.8722L10.2004 7.49898M10.2004 7.49898L8.74536 4.44252M10.2004 7.49898L45.4122 7.49898" stroke="#1C1E21" stroke-linecap="round" stroke-linejoin="round"/>
<rect x="26.4452" y="25.9749" width="1.90405" height="12.5667" rx="0.952026" transform="rotate(47.0535 26.4452 25.9749)" stroke="black" stroke-width="1.90405"/>
<mask id="path-4-inside-1_419_6" fill="white">
<path fill-rule="evenodd" clip-rule="evenodd" d="M40.5358 22.5308C41.3443 21.7783 41.3897 20.5128 40.6371 19.7042L35.4111 14.0895C34.6585 13.281 33.393 13.2356 32.5845 13.9882L27.5707 18.6549C27.1824 19.0162 26.6665 19.2086 26.1364 19.1896L22.9393 19.075C21.1587 19.0111 20.1897 21.132 21.4037 22.4363L31.3087 33.078C32.5227 34.3823 34.7075 33.5677 34.7714 31.7871L34.886 28.5897C34.905 28.0596 35.1338 27.5588 35.5221 27.1974L40.5358 22.5308Z"/>
</mask>
<path fill-rule="evenodd" clip-rule="evenodd" d="M40.5358 22.5308C41.3443 21.7783 41.3897 20.5128 40.6371 19.7042L35.4111 14.0895C34.6585 13.281 33.393 13.2356 32.5845 13.9882L27.5707 18.6549C27.1824 19.0162 26.6665 19.2086 26.1364 19.1896L22.9393 19.075C21.1587 19.0111 20.1897 21.132 21.4037 22.4363L31.3087 33.078C32.5227 34.3823 34.7075 33.5677 34.7714 31.7871L34.886 28.5897C34.905 28.0596 35.1338 27.5588 35.5221 27.1974L40.5358 22.5308Z" fill="#D3D3D3"/>
<path d="M34.886 28.5897L36.8847 28.6614L34.886 28.5897ZM21.4037 22.4363L19.9397 23.7989L21.4037 22.4363ZM26.1364 19.1896L26.0647 21.1883L26.1364 19.1896ZM33.9471 15.4521L39.1731 21.0669L42.1011 18.3416L36.8751 12.7269L33.9471 15.4521ZM28.9333 20.1188L33.9471 15.4521L31.2219 12.5242L26.2081 17.1909L28.9333 20.1188ZM22.8677 21.0737L26.0647 21.1883L26.2081 17.1909L23.011 17.0762L22.8677 21.0737ZM32.7727 31.7154L22.8677 21.0737L19.9397 23.7989L29.8447 34.4407L32.7727 31.7154ZM32.8873 28.5181L32.7727 31.7154L36.7701 31.8587L36.8847 28.6614L32.8873 28.5181ZM39.1731 21.0669L34.1595 25.7334L36.8847 28.6614L41.8984 23.9948L39.1731 21.0669ZM36.8847 28.6614L34.1595 25.7334C33.3829 26.4562 32.9253 27.4579 32.8873 28.5181L36.8847 28.6614ZM29.8447 34.4407C32.2727 37.0492 36.6424 35.4201 36.7701 31.8587L32.7727 31.7154L29.8447 34.4407ZM23.011 17.0762C19.4497 16.9486 17.5117 21.1904 19.9397 23.7989L22.8677 21.0737L22.8677 21.0737L23.011 17.0762ZM26.2081 17.1909L26.2081 17.1909L26.0647 21.1883C27.1249 21.2263 28.1568 20.8416 28.9333 20.1188L26.2081 17.1909ZM39.1731 21.0669L39.1731 21.0669L41.8984 23.9948C43.5155 22.4897 43.6062 19.9587 42.1011 18.3416L39.1731 21.0669ZM36.8751 12.7269C35.37 11.1098 32.8389 11.0191 31.2219 12.5242L33.9471 15.4521L33.9471 15.4521L36.8751 12.7269Z" fill="black" mask="url(#path-4-inside-1_419_6)"/>
</g>
<defs>
<filter id="filter0_d_419_6" x="0.5" y="0.5" width="53.2014" height="53" filterUnits="userSpaceOnUse" color-interpolation-filters="sRGB">
<feFlood flood-opacity="0" result="BackgroundImageFix"/>
<feColorMatrix in="SourceAlpha" type="matrix" values="0 0 0 0 0 0 0 0 0 0 0 0 0 0 0 0 0 0 127 0" result="hardAlpha"/>
<feOffset dy="4"/>
<feGaussianBlur stdDeviation="2"/>
<feComposite in2="hardAlpha" operator="out"/>
<feColorMatrix type="matrix" values="0 0 0 0 0 0 0 0 0 0 0 0 0 0 0 0 0 0 0.25 0"/>
<feBlend mode="normal" in2="BackgroundImageFix" result="effect1_dropShadow_419_6"/>
<feBlend mode="normal" in="SourceGraphic" in2="effect1_dropShadow_419_6" result="shape"/>
</filter>
</defs>
</svg>
