<svg width="46" height="46" viewBox="0 0 46 46" fill="none" xmlns="http://www.w3.org/2000/svg">
<path d="M4.99998 1.99994L38.633 1.99994C39.6419 1.99994 40.5833 2.50711 41.1383 3.34969L43.5963 7.0813C43.919 7.57119 44.0909 8.14493 44.0909 8.73155L44.0909 40.8901C44.0909 42.5469 42.7478 43.8901 41.0909 43.8901L7.53723 43.8901C6.58079 43.8901 5.68166 43.434 5.11665 42.6623L2.5794 39.1968C2.20293 38.6826 1.99998 38.0619 1.99998 37.4246L1.99998 4.99994C1.99998 3.34309 3.34312 1.99994 4.99998 1.99994Z" fill="#D3D3D3" stroke="#1C1E21" stroke-width="3" stroke-linejoin="round"/>
<path d="M6.18949 39.7732L6.18949 7.48465M6.18949 7.48465L4.73828 4.43619M6.18949 7.48465L41.3092 7.48465" stroke="#1C1E21" stroke-linecap="round" stroke-linejoin="round"/>
<mask id="path-3-outside-1_401_37" maskUnits="userSpaceOnUse" x="11" y="11" width="28" height="28" fill="black">
<rect fill="white" x="11" y="11" width="28" height="28"/>
<path fill-rule="evenodd" clip-rule="evenodd" d="M26.4127 14.5C26.4127 13.6716 25.7411 13 24.9127 13C24.0843 13 23.4127 13.6716 23.4127 14.5V16.6904L22.0988 15.3765C21.5131 14.7908 20.5633 14.7908 19.9775 15.3765C19.3917 15.9623 19.3917 16.9121 19.9775 17.4979L23.4127 20.933V23.4127H20.933L17.4978 19.9775C16.9121 19.3918 15.9623 19.3918 15.3765 19.9775C14.7907 20.5633 14.7907 21.5131 15.3765 22.0989L16.6904 23.4127H14.5C13.6716 23.4127 13 24.0843 13 24.9127C13 25.7412 13.6716 26.4127 14.5 26.4127H16.6903L15.3765 27.7265C14.7907 28.3123 14.7907 29.262 15.3765 29.8478C15.9623 30.4336 16.9121 30.4336 17.4978 29.8478L20.9329 26.4127H23.4127V28.8923L19.9776 32.3274C19.3918 32.9132 19.3918 33.8629 19.9776 34.4487C20.5633 35.0345 21.5131 35.0345 22.0989 34.4487L23.4127 33.1349V35.3253C23.4127 36.1537 24.0843 36.8253 24.9127 36.8253C25.7411 36.8253 26.4127 36.1537 26.4127 35.3253V33.1349L27.7265 34.4487C28.3123 35.0345 29.262 35.0345 29.8478 34.4487C30.4336 33.8629 30.4336 32.9132 29.8478 32.3274L26.4127 28.8923V26.4127H28.8922L32.3273 29.8478C32.913 30.4336 33.8628 30.4336 34.4486 29.8478C35.0344 29.262 35.0344 28.3123 34.4486 27.7265L33.1348 26.4127H35.3253C36.1537 26.4127 36.8253 25.7412 36.8253 24.9127C36.8253 24.0843 36.1537 23.4127 35.3253 23.4127H33.1347L34.4486 22.0989C35.0344 21.5131 35.0344 20.5633 34.4486 19.9775C33.8628 19.3918 32.913 19.3918 32.3273 19.9775L28.8921 23.4127H26.4127V20.933L29.8478 17.4979C30.4336 16.9121 30.4336 15.9624 29.8478 15.3766C29.262 14.7908 28.3122 14.7908 27.7265 15.3766L26.4127 16.6904V14.5Z"/>
</mask>
<path d="M23.4127 16.6904L21.9985 18.1046L25.4127 21.5188V16.6904H23.4127ZM22.0988 15.3765L20.6846 16.7908L20.6846 16.7908L22.0988 15.3765ZM19.9775 15.3765L18.5633 13.9623L18.5633 13.9623L19.9775 15.3765ZM19.9775 17.4979L18.5633 18.9121V18.9121L19.9775 17.4979ZM23.4127 20.933H25.4127V20.1046L24.8269 19.5188L23.4127 20.933ZM23.4127 23.4127V25.4127H25.4127V23.4127H23.4127ZM20.933 23.4127L19.5188 24.8269L20.1046 25.4127H20.933V23.4127ZM17.4978 19.9775L16.0836 21.3918L16.0836 21.3918L17.4978 19.9775ZM15.3765 22.0989L16.7907 20.6846L16.7907 20.6846L15.3765 22.0989ZM16.6904 23.4127V25.4127H21.5188L18.1046 21.9985L16.6904 23.4127ZM16.6903 26.4127L18.1045 27.8269L21.5187 24.4127H16.6903V26.4127ZM15.3765 27.7265L16.7907 29.1407L16.7907 29.1407L15.3765 27.7265ZM15.3765 29.8478L13.9623 31.262H13.9623L15.3765 29.8478ZM17.4978 29.8478L16.0836 28.4336L16.0836 28.4336L17.4978 29.8478ZM20.9329 26.4127V24.4127H20.1045L19.5187 24.9985L20.9329 26.4127ZM23.4127 26.4127H25.4127V24.4127H23.4127V26.4127ZM23.4127 28.8923L24.8269 30.3065L25.4127 29.7207V28.8923H23.4127ZM19.9776 32.3274L21.3918 33.7416L21.3918 33.7416L19.9776 32.3274ZM19.9776 34.4487L21.3918 33.0345L21.3918 33.0345L19.9776 34.4487ZM22.0989 34.4487L23.5131 35.8629L23.5131 35.8629L22.0989 34.4487ZM23.4127 33.1349H25.4127V28.3065L21.9985 31.7207L23.4127 33.1349ZM26.4127 33.1349L27.8269 31.7207L24.4127 28.3065V33.1349H26.4127ZM27.7265 34.4487L26.3123 35.8629L27.7265 34.4487ZM29.8478 34.4487L31.262 35.8629L31.262 35.8629L29.8478 34.4487ZM29.8478 32.3274L28.4336 33.7416L28.4336 33.7416L29.8478 32.3274ZM26.4127 28.8923H24.4127V29.7207L24.9985 30.3065L26.4127 28.8923ZM26.4127 26.4127V24.4127H24.4127V26.4127H26.4127ZM28.8922 26.4127L30.3064 24.9985L29.7206 24.4127H28.8922V26.4127ZM32.3273 29.8478L30.913 31.262L32.3273 29.8478ZM34.4486 29.8478L33.0344 28.4336L33.0344 28.4336L34.4486 29.8478ZM34.4486 27.7265L33.0344 29.1407L33.0344 29.1407L34.4486 27.7265ZM33.1348 26.4127V24.4127H28.3064L31.7206 27.8269L33.1348 26.4127ZM33.1347 23.4127L31.7205 21.9985L28.3063 25.4127H33.1347V23.4127ZM34.4486 22.0989L33.0344 20.6846L33.0344 20.6847L34.4486 22.0989ZM32.3273 19.9775L30.913 18.5633L30.913 18.5633L32.3273 19.9775ZM28.8921 23.4127V25.4127H29.7205L30.3063 24.8269L28.8921 23.4127ZM26.4127 23.4127H24.4127V25.4127H26.4127V23.4127ZM26.4127 20.933L24.9985 19.5188L24.4127 20.1046V20.933H26.4127ZM29.8478 17.4979L28.4336 16.0837V16.0837L29.8478 17.4979ZM27.7265 15.3766L29.1407 16.7908L29.1407 16.7908L27.7265 15.3766ZM26.4127 16.6904H24.4127V21.5188L27.8269 18.1046L26.4127 16.6904ZM24.9127 15C24.6365 15 24.4127 14.7761 24.4127 14.5H28.4127C28.4127 12.567 26.8457 11 24.9127 11V15ZM25.4127 14.5C25.4127 14.7761 25.1888 15 24.9127 15V11C22.9797 11 21.4127 12.567 21.4127 14.5H25.4127ZM25.4127 16.6904V14.5H21.4127V16.6904H25.4127ZM20.6846 16.7908L21.9985 18.1046L24.8269 15.2762L23.5131 13.9623L20.6846 16.7908ZM21.3917 16.7908C21.1965 16.986 20.8799 16.986 20.6846 16.7908L23.5131 13.9623C22.1462 12.5955 19.9301 12.5955 18.5633 13.9623L21.3917 16.7908ZM21.3917 16.0836C21.587 16.2789 21.587 16.5955 21.3917 16.7908L18.5633 13.9623C17.1965 15.3292 17.1965 17.5452 18.5633 18.9121L21.3917 16.0836ZM24.8269 19.5188L21.3917 16.0836L18.5633 18.9121L21.9985 22.3472L24.8269 19.5188ZM25.4127 23.4127V20.933H21.4127V23.4127H25.4127ZM20.933 25.4127H23.4127V21.4127H20.933V25.4127ZM16.0836 21.3918L19.5188 24.8269L22.3472 21.9985L18.9121 18.5633L16.0836 21.3918ZM16.7907 21.3918C16.5955 21.587 16.2789 21.587 16.0836 21.3918L18.9121 18.5633C17.5452 17.1965 15.3291 17.1965 13.9623 18.5633L16.7907 21.3918ZM16.7907 20.6846C16.986 20.8799 16.986 21.1965 16.7907 21.3918L13.9623 18.5633C12.5955 19.9302 12.5955 22.1462 13.9623 23.5131L16.7907 20.6846ZM18.1046 21.9985L16.7907 20.6846L13.9623 23.5131L15.2762 24.8269L18.1046 21.9985ZM14.5 25.4127H16.6904V21.4127H14.5V25.4127ZM15 24.9127C15 25.1889 14.7761 25.4127 14.5 25.4127V21.4127C12.567 21.4127 11 22.9797 11 24.9127H15ZM14.5 24.4127C14.7761 24.4127 15 24.6366 15 24.9127H11C11 26.8457 12.567 28.4127 14.5 28.4127V24.4127ZM16.6903 24.4127H14.5V28.4127H16.6903V24.4127ZM16.7907 29.1407L18.1045 27.8269L15.2761 24.9985L13.9623 26.3123L16.7907 29.1407ZM16.7907 28.4336C16.986 28.6289 16.986 28.9454 16.7907 29.1407L13.9623 26.3123C12.5955 27.6791 12.5955 29.8952 13.9623 31.262L16.7907 28.4336ZM16.0836 28.4336C16.2789 28.2383 16.5955 28.2383 16.7907 28.4336L13.9623 31.262C15.3291 32.6289 17.5452 32.6289 18.9121 31.262L16.0836 28.4336ZM19.5187 24.9985L16.0836 28.4336L18.9121 31.262L22.3471 27.8269L19.5187 24.9985ZM23.4127 24.4127H20.9329V28.4127H23.4127V24.4127ZM25.4127 28.8923V26.4127H21.4127V28.8923H25.4127ZM21.3918 33.7416L24.8269 30.3065L21.9985 27.4781L18.5633 30.9132L21.3918 33.7416ZM21.3918 33.0345C21.587 33.2298 21.587 33.5464 21.3918 33.7416L18.5633 30.9132C17.1965 32.28 17.1965 34.4961 18.5633 35.8629L21.3918 33.0345ZM20.6847 33.0345C20.8799 32.8393 21.1965 32.8393 21.3918 33.0345L18.5633 35.8629C19.9302 37.2298 22.1463 37.2298 23.5131 35.8629L20.6847 33.0345ZM21.9985 31.7207L20.6847 33.0345L23.5131 35.8629L24.8269 34.5491L21.9985 31.7207ZM25.4127 35.3253V33.1349H21.4127V35.3253H25.4127ZM24.9127 34.8253C25.1888 34.8253 25.4127 35.0491 25.4127 35.3253H21.4127C21.4127 37.2583 22.9797 38.8253 24.9127 38.8253V34.8253ZM24.4127 35.3253C24.4127 35.0491 24.6365 34.8253 24.9127 34.8253V38.8253C26.8457 38.8253 28.4127 37.2583 28.4127 35.3253H24.4127ZM24.4127 33.1349V35.3253H28.4127V33.1349H24.4127ZM29.1407 33.0345L27.8269 31.7207L24.9985 34.5491L26.3123 35.8629L29.1407 33.0345ZM28.4336 33.0345C28.6289 32.8393 28.9454 32.8392 29.1407 33.0345L26.3123 35.8629C27.6791 37.2298 29.8952 37.2298 31.262 35.8629L28.4336 33.0345ZM28.4336 33.7416C28.2383 33.5464 28.2383 33.2298 28.4336 33.0345L31.262 35.8629C32.6289 34.4961 32.6289 32.28 31.262 30.9132L28.4336 33.7416ZM24.9985 30.3065L28.4336 33.7416L31.262 30.9132L27.8269 27.4781L24.9985 30.3065ZM24.4127 26.4127V28.8923H28.4127V26.4127H24.4127ZM28.8922 24.4127H26.4127V28.4127H28.8922V24.4127ZM33.7415 28.4336L30.3064 24.9985L27.478 27.8269L30.913 31.262L33.7415 28.4336ZM33.0344 28.4336C33.2296 28.2383 33.5462 28.2383 33.7415 28.4336L30.913 31.262C32.2799 32.6288 34.496 32.6288 35.8628 31.262L33.0344 28.4336ZM33.0344 29.1407C32.8391 28.9454 32.8391 28.6288 33.0344 28.4336L35.8628 31.262C37.2296 29.8952 37.2296 27.6791 35.8628 26.3123L33.0344 29.1407ZM31.7206 27.8269L33.0344 29.1407L35.8628 26.3123L34.549 24.9985L31.7206 27.8269ZM35.3253 24.4127H33.1348V28.4127H35.3253V24.4127ZM34.8253 24.9127C34.8253 24.6366 35.0491 24.4127 35.3253 24.4127V28.4127C37.2583 28.4127 38.8253 26.8457 38.8253 24.9127H34.8253ZM35.3253 25.4127C35.0491 25.4127 34.8253 25.1889 34.8253 24.9127H38.8253C38.8253 22.9797 37.2583 21.4127 35.3253 21.4127V25.4127ZM33.1347 25.4127H35.3253V21.4127H33.1347V25.4127ZM34.5489 24.8269L35.8628 23.5131L33.0344 20.6847L31.7205 21.9985L34.5489 24.8269ZM35.8628 23.5131C37.2296 22.1462 37.2296 19.9302 35.8628 18.5633L33.0344 21.3918C32.8391 21.1965 32.8391 20.8799 33.0344 20.6846L35.8628 23.5131ZM35.8628 18.5633C34.496 17.1965 32.2799 17.1965 30.913 18.5633L33.7415 21.3918C33.5462 21.587 33.2296 21.587 33.0344 21.3918L35.8628 18.5633ZM30.913 18.5633L27.4779 21.9985L30.3063 24.8269L33.7415 21.3918L30.913 18.5633ZM26.4127 25.4127H28.8921V21.4127H26.4127V25.4127ZM24.4127 20.933V23.4127H28.4127V20.933H24.4127ZM28.4336 16.0837L24.9985 19.5188L27.8269 22.3472L31.262 18.9121L28.4336 16.0837ZM28.4336 16.7908C28.2383 16.5955 28.2383 16.279 28.4336 16.0837L31.262 18.9121C32.6288 17.5453 32.6288 15.3292 31.262 13.9624L28.4336 16.7908ZM29.1407 16.7908C28.9454 16.9861 28.6288 16.9861 28.4336 16.7908L31.262 13.9624C29.8952 12.5955 27.6791 12.5955 26.3122 13.9624L29.1407 16.7908ZM27.8269 18.1046L29.1407 16.7908L26.3122 13.9624L24.9985 15.2761L27.8269 18.1046ZM24.4127 14.5V16.6904H28.4127V14.5H24.4127Z" fill="#1C1E21" mask="url(#path-3-outside-1_401_37)"/>
</svg>
