<svg width="46" height="46" viewBox="0 0 46 46" fill="none" xmlns="http://www.w3.org/2000/svg">
<path d="M44.2013 44L5.85181 44L2 38.1524L2 2.00001L40.1752 2.00001L44.2013 7.49903L44.2013 44Z" fill="#D3D3D3" stroke="#1C1E21" stroke-width="3" stroke-linejoin="round"/>
<path d="M6.20038 39.8722L6.20038 7.49898M6.20038 7.49898L4.74536 4.44252M6.20038 7.49898L41.4122 7.49898" stroke="#1C1E21" stroke-linecap="round" stroke-linejoin="round"/>
<rect x="22.4452" y="25.9749" width="1.90405" height="12.5667" rx="0.952026" transform="rotate(47.0535 22.4452 25.9749)" stroke="black" stroke-width="1.90405"/>
<mask id="path-4-inside-1_419_7" fill="white">
<path fill-rule="evenodd" clip-rule="evenodd" d="M36.5358 22.5308C37.3443 21.7783 37.3897 20.5128 36.6371 19.7042L31.4111 14.0895C30.6585 13.281 29.393 13.2356 28.5845 13.9882L23.5707 18.6549C23.1824 19.0162 22.6665 19.2086 22.1364 19.1896L18.9393 19.075C17.1587 19.0111 16.1897 21.132 17.4037 22.4363L27.3087 33.078C28.5227 34.3823 30.7075 33.5677 30.7714 31.7871L30.886 28.5897C30.905 28.0596 31.1338 27.5588 31.5221 27.1974L36.5358 22.5308Z"/>
</mask>
<path fill-rule="evenodd" clip-rule="evenodd" d="M36.5358 22.5308C37.3443 21.7783 37.3897 20.5128 36.6371 19.7042L31.4111 14.0895C30.6585 13.281 29.393 13.2356 28.5845 13.9882L23.5707 18.6549C23.1824 19.0162 22.6665 19.2086 22.1364 19.1896L18.9393 19.075C17.1587 19.0111 16.1897 21.132 17.4037 22.4363L27.3087 33.078C28.5227 34.3823 30.7075 33.5677 30.7714 31.7871L30.886 28.5897C30.905 28.0596 31.1338 27.5588 31.5221 27.1974L36.5358 22.5308Z" fill="#FBC80A"/>
<path d="M30.886 28.5897L32.8847 28.6614L30.886 28.5897ZM17.4037 22.4363L15.9397 23.7989L17.4037 22.4363ZM22.1364 19.1896L22.0647 21.1883L22.1364 19.1896ZM29.9471 15.4521L35.1731 21.0669L38.1011 18.3416L32.8751 12.7269L29.9471 15.4521ZM24.9333 20.1188L29.9471 15.4521L27.2219 12.5242L22.2081 17.1909L24.9333 20.1188ZM18.8677 21.0737L22.0647 21.1883L22.2081 17.1909L19.011 17.0762L18.8677 21.0737ZM28.7727 31.7154L18.8677 21.0737L15.9397 23.7989L25.8447 34.4407L28.7727 31.7154ZM28.8873 28.5181L28.7727 31.7154L32.7701 31.8587L32.8847 28.6614L28.8873 28.5181ZM35.1731 21.0669L30.1595 25.7334L32.8847 28.6614L37.8984 23.9948L35.1731 21.0669ZM32.8847 28.6614L32.8847 28.6614L30.1595 25.7334C29.3829 26.4562 28.9253 27.4579 28.8873 28.5181L32.8847 28.6614ZM25.8447 34.4407C28.2727 37.0492 32.6424 35.4201 32.7701 31.8587L28.7727 31.7154L28.7727 31.7154L25.8447 34.4407ZM19.011 17.0762C15.4497 16.9486 13.5117 21.1904 15.9397 23.7989L18.8677 21.0737L18.8677 21.0737L19.011 17.0762ZM22.2081 17.1909L22.2081 17.1909L22.0647 21.1883C23.1249 21.2263 24.1568 20.8416 24.9333 20.1188L22.2081 17.1909ZM35.1731 21.0669L35.1731 21.0669L37.8984 23.9948C39.5155 22.4897 39.6062 19.9587 38.1011 18.3416L35.1731 21.0669ZM32.8751 12.7269C31.37 11.1098 28.8389 11.0191 27.2219 12.5242L29.9471 15.4521L29.9471 15.4521L32.8751 12.7269Z" fill="black" mask="url(#path-4-inside-1_419_7)"/>
</svg>
