<svg width="132" height="43" viewBox="0 0 132 43" fill="none" xmlns="http://www.w3.org/2000/svg">
<mask id="path-1-outside-1_418_12" maskUnits="userSpaceOnUse" x="0" y="0" width="132" height="43" fill="black">
<rect fill="white" width="132" height="43"/>
<path d="M6.48842 40.9998C4.27929 40.9998 2.48843 39.2089 2.48843 36.9998V9.27179C2.48843 7.83777 3.25607 6.51348 4.50044 5.80078L10.2114 2.52989C10.8166 2.18326 11.5019 2.0009 12.1994 2.0009L127.797 2.00111V12.6706C127.797 12.9319 128.008 13.1437 128.27 13.1436C129.225 13.1436 130 16.7816 130 21.2692C130 25.7568 129.225 29.2384 128.27 29.2384C128.008 29.2384 127.797 29.4502 127.797 29.7115V35.893L120.409 41L6.48842 40.9998Z"/>
</mask>
<path d="M6.48842 40.9998C4.27929 40.9998 2.48843 39.2089 2.48843 36.9998V9.27179C2.48843 7.83777 3.25607 6.51348 4.50044 5.80078L10.2114 2.52989C10.8166 2.18326 11.5019 2.0009 12.1994 2.0009L127.797 2.00111V12.6706C127.797 12.9319 128.008 13.1437 128.27 13.1436C129.225 13.1436 130 16.7816 130 21.2692C130 25.7568 129.225 29.2384 128.27 29.2384C128.008 29.2384 127.797 29.4502 127.797 29.7115V35.893L120.409 41L6.48842 40.9998Z" fill="url(#paint0_radial_418_12)"/>
<path d="M127.797 2.00111L128.797 2.00111V1.00112L127.797 1.00111L127.797 2.00111ZM8.99138 6.26286C8.4391 6.26286 7.99138 6.71057 7.99138 7.26286C7.99138 7.81514 8.4391 8.26286 8.99138 8.26286V6.26286ZM119.409 36.3433C119.409 36.8956 119.857 37.3433 120.409 37.3433C120.961 37.3433 121.409 36.8956 121.409 36.3433H119.409ZM124.366 6.42675C124.861 6.18251 125.065 5.58296 124.821 5.08762C124.576 4.59227 123.977 4.38871 123.481 4.63294L124.366 6.42675ZM5.99996 40.9989L5.99997 39.9989L5.99996 40.9989ZM1 9.27089V36.9989H3V9.27089H1ZM9.22594 1.66125L3.51501 4.93213L4.50901 6.66763L10.2199 3.39675L9.22594 1.66125ZM128.797 12.8412L128.797 2.00111L126.797 2.00111L126.797 12.8412L128.797 12.8412ZM128.797 35.893L128.797 29.4627L126.797 29.4628L126.797 35.893L128.797 35.893ZM8.99138 8.26286H120.409V6.26286H8.99138V8.26286ZM119.409 7.26286V36.3433H121.409V7.26286H119.409ZM120.851 8.15976L124.366 6.42675L123.481 4.63294L119.967 6.36595L120.851 8.15976ZM127.926 27.6194C128.273 27.6194 128.301 27.8748 128.109 27.5521C127.964 27.3086 127.795 26.8902 127.638 26.2867C127.327 25.0942 127.112 23.3813 127.112 21.4164H125.112C125.112 23.5076 125.339 25.3963 125.702 26.7912C125.882 27.4814 126.109 28.1033 126.391 28.5765C126.626 28.9707 127.114 29.6194 127.926 29.6194V27.6194ZM127.112 21.4164C127.112 19.4517 127.327 17.7008 127.639 16.4693C127.797 15.8461 127.968 15.4071 128.117 15.1479C128.192 15.0176 128.237 14.9764 128.235 14.9781C128.229 14.983 128.122 15.0722 127.926 15.0722V13.0722C127.498 13.0722 127.159 13.2641 126.927 13.4647C126.699 13.6621 126.522 13.9094 126.383 14.1508C126.105 14.6348 125.88 15.2714 125.701 15.9773C125.339 17.4038 125.112 19.3251 125.112 21.4164H127.112ZM129 21.2752C129 23.6435 128.794 25.7136 128.477 27.1649C128.316 27.8988 128.139 28.42 127.975 28.7333C127.936 28.8077 127.902 28.862 127.875 28.8999C127.848 28.9384 127.833 28.9525 127.833 28.9521C127.834 28.952 127.939 28.8575 128.136 28.8575V30.8575C128.591 30.8575 128.947 30.6458 129.19 30.4218C129.427 30.2029 129.607 29.9283 129.748 29.6589C130.03 29.1182 130.254 28.4 130.431 27.5924C130.788 25.9607 131 23.7397 131 21.2752H129ZM128.136 13.5246C128.037 13.5246 127.954 13.4999 127.896 13.4724C127.869 13.4594 127.849 13.4467 127.837 13.438C127.825 13.4292 127.819 13.4236 127.819 13.4235C127.819 13.4234 127.823 13.4276 127.832 13.4377C127.84 13.4478 127.851 13.4626 127.865 13.483C127.894 13.5244 127.929 13.5829 127.968 13.662C128.135 13.994 128.315 14.5394 128.476 15.2959C128.795 16.7926 129 18.9071 129 21.2752H131C131 18.8105 130.788 16.5497 130.432 14.8793C130.256 14.0523 130.033 13.3162 129.755 12.7626C129.616 12.4874 129.439 12.2062 129.205 11.9814C128.966 11.7526 128.606 11.5246 128.136 11.5246V13.5246ZM128.136 11.5246H127.148V13.5246H128.136V11.5246ZM128.136 28.8575H127.148V30.8575H128.136V28.8575ZM123.821 28.2384C124.161 28.2384 124.173 28.4955 123.971 28.1356C123.815 27.8563 123.641 27.3838 123.482 26.7081C123.169 25.3728 122.965 23.4613 122.965 21.2692H120.965C120.965 23.5647 121.177 25.6378 121.535 27.1652C121.712 27.9209 121.938 28.5992 122.226 29.113C122.469 29.5462 122.969 30.2384 123.821 30.2384V28.2384ZM122.965 21.2692C122.965 19.0774 123.169 17.1243 123.483 15.7463C123.643 15.0493 123.818 14.5541 123.979 14.2575C124.017 14.1872 124.049 14.1363 124.075 14.101C124.102 14.0652 124.116 14.0526 124.114 14.0537C124.112 14.0557 124.01 14.1437 123.821 14.1437V12.1437C123.377 12.1437 123.024 12.3453 122.78 12.5638C122.542 12.7769 122.361 13.0447 122.219 13.3069C121.935 13.8326 121.71 14.5274 121.534 15.3008C121.177 16.8637 120.965 18.9734 120.965 21.2692H122.965ZM123.821 14.1437H127.667V12.1437H123.821V14.1437ZM123.821 30.2384H127.667V28.2384H123.821V30.2384ZM127.797 1.00111L11.711 1.00001L11.7109 3.00001L127.797 3.00111L127.797 1.00111ZM5.99995 41.9989L120.409 42L120.409 40L5.99997 39.9989L5.99995 41.9989ZM10.2199 3.39675C10.6738 3.13678 11.1879 3.00001 11.7109 3.00001L11.711 1.00001C10.8391 1 9.98246 1.22795 9.22594 1.66125L10.2199 3.39675ZM1 36.9989C1 39.7603 3.23855 41.9989 5.99995 41.9989L5.99997 39.9989C4.34313 39.9989 3 38.6558 3 36.9989H1ZM3 9.27089C3 8.19538 3.57573 7.20216 4.50901 6.66763L3.51501 4.93213C1.95955 5.823 1 7.47837 1 9.27089H3ZM127.797 2.00111H129.797V0.00111282L127.797 0.00110924V2.00111ZM127.797 35.893L128.934 37.5382L129.797 36.9418V35.893H127.797ZM120.409 41V43H121.033L121.546 42.6452L120.409 41ZM128.27 29.2384V27.2384H128.27L128.27 29.2384ZM128.27 13.1436V11.1436H128.27L128.27 13.1436ZM10.2114 2.52989L9.21738 0.794387L10.2114 2.52989ZM0.48843 9.27179V36.9998H4.48843V9.27179H0.48843ZM9.21738 0.794387L3.50645 4.06527L5.49444 7.53628L11.2054 4.2654L9.21738 0.794387ZM129.797 12.6706V2.00111H125.797V12.6706H129.797ZM128.27 15.1436C127.707 15.1436 127.354 14.8671 127.233 14.7509C127.12 14.6425 127.107 14.5836 127.157 14.6816C127.252 14.8711 127.395 15.2754 127.537 15.9401C127.813 17.2369 128 19.122 128 21.2692H132C132 18.9287 131.799 16.7511 131.449 15.107C131.278 14.3013 131.048 13.5157 130.73 12.8828C130.572 12.5696 130.342 12.1914 130.004 11.8666C129.658 11.5339 129.071 11.1436 128.27 11.1436V15.1436ZM128 21.2692C128 23.4168 127.813 25.2582 127.539 26.5092C127.399 27.1511 127.259 27.5296 127.17 27.6987C127.125 27.7852 127.143 27.7202 127.262 27.6104C127.392 27.4902 127.737 27.2384 128.27 27.2384V31.2384C129.041 31.2384 129.619 30.8779 129.975 30.5498C130.319 30.232 130.554 29.8599 130.716 29.5499C131.042 28.9259 131.274 28.1535 131.447 27.3641C131.8 25.7524 132 23.6091 132 21.2692H128ZM129.797 35.893V29.7115H125.797V35.893H129.797ZM121.546 42.6452L128.934 37.5382L126.659 34.2479L119.272 39.3548L121.546 42.6452ZM127.797 0.00110924L12.1994 0.000899792L12.1994 4.0009L127.797 4.00111V0.00110924ZM6.48842 42.9998L120.409 43V39L6.48843 38.9998L6.48842 42.9998ZM128.27 27.2384C126.904 27.2384 125.797 28.3457 125.797 29.7115H129.797C129.797 30.5548 129.113 31.2384 128.27 31.2384L128.27 27.2384ZM125.797 12.6706C125.797 14.0364 126.904 15.1437 128.27 15.1436L128.27 11.1436C129.113 11.1436 129.797 11.8273 129.797 12.6706H125.797ZM11.2054 4.2654C11.508 4.09208 11.8506 4.0009 12.1994 4.0009L12.1994 0.000899792C11.1532 0.000898004 10.1252 0.274441 9.21738 0.794387L11.2054 4.2654ZM0.48843 36.9998C0.48843 40.3135 3.17472 42.9998 6.48842 42.9998L6.48843 38.9998C5.38386 38.9998 4.48843 38.1044 4.48843 36.9998H0.48843ZM4.48843 9.27179C4.48843 8.55478 4.87225 7.89263 5.49444 7.53628L3.50645 4.06527C1.63989 5.13432 0.48843 7.12077 0.48843 9.27179H4.48843Z" fill="black" mask="url(#path-1-outside-1_418_12)"/>
<path fill-rule="evenodd" clip-rule="evenodd" d="M6.4541 36.3647V9.85648L13.5631 6.00073H40.0385L122.953 6.0009V14.6763L123.393 14.6763C124.282 14.6763 125.002 17.5088 125.002 21.0027C125.002 24.4967 124.282 27.2075 123.393 27.2075L122.953 27.2075V32.3887L116.085 36.3649L52 36.3647H6.4541Z" fill="url(#paint1_linear_418_12)"/>
<path d="M122.953 14.4408V6.00086L39.5844 6H13.109L6 9.85575V36.364H51.5459L116.085 36.3649L122.953 32.3886V27.3821" stroke="#1C1E21" stroke-width="3" stroke-linejoin="round"/>
<path d="M12.5 10.0976H116.085M116.085 10.0976V32.7392M116.085 10.0976L119.353 8.74829" stroke="#1C1E21" stroke-linecap="round" stroke-linejoin="round"/>
<path d="M123.074 26.7256C122.209 26.7256 121.387 24.2754 121.387 21.1174C121.387 17.9594 122.209 15.3993 123.074 15.3993" stroke="#1C1E21"/>
<path d="M122.351 14.1943H123.269C124.226 14.1943 125.001 17.2446 125.001 21.0074C125.001 24.7702 124.226 27.6895 123.269 27.6895H122.351" stroke="#1C1E21" stroke-width="3" stroke-linejoin="bevel"/>
<path d="M122.833 14.6763H119.257C118.304 14.6763 117.531 17.5087 117.531 21.0027C117.531 24.4967 118.304 27.2074 119.257 27.2074H122.833" stroke="#1C1E21"/>
<defs>
<radialGradient id="paint0_radial_418_12" cx="0" cy="0" r="1" gradientUnits="userSpaceOnUse" gradientTransform="translate(66 21.5) rotate(90) scale(40 131.285)">
<stop stop-color="#EBFF00"/>
<stop offset="0.576042" stop-color="#F3FF66" stop-opacity="0.601042"/>
<stop offset="1" stop-color="white" stop-opacity="0"/>
</radialGradient>
<linearGradient id="paint1_linear_418_12" x1="121.577" y1="31.3208" x2="15.6912" y2="0.157773" gradientUnits="userSpaceOnUse">
<stop stop-color="#54B4C6"/>
<stop offset="1" stop-color="#78E8EA"/>
</linearGradient>
</defs>
</svg>
