<svg width="123" height="34" viewBox="0 0 123 34" fill="none" xmlns="http://www.w3.org/2000/svg">
<path fill-rule="evenodd" clip-rule="evenodd" d="M2.4541 32.3647V5.85648L9.56312 2.00073H36.0385L118.953 2.0009V10.6763L119.393 10.6763C120.282 10.6763 121.002 13.5088 121.002 17.0027C121.002 20.4967 120.282 23.2075 119.393 23.2075L118.953 23.2075V28.3887L112.085 32.3649L48 32.3647H2.4541Z" fill="url(#paint0_linear_358_495)"/>
<path d="M118.953 10.4408V2.00086L35.5844 2H9.10902L2 5.85575V32.364H47.5459L112.085 32.3649L118.953 28.3886V23.3821" stroke="#1C1E21" stroke-width="3" stroke-linejoin="round"/>
<path d="M8.5 6.09759H112.085M112.085 6.09759V28.7392M112.085 6.09759L115.353 4.74829" stroke="#1C1E21" stroke-linecap="round" stroke-linejoin="round"/>
<path d="M119.074 22.7256C118.209 22.7256 117.387 20.2754 117.387 17.1174C117.387 13.9594 118.209 11.3993 119.074 11.3993" stroke="#1C1E21"/>
<path d="M118.351 10.1943H119.269C120.226 10.1943 121.001 13.2446 121.001 17.0074C121.001 20.7702 120.226 23.6895 119.269 23.6895H118.351" stroke="#1C1E21" stroke-width="3" stroke-linejoin="bevel"/>
<path d="M118.833 10.6763H115.258C114.304 10.6763 113.531 13.5087 113.531 17.0027C113.531 20.4967 114.304 23.2074 115.258 23.2074H118.833" stroke="#1C1E21"/>
<defs>
<linearGradient id="paint0_linear_358_495" x1="117.577" y1="27.3208" x2="11.6912" y2="-3.84223" gradientUnits="userSpaceOnUse">
<stop stop-color="#FCAC6D"/>
<stop offset="1" stop-color="#FFD761"/>
</linearGradient>
</defs>
</svg>
