<svg width="229" height="28" viewBox="0 0 229 28" fill="none" xmlns="http://www.w3.org/2000/svg">
<path d="M46.784 16.258V13.816H50.37C50.8393 13.816 51.2647 13.7207 51.646 13.53C52.0273 13.3393 52.328 13.068 52.548 12.716C52.768 12.3493 52.878 11.9093 52.878 11.396C52.878 10.8973 52.768 10.4647 52.548 10.098C52.328 9.73133 52.0273 9.45267 51.646 9.262C51.2647 9.07133 50.8393 8.976 50.37 8.976H46.784V6.534H50.678C51.6607 6.534 52.5407 6.732 53.318 7.128C54.11 7.524 54.7333 8.08867 55.188 8.822C55.6427 9.54067 55.87 10.3987 55.87 11.396C55.87 12.3933 55.6427 13.2587 55.188 13.992C54.7333 14.7107 54.11 15.268 53.318 15.664C52.5407 16.06 51.6607 16.258 50.678 16.258H46.784ZM44.584 22V6.534H47.576V22H44.584ZM61.9503 15.532V13.2H65.5363C66.2696 13.2 66.8343 13.0167 67.2303 12.65C67.6409 12.2687 67.8463 11.748 67.8463 11.088C67.8463 10.4867 67.6409 9.988 67.2303 9.592C66.8343 9.18133 66.2696 8.976 65.5363 8.976H61.9503V6.534H65.8003C66.7976 6.534 67.6703 6.732 68.4183 7.128C69.1809 7.50933 69.7676 8.03733 70.1783 8.712C70.6036 9.38667 70.8163 10.164 70.8163 11.044C70.8163 11.9533 70.6036 12.7453 70.1783 13.42C69.7676 14.08 69.1809 14.6007 68.4183 14.982C67.6556 15.3487 66.7683 15.532 65.7563 15.532H61.9503ZM59.7503 22V6.534H62.7423V22H59.7503ZM68.1983 22L63.0943 15.312L65.8443 14.454L71.8283 22H68.1983ZM82.3908 22.242C81.2615 22.242 80.2055 22.0367 79.2228 21.626C78.2548 21.2153 77.4042 20.6507 76.6708 19.932C75.9522 19.1987 75.3875 18.348 74.9768 17.38C74.5662 16.3973 74.3608 15.3487 74.3608 14.234C74.3608 13.1193 74.5588 12.0853 74.9548 11.132C75.3655 10.164 75.9302 9.32067 76.6488 8.602C77.3822 7.86867 78.2328 7.304 79.2008 6.908C80.1688 6.49733 81.2175 6.292 82.3468 6.292C83.4908 6.292 84.5468 6.49733 85.5148 6.908C86.4828 7.304 87.3262 7.86867 88.0448 8.602C88.7782 9.32067 89.3502 10.164 89.7608 11.132C90.1715 12.1 90.3768 13.1413 90.3768 14.256C90.3768 15.3707 90.1715 16.412 89.7608 17.38C89.3502 18.348 88.7782 19.1987 88.0448 19.932C87.3262 20.6507 86.4828 21.2153 85.5148 21.626C84.5615 22.0367 83.5202 22.242 82.3908 22.242ZM82.3468 19.448C83.3442 19.448 84.2095 19.228 84.9428 18.788C85.6762 18.348 86.2482 17.7393 86.6588 16.962C87.0842 16.1847 87.2968 15.2753 87.2968 14.234C87.2968 13.4713 87.1795 12.7747 86.9448 12.144C86.7102 11.5133 86.3728 10.9707 85.9328 10.516C85.4928 10.0467 84.9722 9.68733 84.3708 9.438C83.7695 9.18867 83.0948 9.064 82.3468 9.064C81.3788 9.064 80.5208 9.284 79.7728 9.724C79.0395 10.1493 78.4602 10.7507 78.0348 11.528C77.6242 12.3053 77.4188 13.2073 77.4188 14.234C77.4188 15.0113 77.5362 15.7227 77.7708 16.368C78.0202 17.0133 78.3575 17.5633 78.7828 18.018C79.2228 18.4727 79.7435 18.8247 80.3448 19.074C80.9608 19.3233 81.6282 19.448 82.3468 19.448ZM94.5085 22V6.534H96.6205L102.891 16.566H101.681L107.929 6.534H110.041V22H107.071V11.66L107.643 11.836L103.287 18.832H101.263L96.9065 11.836L97.5005 11.66V22H94.5085ZM117.16 16.258V13.816H120.746C121.215 13.816 121.641 13.7207 122.022 13.53C122.403 13.3393 122.704 13.068 122.924 12.716C123.144 12.3493 123.254 11.9093 123.254 11.396C123.254 10.8973 123.144 10.4647 122.924 10.098C122.704 9.73133 122.403 9.45267 122.022 9.262C121.641 9.07133 121.215 8.976 120.746 8.976H117.16V6.534H121.054C122.037 6.534 122.917 6.732 123.694 7.128C124.486 7.524 125.109 8.08867 125.564 8.822C126.019 9.54067 126.246 10.3987 126.246 11.396C126.246 12.3933 126.019 13.2587 125.564 13.992C125.109 14.7107 124.486 15.268 123.694 15.664C122.917 16.06 122.037 16.258 121.054 16.258H117.16ZM114.96 22V6.534H117.952V22H114.96ZM133.761 22V6.864H136.775V22H133.761ZM128.833 9.196V6.534H141.703V9.196H128.833ZM149.179 22.22C147.932 22.22 146.862 22.0073 145.967 21.582C145.087 21.1567 144.288 20.5187 143.569 19.668L145.549 17.688C146.004 18.2893 146.532 18.7587 147.133 19.096C147.734 19.4187 148.468 19.58 149.333 19.58C150.11 19.58 150.726 19.426 151.181 19.118C151.65 18.81 151.885 18.3847 151.885 17.842C151.885 17.3727 151.753 16.9913 151.489 16.698C151.225 16.4047 150.873 16.1553 150.433 15.95C150.008 15.7447 149.531 15.5613 149.003 15.4C148.49 15.224 147.969 15.026 147.441 14.806C146.928 14.586 146.451 14.3147 146.011 13.992C145.586 13.6547 145.241 13.2293 144.977 12.716C144.713 12.188 144.581 11.528 144.581 10.736C144.581 9.79733 144.808 8.998 145.263 8.338C145.718 7.678 146.341 7.172 147.133 6.82C147.925 6.468 148.82 6.292 149.817 6.292C150.873 6.292 151.826 6.49 152.677 6.886C153.528 7.282 154.224 7.79533 154.767 8.426L152.787 10.406C152.332 9.90733 151.863 9.54067 151.379 9.306C150.91 9.07133 150.374 8.954 149.773 8.954C149.084 8.954 148.541 9.086 148.145 9.35C147.749 9.614 147.551 9.99533 147.551 10.494C147.551 10.9193 147.683 11.264 147.947 11.528C148.211 11.792 148.556 12.0193 148.981 12.21C149.421 12.4007 149.898 12.584 150.411 12.76C150.939 12.936 151.46 13.134 151.973 13.354C152.501 13.574 152.978 13.86 153.403 14.212C153.843 14.564 154.195 15.0187 154.459 15.576C154.723 16.1187 154.855 16.7933 154.855 17.6C154.855 19.0373 154.349 20.1667 153.337 20.988C152.325 21.8093 150.939 22.22 149.179 22.22ZM165.033 22V6.534H168.025V22H165.033ZM167.233 22V19.338H175.109V22H167.233ZM179.018 22V6.534H182.01V22H179.018ZM181.218 22V19.36H189.776V22H181.218ZM181.218 15.378V12.826H189.006V15.378H181.218ZM181.218 9.174V6.534H189.666V9.174H181.218ZM200.883 22.22C199.783 22.22 198.749 22.022 197.781 21.626C196.828 21.2153 195.984 20.6433 195.251 19.91C194.532 19.1767 193.968 18.3333 193.557 17.38C193.161 16.412 192.963 15.3707 192.963 14.256C192.963 13.1267 193.168 12.0853 193.579 11.132C193.99 10.164 194.562 9.32067 195.295 8.602C196.028 7.86867 196.886 7.304 197.869 6.908C198.852 6.49733 199.915 6.292 201.059 6.292C202.335 6.292 203.508 6.534 204.579 7.018C205.65 7.48733 206.537 8.15467 207.241 9.02L205.217 11.044C204.733 10.4133 204.132 9.92933 203.413 9.592C202.694 9.25467 201.902 9.086 201.037 9.086C200.054 9.086 199.182 9.306 198.419 9.746C197.671 10.1713 197.084 10.7727 196.659 11.55C196.234 12.3127 196.021 13.2073 196.021 14.234C196.021 15.2607 196.226 16.17 196.637 16.962C197.062 17.7393 197.634 18.348 198.353 18.788C199.086 19.228 199.922 19.448 200.861 19.448C201.829 19.448 202.658 19.272 203.347 18.92C204.036 18.5533 204.564 18.0253 204.931 17.336C205.298 16.632 205.481 15.774 205.481 14.762L207.439 16.104L200.685 16.038V13.442H208.561V13.86C208.561 15.708 208.231 17.2553 207.571 18.502C206.911 19.734 206.002 20.6653 204.843 21.296C203.699 21.912 202.379 22.22 200.883 22.22ZM220.047 22.242C218.918 22.242 217.862 22.0367 216.879 21.626C215.911 21.2153 215.061 20.6507 214.327 19.932C213.609 19.1987 213.044 18.348 212.633 17.38C212.223 16.3973 212.017 15.3487 212.017 14.234C212.017 13.1193 212.215 12.0853 212.611 11.132C213.022 10.164 213.587 9.32067 214.305 8.602C215.039 7.86867 215.889 7.304 216.857 6.908C217.825 6.49733 218.874 6.292 220.003 6.292C221.147 6.292 222.203 6.49733 223.171 6.908C224.139 7.304 224.983 7.86867 225.701 8.602C226.435 9.32067 227.007 10.164 227.417 11.132C227.828 12.1 228.033 13.1413 228.033 14.256C228.033 15.3707 227.828 16.412 227.417 17.38C227.007 18.348 226.435 19.1987 225.701 19.932C224.983 20.6507 224.139 21.2153 223.171 21.626C222.218 22.0367 221.177 22.242 220.047 22.242ZM220.003 19.448C221.001 19.448 221.866 19.228 222.599 18.788C223.333 18.348 223.905 17.7393 224.315 16.962C224.741 16.1847 224.953 15.2753 224.953 14.234C224.953 13.4713 224.836 12.7747 224.601 12.144C224.367 11.5133 224.029 10.9707 223.589 10.516C223.149 10.0467 222.629 9.68733 222.027 9.438C221.426 9.18867 220.751 9.064 220.003 9.064C219.035 9.064 218.177 9.284 217.429 9.724C216.696 10.1493 216.117 10.7507 215.691 11.528C215.281 12.3053 215.075 13.2073 215.075 14.234C215.075 15.0113 215.193 15.7227 215.427 16.368C215.677 17.0133 216.014 17.5633 216.439 18.018C216.879 18.4727 217.4 18.8247 218.001 19.074C218.617 19.3233 219.285 19.448 220.003 19.448Z" fill="#1C1E21"/>
<path d="M20 5C19.7 7.54901 17.9853 9 15.5 9C13.0147 9 11.3 7.54901 11 5" stroke="#1C1E21" stroke-width="3" stroke-linecap="square"/>
<path d="M29 13.7468L15.5 24L2 13.7468V6L15.5 16.2532L29 6V13.7468Z" stroke="#1C1E21" stroke-width="3" stroke-linejoin="bevel"/>
</svg>
