<svg width="46" height="46" viewBox="0 0 46 46" fill="none" xmlns="http://www.w3.org/2000/svg">
<path d="M41.433 43.8903L7.80008 43.8903C6.79113 43.8903 5.84975 43.3831 5.29474 42.5405L2.83676 38.8089C2.51407 38.319 2.34209 37.7453 2.34209 37.1587L2.34209 5.00011C2.34209 3.34325 3.68524 2.00011 5.34209 2.00011L38.8958 2.00011C39.8522 2.00011 40.7513 2.45616 41.3163 3.22788L43.8536 6.69335C44.2301 7.20756 44.433 7.82829 44.433 8.46558L44.433 40.8903C44.433 42.5471 43.0899 43.8903 41.433 43.8903Z" fill="#D3D3D3" stroke="#1C1E21" stroke-width="3" stroke-linejoin="round"/>
<path d="M6.53141 39.7733L6.53141 7.48474M6.53141 7.48474L5.0802 4.43628M6.53141 7.48474L41.6511 7.48474" stroke="#1C1E21" stroke-linecap="round" stroke-linejoin="round"/>
<mask id="path-3-inside-1_373_199" fill="white">
<path fill-rule="evenodd" clip-rule="evenodd" d="M26.6813 14.8103C25.9264 14.1474 24.797 14.1474 24.0421 14.8103L15.9749 21.894C14.5885 23.1114 15.4495 25.3968 17.2945 25.3968V25.3968C18.6282 25.3968 19.7093 26.478 19.7093 27.8116V30.5032C19.7093 31.6078 20.6047 32.5032 21.7093 32.5032H29.1037C30.2083 32.5032 31.1037 31.6078 31.1037 30.5032V27.722C31.1037 26.4378 32.1447 25.3968 33.4289 25.3968V25.3968C35.2739 25.3968 36.1349 23.1114 34.7485 21.894L26.6813 14.8103Z"/>
</mask>
<path d="M24.0421 14.8103L22.7224 13.3074L22.7224 13.3074L24.0421 14.8103ZM26.6813 14.8103L25.3617 16.3131L25.3617 16.3131L26.6813 14.8103ZM15.9749 21.894L14.6553 20.3911L14.6553 20.3911L15.9749 21.894ZM34.7485 21.894L33.4289 23.3968L33.4289 23.3968L34.7485 21.894ZM25.3617 16.3131L25.3617 16.3131L28.001 13.3074C26.4912 11.9817 24.2322 11.9817 22.7224 13.3074L25.3617 16.3131ZM17.2945 23.3968L25.3617 16.3131L22.7224 13.3074L14.6553 20.3911L17.2945 23.3968ZM17.2945 23.3968C17.2827 23.3968 17.2761 23.3959 17.274 23.3956C17.2719 23.3953 17.2727 23.3952 17.2756 23.3962C17.2786 23.3972 17.2823 23.3987 17.2864 23.4008C17.2904 23.4029 17.2939 23.4051 17.2968 23.4072C17.3025 23.4114 17.3038 23.4137 17.3022 23.4116C17.3005 23.4092 17.2973 23.4042 17.2945 23.3968C17.2918 23.3895 17.2908 23.3836 17.2906 23.3807C17.2904 23.3781 17.2909 23.3806 17.2894 23.3876C17.2886 23.391 17.2875 23.395 17.2858 23.3992C17.2841 23.4035 17.2823 23.4071 17.2807 23.4098C17.2792 23.4125 17.2786 23.4129 17.2799 23.4113C17.2813 23.4097 17.2857 23.4046 17.2945 23.3968L14.6553 20.3911C11.8825 22.8259 13.6045 27.3968 17.2945 27.3968V23.3968ZM21.7093 30.5032V27.8116H17.7093V30.5032H21.7093ZM21.7093 30.5032H21.7093H17.7093C17.7093 32.7124 19.5002 34.5032 21.7093 34.5032V30.5032ZM29.1037 30.5032H21.7093V34.5032H29.1037V30.5032ZM29.1037 30.5032V30.5032V34.5032C31.3129 34.5032 33.1037 32.7124 33.1037 30.5032H29.1037ZM29.1037 27.722V30.5032H33.1037V27.722H29.1037ZM33.4289 23.3968C33.4377 23.4046 33.4421 23.4097 33.4435 23.4113C33.4448 23.4129 33.4442 23.4125 33.4427 23.4098C33.4411 23.4071 33.4393 23.4035 33.4376 23.3992C33.4359 23.395 33.4348 23.391 33.434 23.3876C33.4325 23.3806 33.433 23.3781 33.4328 23.3807C33.4326 23.3836 33.4316 23.3895 33.4289 23.3968C33.4261 23.4042 33.4229 23.4092 33.4212 23.4116C33.4196 23.4137 33.4209 23.4114 33.4266 23.4072C33.4295 23.4051 33.433 23.4029 33.437 23.4008C33.4411 23.3987 33.4448 23.3972 33.4478 23.3962C33.4507 23.3952 33.4515 23.3953 33.4494 23.3956C33.4473 23.3959 33.4407 23.3968 33.4289 23.3968V27.3968C37.1189 27.3968 38.8409 22.8259 36.0681 20.3911L33.4289 23.3968ZM25.3617 16.3131L33.4289 23.3968L36.0681 20.3911L28.001 13.3074L25.3617 16.3131ZM33.1037 27.722C33.1037 27.5424 33.2493 27.3968 33.4289 27.3968V23.3968C31.0402 23.3968 29.1037 25.3333 29.1037 27.722H33.1037ZM17.2945 27.3968C17.5236 27.3968 17.7093 27.5825 17.7093 27.8116H21.7093C21.7093 25.3734 19.7327 23.3968 17.2945 23.3968V27.3968Z" fill="black" mask="url(#path-3-inside-1_373_199)"/>
<path d="M20.4689 35.437L29.9005 35.437" stroke="black" stroke-width="2" stroke-linecap="round"/>
</svg>
