<svg width="135" height="28" viewBox="0 0 135 28" fill="none" xmlns="http://www.w3.org/2000/svg">
<path d="M35.296 20V7.346H37.744V20H35.296ZM37.096 20V17.822H43.54V20H37.096ZM46.738 20V7.346H49.186V20H46.738ZM48.538 20V17.84H55.54V20H48.538ZM48.538 14.582V12.494H54.91V14.582H48.538ZM48.538 9.506V7.346H55.45V9.506H48.538ZM64.6276 20.18C63.7276 20.18 62.8816 20.018 62.0896 19.694C61.3096 19.358 60.6196 18.89 60.0196 18.29C59.4316 17.69 58.9696 17 58.6336 16.22C58.3096 15.428 58.1476 14.576 58.1476 13.664C58.1476 12.74 58.3156 11.888 58.6516 11.108C58.9876 10.316 59.4556 9.626 60.0556 9.038C60.6556 8.438 61.3576 7.976 62.1616 7.652C62.9656 7.316 63.8356 7.148 64.7716 7.148C65.8156 7.148 66.7756 7.346 67.6516 7.742C68.5276 8.126 69.2536 8.672 69.8296 9.38L68.1736 11.036C67.7776 10.52 67.2856 10.124 66.6976 9.848C66.1096 9.572 65.4616 9.434 64.7536 9.434C63.9496 9.434 63.2356 9.614 62.6116 9.974C61.9996 10.322 61.5196 10.814 61.1716 11.45C60.8236 12.074 60.6496 12.806 60.6496 13.646C60.6496 14.486 60.8176 15.23 61.1536 15.878C61.5016 16.514 61.9696 17.012 62.5576 17.372C63.1576 17.732 63.8416 17.912 64.6096 17.912C65.4016 17.912 66.0796 17.768 66.6436 17.48C67.2076 17.18 67.6396 16.748 67.9396 16.184C68.2396 15.608 68.3896 14.906 68.3896 14.078L69.9916 15.176L64.4656 15.122V12.998H70.9096V13.34C70.9096 14.852 70.6396 16.118 70.0996 17.138C69.5596 18.146 68.8156 18.908 67.8676 19.424C66.9316 19.928 65.8516 20.18 64.6276 20.18ZM80.3075 20.198C79.3835 20.198 78.5195 20.03 77.7155 19.694C76.9235 19.358 76.2275 18.896 75.6275 18.308C75.0395 17.708 74.5775 17.012 74.2415 16.22C73.9055 15.416 73.7375 14.558 73.7375 13.646C73.7375 12.734 73.8995 11.888 74.2235 11.108C74.5595 10.316 75.0215 9.626 75.6095 9.038C76.2095 8.438 76.9055 7.976 77.6975 7.652C78.4895 7.316 79.3475 7.148 80.2715 7.148C81.2075 7.148 82.0715 7.316 82.8635 7.652C83.6555 7.976 84.3455 8.438 84.9335 9.038C85.5335 9.626 86.0015 10.316 86.3375 11.108C86.6735 11.9 86.8415 12.752 86.8415 13.664C86.8415 14.576 86.6735 15.428 86.3375 16.22C86.0015 17.012 85.5335 17.708 84.9335 18.308C84.3455 18.896 83.6555 19.358 82.8635 19.694C82.0835 20.03 81.2315 20.198 80.3075 20.198ZM80.2715 17.912C81.0875 17.912 81.7955 17.732 82.3955 17.372C82.9955 17.012 83.4635 16.514 83.7995 15.878C84.1475 15.242 84.3215 14.498 84.3215 13.646C84.3215 13.022 84.2255 12.452 84.0335 11.936C83.8415 11.42 83.5655 10.976 83.2055 10.604C82.8455 10.22 82.4195 9.926 81.9275 9.722C81.4355 9.518 80.8835 9.416 80.2715 9.416C79.4795 9.416 78.7775 9.596 78.1655 9.956C77.5655 10.304 77.0915 10.796 76.7435 11.432C76.4075 12.068 76.2395 12.806 76.2395 13.646C76.2395 14.282 76.3355 14.864 76.5275 15.392C76.7315 15.92 77.0075 16.37 77.3555 16.742C77.7155 17.114 78.1415 17.402 78.6335 17.606C79.1375 17.81 79.6835 17.912 80.2715 17.912ZM96.9776 20V18.002H100.272C100.86 18.002 101.316 17.822 101.64 17.462C101.976 17.102 102.144 16.676 102.144 16.184C102.144 15.848 102.072 15.542 101.928 15.266C101.784 14.99 101.568 14.774 101.28 14.618C101.004 14.45 100.668 14.366 100.272 14.366H96.9776V12.386H100.002C100.506 12.386 100.908 12.26 101.208 12.008C101.52 11.756 101.676 11.378 101.676 10.874C101.676 10.358 101.52 9.974 101.208 9.722C100.908 9.47 100.506 9.344 100.002 9.344H96.9776V7.346H100.29C101.13 7.346 101.832 7.502 102.396 7.814C102.972 8.114 103.404 8.516 103.692 9.02C103.98 9.512 104.124 10.052 104.124 10.64C104.124 11.36 103.902 11.984 103.458 12.512C103.026 13.028 102.39 13.412 101.55 13.664L101.658 12.872C102.594 13.136 103.314 13.574 103.818 14.186C104.334 14.786 104.592 15.512 104.592 16.364C104.592 17.036 104.424 17.648 104.088 18.2C103.764 18.74 103.284 19.178 102.648 19.514C102.024 19.838 101.262 20 100.362 20H96.9776ZM95.1776 20V7.346H97.6076V20H95.1776ZM113.895 20.198C112.971 20.198 112.107 20.03 111.303 19.694C110.511 19.358 109.815 18.896 109.215 18.308C108.627 17.708 108.165 17.012 107.829 16.22C107.493 15.416 107.325 14.558 107.325 13.646C107.325 12.734 107.487 11.888 107.811 11.108C108.147 10.316 108.609 9.626 109.197 9.038C109.797 8.438 110.493 7.976 111.285 7.652C112.077 7.316 112.935 7.148 113.859 7.148C114.795 7.148 115.659 7.316 116.451 7.652C117.243 7.976 117.933 8.438 118.521 9.038C119.121 9.626 119.589 10.316 119.925 11.108C120.261 11.9 120.429 12.752 120.429 13.664C120.429 14.576 120.261 15.428 119.925 16.22C119.589 17.012 119.121 17.708 118.521 18.308C117.933 18.896 117.243 19.358 116.451 19.694C115.671 20.03 114.819 20.198 113.895 20.198ZM113.859 17.912C114.675 17.912 115.383 17.732 115.983 17.372C116.583 17.012 117.051 16.514 117.387 15.878C117.735 15.242 117.909 14.498 117.909 13.646C117.909 13.022 117.813 12.452 117.621 11.936C117.429 11.42 117.153 10.976 116.793 10.604C116.433 10.22 116.007 9.926 115.515 9.722C115.023 9.518 114.471 9.416 113.859 9.416C113.067 9.416 112.365 9.596 111.753 9.956C111.153 10.304 110.679 10.796 110.331 11.432C109.995 12.068 109.827 12.806 109.827 13.646C109.827 14.282 109.923 14.864 110.115 15.392C110.319 15.92 110.595 16.37 110.943 16.742C111.303 17.114 111.729 17.402 112.221 17.606C112.725 17.81 113.271 17.912 113.859 17.912ZM131.35 20L127.714 14.366H127.354L122.422 7.346H125.32L128.938 12.656H129.298L134.212 20H131.35ZM122.206 20L126.94 13.232L128.74 14.438L124.978 20H122.206ZM129.424 13.988L127.624 12.782L131.224 7.346H133.996L129.424 13.988Z" fill="#1C1E21"/>
<path fill-rule="evenodd" clip-rule="evenodd" d="M12.9816 2.47279C12.0015 1.84587 10.7473 1.84215 9.76353 2.46325L2.38926 7.11889L2.49702 7.28958C2.16671 7.30613 1.85167 7.48606 1.67638 7.79502L0.130417 10.5198C-0.142125 11.0001 0.0263401 11.6105 0.506694 11.883L1.42941 12.4065H1.19738V17.4821C1.19738 18.5506 1.76574 19.5385 2.68951 20.0756L9.86423 24.247C10.7964 24.7889 11.9478 24.7889 12.88 24.247L20.0547 20.0756C20.9784 19.5385 21.5468 18.5506 21.5468 17.4821V12.275L22.2376 11.8831C22.7179 11.6106 22.8864 11.0002 22.6138 10.5199L21.0679 7.79513C20.9744 7.63027 20.841 7.50215 20.6868 7.41598L20.6934 7.40569L12.9816 2.47279ZM14.4807 16.2842L19.5468 13.4098V17.4821C19.5468 17.8383 19.3574 18.1676 19.0494 18.3466L12 22.4451L12 13.9385L13.1174 15.9079C13.39 16.3883 14.0003 16.5567 14.4807 16.2842ZM11.7168 12C11.7828 11.9306 11.8601 11.8697 11.9477 11.8199L18.2726 8.23137L11.9039 4.1576C11.5772 3.94862 11.1592 3.94738 10.8312 4.15442L4.42009 8.20199L10.7965 11.8198C10.8842 11.8696 10.9615 11.9306 11.0276 12H11.7168ZM11 13.4876L9.62684 15.9078C9.3543 16.3882 8.74396 16.5566 8.26361 16.2841L3.19738 13.4096V17.4821C3.19738 17.8383 3.38683 18.1676 3.69475 18.3466L10.8695 22.5179C10.9118 22.5425 10.9554 22.5638 11 22.5816L11 13.4876ZM2.36341 10.637L2.92241 9.65173L8.93981 13.0659L8.38081 14.0511L2.36341 10.637ZM14.3635 14.0512L13.8045 13.066L19.8219 9.65184L20.3809 10.6371L14.3635 14.0512Z" fill="#1C1E21"/>
</svg>
