<svg width="202" height="14" viewBox="0 0 202 14" fill="none" xmlns="http://www.w3.org/2000/svg">
<path d="M9.11357 4C8.98404 4.93911 8.24366 5.47369 7.17056 5.47369C6.09746 5.47369 5.35707 4.93911 5.22754 4" stroke="black" stroke-width="0.7" stroke-linecap="square"/>
<path d="M12.9999 7.22252L7.17085 11L1.3418 7.22252V4.36841L7.17085 8.1459L12.9999 4.36841V7.22252Z" stroke="black" stroke-width="0.7" stroke-linejoin="bevel"/>
<path d="M24.96 2.6H29.028C29.652 2.6 30.152 2.776 30.528 3.128C30.912 3.48 31.104 3.944 31.104 4.52V5.756C31.104 6.372 30.9 6.872 30.492 7.256C30.084 7.632 29.548 7.82 28.884 7.82H25.848V11H24.96V2.6ZM28.86 7.028C29.268 7.028 29.596 6.912 29.844 6.68C30.092 6.44 30.216 6.124 30.216 5.732V4.496C30.216 4.168 30.104 3.904 29.88 3.704C29.664 3.496 29.372 3.392 29.004 3.392H25.848V7.028H28.86ZM33.9603 5.012H34.8003V5.936C34.9603 5.656 35.2003 5.428 35.5203 5.252C35.8483 5.076 36.1883 4.988 36.5403 4.988H37.0683V5.768H36.5403C36.0283 5.768 35.6123 5.932 35.2923 6.26C34.9803 6.58 34.8243 7.008 34.8243 7.544V11H33.9603V5.012ZM41.5904 11.096C40.9184 11.096 40.3784 10.888 39.9704 10.472C39.5624 10.056 39.3584 9.508 39.3584 8.828V7.184C39.3584 6.504 39.5624 5.956 39.9704 5.54C40.3864 5.124 40.9344 4.916 41.6144 4.916H42.5984C43.2784 4.916 43.8224 5.124 44.2304 5.54C44.6464 5.956 44.8544 6.504 44.8544 7.184V8.828C44.8544 9.508 44.6464 10.056 44.2304 10.472C43.8144 10.888 43.2624 11.096 42.5744 11.096H41.5904ZM42.5744 10.328C43.0064 10.328 43.3504 10.192 43.6064 9.92C43.8624 9.64 43.9904 9.276 43.9904 8.828V7.184C43.9904 6.736 43.8624 6.376 43.6064 6.104C43.3504 5.824 43.0144 5.684 42.5984 5.684H41.6144C41.1984 5.684 40.8624 5.824 40.6064 6.104C40.3504 6.376 40.2224 6.736 40.2224 7.184V8.828C40.2224 9.284 40.3464 9.648 40.5944 9.92C40.8424 10.192 41.1744 10.328 41.5904 10.328H42.5744ZM54.5662 4.916C55.0942 4.916 55.5102 5.088 55.8142 5.432C56.1262 5.768 56.2822 6.236 56.2822 6.836V11H55.4182V6.812C55.4182 6.46 55.3382 6.184 55.1782 5.984C55.0182 5.784 54.8062 5.684 54.5422 5.684H53.8582C53.5142 5.684 53.2302 5.8 53.0062 6.032C52.7822 6.264 52.6382 6.592 52.5742 7.016V11H51.7102V6.884C51.7102 6.508 51.6342 6.216 51.4822 6.008C51.3382 5.792 51.1382 5.684 50.8822 5.684H50.1982C49.8702 5.684 49.5822 5.828 49.3342 6.116C49.0862 6.404 48.9302 6.78 48.8662 7.244V11H48.0022V5.012H48.8422V5.876C49.0022 5.572 49.2022 5.336 49.4422 5.168C49.6822 5 49.9342 4.916 50.1982 4.916H50.9062C51.2422 4.916 51.5302 5 51.7702 5.168C52.0182 5.328 52.2062 5.564 52.3342 5.876C52.5182 5.556 52.7382 5.316 52.9942 5.156C53.2502 4.996 53.5302 4.916 53.8342 4.916H54.5662ZM59.5934 5.012H60.4334V5.828C60.6014 5.556 60.8214 5.336 61.0934 5.168C61.3734 5 61.6534 4.916 61.9334 4.916H62.7974C63.4374 4.916 63.9534 5.12 64.3454 5.528C64.7454 5.936 64.9454 6.476 64.9454 7.148V8.624C64.9454 9.368 64.7414 9.968 64.3334 10.424C63.9334 10.872 63.4014 11.096 62.7374 11.096H61.8734C61.6254 11.096 61.3654 11.028 61.0934 10.892C60.8214 10.748 60.6094 10.564 60.4574 10.34V13.388H59.5934V5.012ZM62.7134 10.328C63.1294 10.328 63.4614 10.172 63.7094 9.86C63.9574 9.548 64.0814 9.136 64.0814 8.624V7.148C64.0814 6.708 63.9614 6.356 63.7214 6.092C63.4814 5.82 63.1654 5.684 62.7734 5.684H61.9334C61.5974 5.684 61.2934 5.816 61.0214 6.08C60.7494 6.336 60.5614 6.668 60.4574 7.076V8.876C60.5134 9.3 60.6774 9.648 60.9494 9.92C61.2214 10.192 61.5454 10.328 61.9214 10.328H62.7134ZM70.3726 11C69.7406 11 69.2846 10.864 69.0046 10.592C68.7326 10.32 68.5966 9.872 68.5966 9.248V5.78H67.5406V5.012H68.5966V3.2H69.4606V5.012H71.0206V5.78H69.4606V9.248C69.4606 9.6 69.5286 9.852 69.6646 10.004C69.8086 10.156 70.0446 10.232 70.3726 10.232H71.0206V11H70.3726ZM75.7963 11.096C75.1883 11.096 74.7003 10.924 74.3323 10.58C73.9643 10.236 73.7803 9.784 73.7803 9.224H74.6203C74.6203 9.56 74.7283 9.832 74.9443 10.04C75.1603 10.248 75.4443 10.352 75.7963 10.352H76.8403C77.1843 10.352 77.4643 10.284 77.6803 10.148C77.8963 10.004 78.0043 9.82 78.0043 9.596V9.188C78.0043 9.036 77.9443 8.904 77.8243 8.792C77.7043 8.672 77.5483 8.592 77.3563 8.552L75.2803 8.192C74.8643 8.12 74.5283 7.964 74.2723 7.724C74.0243 7.476 73.9003 7.188 73.9003 6.86V6.464C73.9003 6 74.0763 5.628 74.4283 5.348C74.7803 5.06 75.2443 4.916 75.8203 4.916H76.8523C77.4123 4.916 77.8643 5.076 78.2083 5.396C78.5523 5.708 78.7243 6.124 78.7243 6.644H77.8843C77.8763 6.348 77.7763 6.112 77.5843 5.936C77.4003 5.752 77.1563 5.66 76.8523 5.66H75.8203C75.5003 5.66 75.2443 5.736 75.0523 5.888C74.8603 6.032 74.7643 6.224 74.7643 6.464V6.812C74.7643 6.964 74.8283 7.1 74.9563 7.22C75.0923 7.34 75.2643 7.416 75.4723 7.448L77.5363 7.808C77.9363 7.88 78.2563 8.036 78.4963 8.276C78.7443 8.516 78.8683 8.804 78.8683 9.14V9.62C78.8683 10.06 78.6803 10.416 78.3043 10.688C77.9363 10.96 77.4483 11.096 76.8403 11.096H75.7963ZM88.2199 11C87.6279 11 87.2039 10.876 86.9479 10.628C86.6919 10.372 86.5639 9.952 86.5639 9.368V2.6H87.4279V9.368C87.4279 9.672 87.4879 9.892 87.6079 10.028C87.7359 10.164 87.9399 10.232 88.2199 10.232H88.6279V11H88.2199ZM93.0628 11.096C92.4788 11.096 92.0108 10.944 91.6588 10.64C91.3148 10.336 91.1428 9.928 91.1428 9.416V9.032C91.1428 8.528 91.3228 8.124 91.6828 7.82C92.0428 7.516 92.5188 7.364 93.1108 7.364H93.8788C94.1428 7.364 94.4148 7.404 94.6948 7.484C94.9748 7.564 95.2148 7.672 95.4148 7.808V6.812C95.4148 6.476 95.3108 6.204 95.1028 5.996C94.8948 5.78 94.6188 5.672 94.2748 5.672H93.3148C92.9708 5.672 92.6948 5.752 92.4868 5.912C92.2788 6.072 92.1748 6.284 92.1748 6.548H91.3108C91.3108 6.06 91.4948 5.668 91.8628 5.372C92.2308 5.068 92.7148 4.916 93.3148 4.916H94.2748C94.8668 4.916 95.3428 5.092 95.7028 5.444C96.0708 5.788 96.2548 6.244 96.2548 6.812V11H95.4388V10.16C95.2548 10.448 95.0108 10.676 94.7068 10.844C94.4108 11.012 94.1028 11.096 93.7828 11.096H93.0628ZM93.8068 10.34C94.1828 10.34 94.5188 10.224 94.8148 9.992C95.1108 9.76 95.3108 9.452 95.4148 9.068V8.624C95.2548 8.472 95.0308 8.352 94.7428 8.264C94.4628 8.168 94.1748 8.12 93.8788 8.12H93.1108C92.7828 8.12 92.5148 8.204 92.3068 8.372C92.1068 8.54 92.0068 8.76 92.0068 9.032V9.416C92.0068 9.696 92.1028 9.92 92.2948 10.088C92.4868 10.256 92.7428 10.34 93.0628 10.34H93.8068ZM101.927 11.096C101.663 11.096 101.383 11.016 101.087 10.856C100.791 10.688 100.563 10.48 100.403 10.232V11H99.5628V2.6H100.427V5.72C100.603 5.472 100.827 5.276 101.099 5.132C101.379 4.988 101.667 4.916 101.963 4.916H102.815C103.223 4.916 103.583 5.012 103.895 5.204C104.215 5.388 104.463 5.652 104.639 5.996C104.823 6.332 104.915 6.72 104.915 7.16V8.708C104.915 9.18 104.823 9.596 104.639 9.956C104.463 10.316 104.211 10.596 103.883 10.796C103.563 10.996 103.191 11.096 102.767 11.096H101.927ZM102.743 10.328C103.127 10.328 103.439 10.18 103.679 9.884C103.927 9.58 104.051 9.188 104.051 8.708V7.16C104.051 6.72 103.931 6.364 103.691 6.092C103.459 5.82 103.159 5.684 102.791 5.684H101.987C101.571 5.684 101.215 5.836 100.919 6.14C100.623 6.444 100.459 6.844 100.427 7.34V8.804C100.443 9.084 100.523 9.34 100.667 9.572C100.811 9.804 100.995 9.988 101.219 10.124C101.443 10.26 101.679 10.328 101.927 10.328H102.743ZM121.447 2.336H122.311L117.799 11.3H116.935L121.447 2.336ZM136.639 11C136.303 11 136.059 10.796 135.907 10.388L133.843 5.012H134.755L136.603 10.052H136.615L138.463 5.012H139.375L137.047 11H136.639ZM144.381 11.096C143.901 11.096 143.473 10.984 143.097 10.76C142.729 10.536 142.441 10.22 142.233 9.812C142.025 9.404 141.921 8.936 141.921 8.408V5.192C141.921 4.664 142.025 4.196 142.233 3.788C142.441 3.38 142.729 3.064 143.097 2.84C143.473 2.616 143.901 2.504 144.381 2.504H145.653C146.133 2.504 146.557 2.616 146.925 2.84C147.293 3.064 147.577 3.38 147.777 3.788C147.985 4.196 148.089 4.664 148.089 5.192V8.408C148.089 8.936 147.985 9.404 147.777 9.812C147.577 10.22 147.293 10.536 146.925 10.76C146.557 10.984 146.133 11.096 145.653 11.096H144.381ZM145.629 10.304C146.101 10.304 146.481 10.132 146.769 9.788C147.057 9.436 147.201 8.976 147.201 8.408V5.192C147.201 4.624 147.057 4.168 146.769 3.824C146.481 3.472 146.101 3.296 145.629 3.296H144.405C143.933 3.296 143.549 3.472 143.253 3.824C142.957 4.168 142.809 4.624 142.809 5.192V8.408C142.809 8.976 142.957 9.436 143.253 9.788C143.549 10.132 143.933 10.304 144.405 10.304H145.629ZM151.451 11.12C151.259 11.12 151.103 11.06 150.983 10.94C150.863 10.82 150.803 10.664 150.803 10.472C150.803 10.28 150.863 10.124 150.983 10.004C151.103 9.884 151.259 9.824 151.451 9.824C151.643 9.824 151.799 9.884 151.919 10.004C152.039 10.124 152.099 10.28 152.099 10.472C152.099 10.664 152.039 10.82 151.919 10.94C151.799 11.06 151.643 11.12 151.451 11.12ZM157.263 11.096C156.783 11.096 156.355 10.984 155.979 10.76C155.611 10.536 155.323 10.22 155.115 9.812C154.907 9.404 154.803 8.936 154.803 8.408V5.192C154.803 4.664 154.907 4.196 155.115 3.788C155.323 3.38 155.611 3.064 155.979 2.84C156.355 2.616 156.783 2.504 157.263 2.504H158.535C159.015 2.504 159.439 2.616 159.807 2.84C160.175 3.064 160.459 3.38 160.659 3.788C160.867 4.196 160.971 4.664 160.971 5.192V8.408C160.971 8.936 160.867 9.404 160.659 9.812C160.459 10.22 160.175 10.536 159.807 10.76C159.439 10.984 159.015 11.096 158.535 11.096H157.263ZM158.511 10.304C158.983 10.304 159.363 10.132 159.651 9.788C159.939 9.436 160.083 8.976 160.083 8.408V5.192C160.083 4.624 159.939 4.168 159.651 3.824C159.363 3.472 158.983 3.296 158.511 3.296H157.287C156.815 3.296 156.431 3.472 156.135 3.824C155.839 4.168 155.691 4.624 155.691 5.192V8.408C155.691 8.976 155.839 9.436 156.135 9.788C156.431 10.132 156.815 10.304 157.287 10.304H158.511ZM164.332 11.12C164.14 11.12 163.984 11.06 163.864 10.94C163.744 10.82 163.684 10.664 163.684 10.472C163.684 10.28 163.744 10.124 163.864 10.004C163.984 9.884 164.14 9.824 164.332 9.824C164.524 9.824 164.68 9.884 164.8 10.004C164.92 10.124 164.98 10.28 164.98 10.472C164.98 10.664 164.92 10.82 164.8 10.94C164.68 11.06 164.524 11.12 164.332 11.12ZM167.833 10.208C167.833 9.768 167.913 9.388 168.073 9.068C168.233 8.74 168.489 8.444 168.841 8.18L171.817 5.924C172.233 5.62 172.441 5.252 172.441 4.82V4.436C172.441 4.092 172.325 3.816 172.093 3.608C171.861 3.4 171.553 3.296 171.169 3.296H170.065C169.641 3.296 169.301 3.444 169.045 3.74C168.797 4.028 168.673 4.416 168.673 4.904H167.785C167.785 4.176 167.989 3.596 168.397 3.164C168.813 2.724 169.361 2.504 170.041 2.504H171.169C171.817 2.504 172.337 2.68 172.729 3.032C173.129 3.384 173.329 3.852 173.329 4.436V4.82C173.329 5.492 173.009 6.064 172.369 6.536L169.477 8.684C169.189 8.892 168.989 9.108 168.877 9.332C168.773 9.548 168.721 9.84 168.721 10.208H173.449V11H167.833V10.208Z" fill="#1C1E21"/>
</svg>
